<svg width="333" height="277" viewBox="0 0 333 277" fill="none" xmlns="http://www.w3.org/2000/svg">
<path d="M48.7645 250.846C113.803 284.819 219.204 284.819 284.227 250.846C349.25 216.873 349.265 161.812 284.227 127.839C219.188 93.8662 113.788 93.8738 48.7645 127.839C-16.2587 161.805 -16.251 216.881 48.7645 250.846Z" fill="#F5F5F5"/>
<path d="M29.4748 196.689H32.2141C33.4696 192.497 34.2926 188.187 34.6702 183.827C35.2671 175.754 31.3571 163.397 24.1952 159.257C17.0333 155.118 13.154 160.237 15.5566 164.614C17.9592 168.99 26.0622 181.439 26.1693 192.152L29.4748 196.689Z" fill="#2B2F7E"/>
<path d="M28.8167 196.688H29.5818C30.3294 191.402 30.3294 186.036 29.5818 180.75C28.3423 170.275 24.8991 165.409 21.7007 162.027C21.6307 161.952 21.5341 161.909 21.4322 161.906C21.3303 161.904 21.2315 161.941 21.1574 162.011C21.0834 162.081 21.0401 162.178 21.0373 162.28C21.0344 162.382 21.0721 162.48 21.1421 162.555C24.2563 165.837 27.6077 170.581 28.7937 180.834C29.5517 186.091 29.5594 191.429 28.8167 196.688Z" fill="white"/>
<path d="M29.6967 196.688C28.2888 190.047 21.8921 182.15 15.855 180.788C8.85378 179.258 5.44882 182.954 6.45118 186.144C7.45354 189.335 12.9856 190.82 18.3571 193.322C20.1657 194.159 21.819 195.297 23.2464 196.688H29.6967Z" fill="#2B2F7E"/>
<path d="M27.1487 196.688H27.9674C25.0063 189.243 18.2729 183.933 12.7637 183.443C12.7139 183.438 12.6634 183.443 12.6155 183.458C12.5675 183.472 12.5229 183.496 12.4844 183.528C12.4458 183.56 12.4141 183.6 12.3912 183.644C12.3682 183.689 12.3544 183.738 12.3505 183.788C12.3442 183.838 12.3482 183.889 12.3623 183.937C12.3764 183.986 12.4004 184.031 12.4327 184.069C12.465 184.108 12.505 184.14 12.5501 184.162C12.5952 184.185 12.6445 184.198 12.6949 184.201C17.8979 184.668 24.2564 189.657 27.1487 196.688Z" fill="white"/>
<path d="M276.698 126.685L282.429 129.692L282.911 126.103C280.072 118.1 282.406 109.025 285.474 105.245C288.542 101.465 287.953 98.6876 286.844 97.448C285.734 96.2084 281.526 95.2673 277.363 100.134C273.201 105 272.244 110.907 272.941 116.868C273.384 120.594 275.343 124.42 276.698 126.685Z" fill="#2B2F7E"/>
<path opacity="0.2" d="M276.698 126.685L282.429 129.692L282.911 126.103C280.072 118.1 282.406 109.025 285.474 105.245C288.542 101.465 287.953 98.6876 286.844 97.448C285.734 96.2084 281.526 95.2673 277.363 100.134C273.201 105 272.244 110.907 272.941 116.868C273.384 120.594 275.343 124.42 276.698 126.685Z" fill="black"/>
<path d="M279.062 127.925L280.194 128.522C280.183 128.5 280.171 128.48 280.156 128.461C278.534 126.532 276.437 117.09 277.317 111.558C278.404 104.725 281.908 100.265 284.908 98.3746C284.945 98.352 284.976 98.3222 285.001 98.2871C285.026 98.2519 285.044 98.2121 285.053 98.17C285.063 98.1278 285.063 98.0843 285.055 98.0419C285.047 97.9995 285.031 97.9591 285.007 97.9231C284.959 97.85 284.884 97.7987 284.798 97.7801C284.712 97.7615 284.623 97.7771 284.548 97.8237C281.487 99.7901 277.784 104.404 276.659 111.459C275.848 116.608 277.47 124.765 279.062 127.925Z" fill="white"/>
<path d="M282.543 113.027C284.219 117.135 284.211 119.148 281.48 119.569C279.016 119.936 276.024 122.928 278.802 127.787L295.054 136.31C295.095 135.402 295.319 134.511 295.714 133.692C296.108 132.873 296.665 132.142 297.349 131.543C300.02 128.873 302.483 126.861 302.101 123.892C301.718 120.923 299.14 118.061 298.711 115.475C298.283 112.889 299.599 111.412 302.407 108.512C305.215 105.612 307.763 101.113 304.014 99.0624C300.264 97.0118 295.972 100.524 294.181 102.888C292.391 105.253 290.754 106.293 287.226 106.094C283.699 105.895 280.868 108.918 282.543 113.027Z" fill="#2B2F7E"/>
<path d="M287.142 132.164C287.066 119.554 296.102 104.786 301.129 101.802C301.203 101.755 301.257 101.681 301.278 101.595C301.299 101.51 301.287 101.42 301.244 101.343C301.198 101.269 301.125 101.216 301.041 101.195C300.957 101.174 300.868 101.185 300.792 101.228C295.696 104.289 286.583 119.064 286.484 131.835L287.142 132.164Z" fill="white"/>
<path d="M289.56 119.056C289.491 119.072 289.419 119.064 289.355 119.033C289.291 119.003 289.239 118.951 289.208 118.888C287.748 116.164 286.52 113.323 285.535 110.394C285.522 110.353 285.517 110.31 285.521 110.267C285.525 110.224 285.537 110.182 285.557 110.143C285.577 110.105 285.604 110.071 285.637 110.043C285.67 110.015 285.708 109.994 285.749 109.981C285.791 109.968 285.834 109.963 285.877 109.967C285.92 109.971 285.962 109.983 286 110.003C286.039 110.023 286.073 110.05 286.101 110.083C286.129 110.116 286.15 110.154 286.163 110.195C287.138 113.084 288.351 115.886 289.789 118.574C289.83 118.652 289.839 118.743 289.813 118.828C289.787 118.912 289.729 118.983 289.652 119.025L289.56 119.056Z" fill="white"/>
<path d="M287.387 126.784C287.324 126.795 287.26 126.789 287.2 126.766C287.141 126.743 287.089 126.704 287.05 126.654C287 126.58 286.98 126.49 286.996 126.403C287.012 126.315 287.062 126.238 287.134 126.187C290.429 123.88 294.427 122.797 298.436 123.126C298.523 123.137 298.602 123.183 298.656 123.252C298.71 123.322 298.734 123.41 298.723 123.497C298.712 123.584 298.666 123.664 298.597 123.718C298.527 123.771 298.439 123.795 298.352 123.784C294.513 123.492 290.69 124.521 287.517 126.699C287.48 126.736 287.435 126.764 287.387 126.784Z" fill="white"/>
<path d="M191.36 49.757L172.713 38.9912L154.073 49.757L172.713 60.5228L191.36 49.757Z" fill="#F5F5F5"/>
<path d="M172.713 82.0618L191.36 71.2961V49.7568L172.713 60.5226V82.0618Z" fill="#EBEBEB"/>
<path d="M176.309 74.9164C176.21 74.9182 176.113 74.8945 176.026 74.8475C175.907 74.7606 175.812 74.6446 175.75 74.5107C175.689 74.3768 175.662 74.2294 175.674 74.0824V71.7869V71.6186H175.789L177.579 70.5703V73.1183C177.577 73.4465 177.495 73.7692 177.342 74.0595C177.189 74.3497 176.969 74.599 176.699 74.7863C176.583 74.8645 176.448 74.9095 176.309 74.9164ZM175.965 71.9552V74.0671C175.952 74.1654 175.964 74.2653 176 74.3576C176.036 74.4498 176.095 74.5315 176.171 74.595C176.233 74.6227 176.301 74.6331 176.369 74.625C176.436 74.6169 176.5 74.5907 176.554 74.5491C176.783 74.3893 176.971 74.178 177.104 73.9322C177.237 73.6864 177.311 73.4129 177.319 73.1336V72.95H176.653L176.523 72.0547L175.965 71.9552ZM176.883 72.6592H177.296V71.0906L176.225 71.7104L176.753 71.8099L176.883 72.6592Z" fill="white"/>
<path d="M176.63 76.7371C176.592 76.7371 176.555 76.7218 176.527 76.6945C176.5 76.6672 176.485 76.6303 176.485 76.5917V74.6788C176.484 74.6594 176.487 74.64 176.494 74.6219C176.501 74.6037 176.511 74.5873 176.525 74.5735C176.539 74.5598 176.555 74.5491 176.573 74.5422C176.591 74.5353 176.611 74.5323 176.63 74.5334C176.669 74.5334 176.706 74.5487 176.733 74.576C176.76 74.6033 176.776 74.6402 176.776 74.6788V76.5611C176.779 76.5824 176.778 76.6041 176.772 76.6249C176.766 76.6457 176.756 76.665 176.742 76.6816C176.729 76.6982 176.712 76.7118 176.692 76.7213C176.673 76.7309 176.652 76.7362 176.63 76.7371Z" fill="white"/>
<path d="M175.796 77.2192C175.771 77.219 175.746 77.2118 175.724 77.1983C175.703 77.1848 175.685 77.1655 175.674 77.1427C175.663 77.127 175.656 77.1093 175.653 77.0906C175.65 77.0719 175.651 77.0528 175.656 77.0346C175.661 77.0164 175.67 76.9995 175.683 76.9852C175.695 76.9708 175.71 76.9593 175.727 76.9514L177.388 75.9873C177.404 75.9777 177.423 75.9715 177.442 75.969C177.461 75.9665 177.48 75.9678 177.498 75.9728C177.517 75.9777 177.534 75.9863 177.549 75.998C177.564 76.0097 177.577 76.0243 177.587 76.0409C177.604 76.0748 177.608 76.1139 177.598 76.1507C177.589 76.1875 177.565 76.2193 177.533 76.2398L175.865 77.1963L175.796 77.2192Z" fill="white"/>
<path d="M181.734 73.9135C181.682 73.9295 181.626 73.9295 181.573 73.9135C181.517 73.876 181.472 73.8244 181.443 73.7639C181.413 73.7035 181.4 73.6363 181.405 73.5692V73.179C181.404 73.1602 181.407 73.1415 181.413 73.1239C181.42 73.1063 181.429 73.0902 181.442 73.0766C181.455 73.063 181.471 73.0521 181.488 73.0447C181.505 73.0373 181.524 73.0336 181.543 73.0336C181.562 73.0325 181.581 73.0355 181.6 73.0424C181.618 73.0493 181.634 73.06 181.648 73.0737C181.662 73.0874 181.672 73.1039 181.679 73.122C181.686 73.1402 181.689 73.1596 181.688 73.179V73.5003C181.688 73.5615 181.688 73.5921 181.688 73.5921C181.688 73.5921 181.734 73.5921 181.78 73.5921C181.869 73.5113 181.939 73.4118 181.985 73.3007C182.032 73.1896 182.053 73.0696 182.048 72.9494V70.4397C182.048 70.4209 182.051 70.4024 182.059 70.3852C182.066 70.3679 182.077 70.3524 182.091 70.3395C182.104 70.3266 182.12 70.3166 182.138 70.3102C182.156 70.3037 182.174 70.3009 182.193 70.302C182.23 70.302 182.265 70.3165 182.29 70.3423C182.316 70.3681 182.331 70.4032 182.331 70.4397V72.9953C182.336 73.1657 182.303 73.335 182.232 73.4903C182.162 73.6456 182.057 73.7825 181.925 73.8906C181.863 73.9102 181.799 73.918 181.734 73.9135Z" fill="white"/>
<path d="M180.219 71.6872V71.4424C180.254 70.8051 180.439 70.1851 180.758 69.6323C181.077 69.0795 181.521 68.6092 182.055 68.2593C182.246 68.0986 182.482 68.0005 182.731 67.9784C182.979 67.9563 183.229 68.0112 183.445 68.1357C183.662 68.2602 183.834 68.4482 183.94 68.6743C184.046 68.9003 184.08 69.1535 184.037 69.3994V69.4836L180.219 71.6872ZM182.912 68.2899C182.659 68.2979 182.413 68.3746 182.201 68.5118C181.746 68.8116 181.361 69.2048 181.071 69.6653C180.78 70.1258 180.592 70.643 180.517 71.1822L183.746 69.3229C183.758 69.1423 183.724 68.9616 183.646 68.7981C183.569 68.6347 183.45 68.4939 183.302 68.3894C183.184 68.322 183.049 68.2876 182.912 68.2899Z" fill="white"/>
<path d="M186.853 70.9744C186.816 70.9744 186.78 70.9602 186.753 70.9346C186.726 70.9089 186.709 70.8739 186.707 70.8367V65.955C186.707 65.9164 186.723 65.8794 186.75 65.8522C186.777 65.8249 186.814 65.8096 186.853 65.8096C186.891 65.8096 186.928 65.8249 186.956 65.8522C186.983 65.8794 186.998 65.9164 186.998 65.955V70.8367C186.996 70.8739 186.98 70.9089 186.953 70.9346C186.926 70.9602 186.89 70.9744 186.853 70.9744Z" fill="white"/>
<path d="M186.462 67.0649H186.409C186.391 67.0574 186.375 67.0465 186.362 67.0328C186.349 67.0192 186.338 67.003 186.331 66.9852C186.324 66.9674 186.32 66.9484 186.321 66.9293C186.321 66.9101 186.325 66.8912 186.332 66.8737L186.845 65.6953L187.411 66.3533C187.423 66.3674 187.433 66.3837 187.438 66.4013C187.444 66.4189 187.446 66.4375 187.445 66.456C187.443 66.4745 187.438 66.4925 187.43 66.509C187.422 66.5255 187.41 66.5402 187.396 66.5523C187.382 66.5643 187.366 66.5735 187.348 66.5793C187.33 66.585 187.312 66.5873 187.293 66.5858C187.275 66.5844 187.257 66.5794 187.24 66.571C187.224 66.5626 187.209 66.551 187.197 66.537L186.922 66.2309L186.593 66.9961C186.58 67.0187 186.561 67.0372 186.538 67.0493C186.514 67.0615 186.488 67.0669 186.462 67.0649Z" fill="white"/>
<path d="M188.207 70.2251C188.17 70.2232 188.135 70.207 188.109 70.1799C188.084 70.1529 188.069 70.117 188.069 70.0798V65.198C188.064 65.1767 188.064 65.1545 188.069 65.1331C188.074 65.1118 188.083 65.0917 188.097 65.0746C188.111 65.0574 188.128 65.0435 188.148 65.034C188.167 65.0245 188.189 65.0195 188.211 65.0195C188.233 65.0195 188.254 65.0245 188.274 65.034C188.294 65.0435 188.311 65.0574 188.325 65.0746C188.338 65.0917 188.348 65.1118 188.353 65.1331C188.358 65.1545 188.357 65.1767 188.352 65.198V70.0798C188.352 70.1183 188.337 70.1553 188.31 70.1826C188.283 70.2098 188.246 70.2251 188.207 70.2251Z" fill="white"/>
<path d="M187.786 66.3081H187.733C187.715 66.3006 187.699 66.2897 187.686 66.276C187.672 66.2623 187.662 66.2461 187.655 66.2284C187.648 66.2106 187.644 66.1916 187.644 66.1724C187.645 66.1533 187.649 66.1344 187.656 66.1168L188.169 64.9385L188.735 65.5965C188.76 65.6235 188.774 65.659 188.774 65.696C188.774 65.7329 188.76 65.7685 188.735 65.7955C188.707 65.8213 188.67 65.8356 188.632 65.8356C188.594 65.8356 188.557 65.8213 188.528 65.7955L188.261 65.4817L187.932 66.2469C187.916 66.27 187.894 66.2881 187.868 66.2989C187.842 66.3098 187.814 66.313 187.786 66.3081Z" fill="white"/>
<path d="M172.713 82.0618L154.066 71.2961L154.073 49.7568L172.713 60.5226V82.0618Z" fill="#E0E0E0"/>
<path d="M164.403 55.7254L183.035 44.952L180.93 43.7354L162.291 54.5088L164.403 55.7254Z" fill="white"/>
<path d="M156.897 62.1068L163.577 65.9326C163.961 66.1857 164.281 66.525 164.51 66.9235C164.74 67.3221 164.874 67.7688 164.9 68.228V72.3446C164.9 73.1939 164.304 73.5382 163.577 73.1098L156.897 69.284C156.512 69.0313 156.192 68.6921 155.962 68.2935C155.732 67.8948 155.599 67.4479 155.573 66.9885V62.8719C155.573 62.0226 156.17 61.6859 156.897 62.1068Z" fill="#2B2F7E"/>
<path d="M156.384 63.1328L156.637 63.2858V67.8538L156.384 67.7085V63.1328Z" fill="#2B2F7E"/>
<path d="M157.417 63.7285L157.853 63.9887V68.5567L157.417 68.3042V63.7285Z" fill="#2B2F7E"/>
<path d="M158.45 64.3252L158.703 64.4706V69.0462L158.45 68.9009V64.3252Z" fill="#2B2F7E"/>
<path d="M159.223 64.7695L159.736 65.0679V69.6436L159.223 69.3375V64.7695Z" fill="#2B2F7E"/>
<path d="M160.508 65.5195L160.769 65.6649V70.2406L160.508 70.0875V65.5195Z" fill="#2B2F7E"/>
<path d="M161.258 65.9395L161.794 66.2608V70.8288L161.251 70.5075L161.258 65.9395Z" fill="#2B2F7E"/>
<path d="M162.574 66.7129L162.827 66.8583V71.4263L162.574 71.2809V66.7129Z" fill="#2B2F7E"/>
<path d="M163.163 67.043L163.294 67.1195V71.6875L163.163 71.6186V67.043Z" fill="#2B2F7E"/>
<path d="M162.108 66.46L162.23 66.5365V71.1045L162.108 71.0356V66.46Z" fill="#2B2F7E"/>
<path d="M160.026 65.2441L160.149 65.313V69.8886L160.026 69.8121V65.2441Z" fill="#2B2F7E"/>
<path d="M158.886 64.5859L159.016 64.6624V69.2381L158.886 69.1616V64.5859Z" fill="#2B2F7E"/>
<path d="M158.068 64.1348L158.198 64.2113V68.7869L158.068 68.7104V64.1348Z" fill="#2B2F7E"/>
<path d="M156.958 63.4609L157.088 63.5374V68.1131L156.958 68.0366V63.4609Z" fill="#2B2F7E"/>
<path d="M163.607 67.3018L163.86 67.4471V72.0228L163.607 71.8774V67.3018Z" fill="#2B2F7E"/>
<path d="M166.5 46.1686L144.738 33.6123L122.985 46.1686L144.738 58.7325L166.5 46.1686Z" fill="#F5F5F5"/>
<path d="M135.411 53.3461L157.172 40.7898L155.06 39.5732L133.307 52.1295L135.411 53.3461Z" fill="white"/>
<path d="M144.738 98.2064L166.5 85.6502V46.168L144.738 58.7319V98.2064Z" fill="#EBEBEB"/>
<path d="M148.335 91.0998C148.235 91.1016 148.137 91.0751 148.052 91.0233C147.931 90.9379 147.835 90.8223 147.773 90.6879C147.711 90.5536 147.686 90.4054 147.7 90.2582V87.9627V87.7944H147.822L149.605 86.7461V89.2941C149.601 89.622 149.519 89.9443 149.366 90.2344C149.213 90.5244 148.993 90.7739 148.725 90.9621C148.61 91.043 148.475 91.0907 148.335 91.0998ZM147.99 88.1387V90.2505C147.978 90.3488 147.99 90.4487 148.026 90.541C148.062 90.6333 148.121 90.715 148.197 90.7785C148.259 90.8062 148.327 90.8165 148.395 90.8084C148.462 90.8003 148.526 90.7741 148.579 90.7326C148.809 90.5727 148.997 90.3614 149.13 90.1156C149.263 89.8698 149.336 89.5963 149.345 89.317V89.1334H148.679L148.549 88.2382L147.99 88.1387ZM148.909 88.8426H149.36V87.2741L148.289 87.9015L148.817 87.9933L148.909 88.8426Z" fill="white"/>
<path d="M148.656 92.8894C148.618 92.8894 148.581 92.8741 148.553 92.8468C148.526 92.8196 148.511 92.7826 148.511 92.744V90.8235C148.511 90.8047 148.514 90.7862 148.522 90.7689C148.529 90.7517 148.54 90.7362 148.554 90.7233C148.567 90.7104 148.583 90.7004 148.601 90.694C148.619 90.6875 148.637 90.6847 148.656 90.6858C148.693 90.6857 148.729 90.7 148.756 90.7256C148.783 90.7512 148.799 90.7863 148.801 90.8235V92.744C148.8 92.782 148.784 92.8179 148.757 92.8448C148.73 92.8716 148.694 92.8876 148.656 92.8894Z" fill="white"/>
<path d="M147.83 93.3952C147.805 93.3957 147.781 93.3896 147.759 93.3775C147.737 93.3654 147.72 93.3477 147.707 93.3263C147.69 93.2924 147.686 93.2533 147.696 93.2165C147.705 93.1797 147.729 93.1479 147.761 93.1274L149.421 92.1709C149.438 92.1613 149.456 92.1551 149.475 92.1526C149.494 92.1501 149.513 92.1514 149.532 92.1564C149.55 92.1613 149.568 92.1699 149.583 92.1816C149.598 92.1933 149.611 92.2079 149.62 92.2245C149.63 92.2405 149.636 92.2582 149.638 92.2766C149.64 92.295 149.639 92.3137 149.634 92.3315C149.629 92.3494 149.621 92.3661 149.609 92.3805C149.597 92.395 149.583 92.407 149.567 92.4158L147.899 93.3799C147.878 93.3921 147.854 93.3974 147.83 93.3952Z" fill="white"/>
<path d="M153.76 90.0661C153.704 90.0663 153.649 90.0532 153.599 90.0279C153.543 89.9904 153.498 89.9388 153.469 89.8783C153.439 89.8179 153.426 89.7507 153.431 89.6836V89.2857C153.431 89.2669 153.434 89.2484 153.442 89.2312C153.449 89.2139 153.46 89.1984 153.474 89.1855C153.487 89.1726 153.503 89.1626 153.521 89.1562C153.539 89.1497 153.557 89.1469 153.576 89.148C153.594 89.148 153.612 89.1515 153.629 89.1584C153.645 89.1654 153.661 89.1755 153.673 89.1883C153.686 89.2011 153.696 89.2163 153.703 89.233C153.71 89.2497 153.714 89.2676 153.714 89.2857V89.6836C153.714 89.7371 153.714 89.7677 153.714 89.7754C153.714 89.783 153.76 89.7754 153.806 89.7754C153.895 89.693 153.965 89.5921 154.011 89.4798C154.058 89.3675 154.079 89.2464 154.073 89.125V86.577C154.073 86.5385 154.089 86.5015 154.116 86.4742C154.143 86.447 154.18 86.4316 154.219 86.4316C154.257 86.4335 154.293 86.4494 154.319 86.4763C154.346 86.5032 154.362 86.5391 154.364 86.577V89.125C154.371 89.2963 154.338 89.4669 154.266 89.6226C154.194 89.7783 154.086 89.9146 153.951 90.0202C153.891 90.0499 153.826 90.0656 153.76 90.0661Z" fill="white"/>
<path d="M152.245 87.8386V87.5861C152.281 86.95 152.466 86.3313 152.785 85.7798C153.104 85.2283 153.548 84.7593 154.081 84.4107C154.272 84.25 154.508 84.1519 154.756 84.1298C155.005 84.1077 155.255 84.1626 155.471 84.2871C155.687 84.4115 155.86 84.5996 155.966 84.8256C156.072 85.0517 156.106 85.3049 156.063 85.5508V85.6349L152.245 87.8386ZM154.938 84.4336C154.686 84.4452 154.441 84.5216 154.226 84.6555C153.771 84.9561 153.385 85.3505 153.095 85.8124C152.805 86.2743 152.616 86.793 152.543 87.3336L155.772 85.4743C155.783 85.2927 155.749 85.1112 155.671 84.9466C155.593 84.7821 155.476 84.6398 155.328 84.5331C155.208 84.468 155.074 84.4338 154.938 84.4336Z" fill="white"/>
<path d="M158.909 87.1275C158.871 87.1275 158.834 87.1122 158.806 87.085C158.779 87.0577 158.764 87.0207 158.764 86.9822V82.1005C158.764 82.0619 158.779 82.0249 158.806 81.9977C158.834 81.9704 158.871 81.9551 158.909 81.9551C158.948 81.9551 158.985 81.9704 159.012 81.9977C159.039 82.0249 159.054 82.0619 159.054 82.1005V86.9822C159.054 87.0207 159.039 87.0577 159.012 87.085C158.985 87.1122 158.948 87.1275 158.909 87.1275Z" fill="white"/>
<path d="M158.488 83.2175H158.435C158.417 83.2107 158.402 83.2006 158.388 83.1876C158.375 83.1747 158.364 83.1591 158.357 83.142C158.35 83.1248 158.347 83.1064 158.347 83.0878C158.347 83.0692 158.351 83.0509 158.358 83.0338L158.871 81.8555L159.437 82.5135C159.461 82.5419 159.474 82.5788 159.471 82.6161C159.468 82.6535 159.45 82.6881 159.422 82.7124C159.393 82.7368 159.357 82.7489 159.319 82.746C159.282 82.7431 159.247 82.7256 159.223 82.6971L158.947 82.3834L158.618 83.1486C158.605 83.1712 158.586 83.1897 158.563 83.2019C158.54 83.214 158.514 83.2194 158.488 83.2175Z" fill="white"/>
<path d="M160.233 86.3701C160.196 86.3701 160.161 86.3556 160.136 86.3298C160.11 86.3039 160.095 86.2689 160.095 86.2324V81.3507C160.094 81.332 160.097 81.3132 160.103 81.2956C160.11 81.278 160.12 81.2619 160.133 81.2483C160.146 81.2347 160.161 81.2239 160.178 81.2165C160.196 81.2091 160.214 81.2053 160.233 81.2053C160.252 81.2042 160.272 81.2072 160.29 81.2141C160.308 81.221 160.325 81.2317 160.338 81.2454C160.352 81.2591 160.363 81.2756 160.37 81.2938C160.376 81.3119 160.379 81.3313 160.378 81.3507V86.2324C160.378 86.2511 160.375 86.2697 160.367 86.2869C160.36 86.3042 160.349 86.3197 160.335 86.3326C160.322 86.3455 160.306 86.3555 160.288 86.3619C160.27 86.3684 160.252 86.3712 160.233 86.3701Z" fill="white"/>
<path d="M159.82 82.4605H159.758C159.724 82.4438 159.697 82.415 159.683 82.3796C159.669 82.3442 159.669 82.3049 159.682 82.2692L160.195 81.0908L160.768 81.7489C160.792 81.7766 160.805 81.8119 160.805 81.8483C160.805 81.8848 160.792 81.9201 160.768 81.9478C160.755 81.9614 160.739 81.9723 160.721 81.9797C160.703 81.9871 160.684 81.9909 160.665 81.9909C160.646 81.9909 160.627 81.9871 160.609 81.9797C160.591 81.9723 160.575 81.9614 160.562 81.9478L160.294 81.6341L159.965 82.3992C159.95 82.4231 159.928 82.4418 159.902 82.4527C159.876 82.4637 159.847 82.4664 159.82 82.4605Z" fill="white"/>
<path d="M144.738 98.2064L122.985 85.6502V46.168L144.738 58.7319V98.2064Z" fill="#E0E0E0"/>
<path d="M127.408 77.4393L134.08 81.2651C134.466 81.5169 134.787 81.8558 135.019 82.2545C135.25 82.6532 135.384 83.1005 135.411 83.5606V87.6848C135.411 88.5265 134.814 88.8708 134.08 88.45L127.408 84.6242C127.022 84.3729 126.701 84.034 126.471 83.6351C126.241 83.2362 126.108 82.7886 126.084 82.3287V78.2122C126.084 77.3246 126.681 77.0185 127.408 77.4393Z" fill="#F5F5F5"/>
<path d="M126.895 78.4668L127.147 78.6198V83.1878L126.895 83.0424V78.4668Z" fill="#E0E0E0"/>
<path d="M127.928 79.0635L128.364 79.3236V83.8993L127.928 83.6391V79.0635Z" fill="#E0E0E0"/>
<path d="M128.953 79.6592L129.213 79.8046L129.206 84.3802L128.953 84.2348V79.6592Z" fill="#E0E0E0"/>
<path d="M129.734 80.1035L130.239 80.4019V84.9776L129.734 84.6715V80.1035Z" fill="#E0E0E0"/>
<path d="M131.019 80.8535L131.272 80.9989V85.5745L131.019 85.4215V80.8535Z" fill="#E0E0E0"/>
<path d="M131.761 81.2734L132.305 81.5948V86.1628L131.761 85.8414V81.2734Z" fill="#E0E0E0"/>
<path d="M133.085 82.04L133.338 82.1931V86.7611L133.085 86.6157V82.04Z" fill="#E0E0E0"/>
<path d="M133.674 82.376L133.804 82.4525V87.0281L133.674 86.9516V82.376Z" fill="#E0E0E0"/>
<path d="M132.618 81.7949L132.741 81.8714V86.4394L132.618 86.3706V81.7949Z" fill="#E0E0E0"/>
<path d="M130.537 80.5771L130.659 80.646V85.2217L130.537 85.1451V80.5771Z" fill="#E0E0E0"/>
<path d="M129.397 79.9199L129.519 79.9964V84.5721L129.397 84.4956V79.9199Z" fill="#E0E0E0"/>
<path d="M128.578 79.4678L128.708 79.5443V84.1199L128.578 84.0434V79.4678Z" fill="#E0E0E0"/>
<path d="M127.469 78.7949L127.599 78.8714V83.4471L127.469 83.3706V78.7949Z" fill="#E0E0E0"/>
<path d="M134.118 82.6367L134.371 82.7821V87.3577L134.118 87.2124V82.6367Z" fill="#E0E0E0"/>
<path d="M133.307 57.2249L135.411 58.4415V53.3455L133.307 52.1289V57.2249Z" fill="#F0F0F0"/>
<path d="M101.224 87.4413L85.6835 78.4736L63.93 91.0299L79.4704 100.005L101.224 87.4413Z" fill="#F5F5F5"/>
<path d="M79.4704 135.89L101.224 123.334V87.4404L79.4704 100.004V135.89Z" fill="#EBEBEB"/>
<path d="M83.0589 128.753C82.9616 128.755 82.8658 128.729 82.7835 128.677C82.6634 128.591 82.5677 128.475 82.506 128.341C82.4443 128.207 82.4186 128.059 82.4315 127.911V125.616V125.448H82.5463L84.3368 124.399V126.947C84.333 127.275 84.2512 127.598 84.0982 127.888C83.9452 128.178 83.7254 128.427 83.4568 128.615C83.3386 128.696 83.2014 128.743 83.0589 128.753ZM82.7223 125.792V127.904C82.708 128.002 82.7196 128.103 82.7558 128.195C82.792 128.288 82.8517 128.369 82.9289 128.432C82.9914 128.456 83.0592 128.465 83.126 128.457C83.1927 128.449 83.2565 128.425 83.3114 128.386C83.5406 128.226 83.7291 128.015 83.862 127.769C83.9949 127.523 84.0684 127.25 84.0766 126.97V126.787H83.4109L83.2808 125.891L82.7223 125.792ZM83.6405 126.496H84.0536V124.92L82.9824 125.547L83.5104 125.639L83.6405 126.496Z" fill="white"/>
<path d="M83.388 130.574C83.3494 130.574 83.3124 130.559 83.2852 130.531C83.2579 130.504 83.2426 130.467 83.2426 130.429V128.508C83.2426 128.489 83.2464 128.471 83.2538 128.454C83.2612 128.436 83.272 128.421 83.2856 128.408C83.2992 128.395 83.3153 128.385 83.3329 128.379C83.3505 128.372 83.3692 128.369 83.388 128.37C83.4245 128.37 83.4595 128.385 83.4854 128.411C83.5112 128.436 83.5257 128.472 83.5257 128.508V130.429C83.5258 130.466 83.5115 130.502 83.4859 130.529C83.4602 130.556 83.4252 130.572 83.388 130.574Z" fill="white"/>
<path d="M82.554 131.048C82.5291 131.049 82.5044 131.043 82.4827 131.031C82.461 131.019 82.4432 131.001 82.4315 130.979C82.4206 130.963 82.413 130.945 82.4094 130.926C82.4057 130.907 82.4061 130.888 82.4104 130.869C82.4147 130.85 82.4229 130.833 82.4345 130.817C82.446 130.802 82.4607 130.789 82.4775 130.78L84.1455 129.823C84.1621 129.814 84.1804 129.807 84.1994 129.805C84.2183 129.802 84.2376 129.804 84.2561 129.809C84.2746 129.814 84.2919 129.822 84.3071 129.834C84.3222 129.846 84.3349 129.86 84.3444 129.877C84.3539 129.893 84.36 129.911 84.3624 129.929C84.3648 129.947 84.3634 129.966 84.3584 129.984C84.3534 130.002 84.3449 130.018 84.3332 130.033C84.3216 130.047 84.3072 130.059 84.2909 130.068L82.6228 131.032C82.6021 131.044 82.578 131.05 82.554 131.048Z" fill="white"/>
<path d="M88.4916 127.75C88.4358 127.75 88.3807 127.737 88.3309 127.711C88.2751 127.674 88.2301 127.622 88.2005 127.562C88.171 127.501 88.1579 127.434 88.1626 127.367V126.969C88.1626 126.933 88.1771 126.898 88.2029 126.872C88.2288 126.846 88.2638 126.831 88.3003 126.831C88.319 126.83 88.3378 126.833 88.3554 126.84C88.373 126.846 88.3891 126.856 88.4027 126.869C88.4163 126.882 88.4271 126.897 88.4345 126.915C88.4419 126.932 88.4457 126.95 88.4457 126.969V127.367C88.4457 127.421 88.4457 127.451 88.4457 127.459C88.4457 127.467 88.4916 127.459 88.5375 127.459C88.6252 127.375 88.6944 127.274 88.7405 127.162C88.7867 127.05 88.8087 126.93 88.8053 126.809V124.261C88.8003 124.239 88.8002 124.217 88.805 124.196C88.8098 124.174 88.8193 124.154 88.833 124.137C88.8466 124.12 88.8639 124.106 88.8836 124.097C88.9033 124.087 88.925 124.082 88.9469 124.082C88.9688 124.082 88.9904 124.087 89.0101 124.097C89.0299 124.106 89.0472 124.12 89.0608 124.137C89.0744 124.154 89.084 124.174 89.0887 124.196C89.0935 124.217 89.0934 124.239 89.0884 124.261V126.809C89.0947 126.979 89.0614 127.149 88.991 127.304C88.9206 127.459 88.8152 127.596 88.6829 127.704C88.6235 127.733 88.558 127.749 88.4916 127.75Z" fill="white"/>
<path d="M86.9766 125.53V125.278C87.0128 124.642 87.1979 124.023 87.5168 123.472C87.8358 122.92 88.2797 122.451 88.8129 122.103C89.003 121.94 89.2387 121.841 89.4877 121.818C89.7366 121.795 89.9866 121.85 90.2031 121.975C90.4196 122.1 90.592 122.289 90.6966 122.516C90.8012 122.743 90.8328 122.997 90.7871 123.243V123.327L86.9766 125.53ZM89.6699 122.125C89.4176 122.137 89.1725 122.213 88.9583 122.347C88.503 122.648 88.1173 123.042 87.8269 123.504C87.5366 123.966 87.3484 124.485 87.275 125.025L90.5039 123.158C90.5147 122.978 90.4797 122.798 90.4021 122.635C90.3245 122.471 90.2069 122.33 90.0602 122.225C89.9434 122.158 89.812 122.122 89.6776 122.118L89.6699 122.125Z" fill="white"/>
<path d="M93.6411 124.811C93.6025 124.811 93.5656 124.796 93.5383 124.769C93.511 124.741 93.4957 124.704 93.4957 124.666V119.784C93.4957 119.745 93.511 119.709 93.5383 119.681C93.5656 119.654 93.6025 119.639 93.6411 119.639C93.6797 119.639 93.7166 119.654 93.7439 119.681C93.7712 119.709 93.7865 119.745 93.7865 119.784V124.666C93.7865 124.704 93.7712 124.741 93.7439 124.769C93.7166 124.796 93.6797 124.811 93.6411 124.811Z" fill="white"/>
<path d="M93.2203 120.94H93.1667C93.1494 120.933 93.1336 120.923 93.1203 120.91C93.107 120.897 93.0964 120.882 93.0893 120.865C93.0821 120.847 93.0785 120.829 93.0787 120.81C93.0788 120.792 93.0828 120.773 93.0902 120.756L93.6029 119.578L94.1691 120.236C94.1934 120.265 94.2055 120.301 94.2026 120.339C94.1998 120.376 94.1822 120.411 94.1538 120.435C94.1397 120.447 94.1234 120.456 94.1058 120.462C94.0882 120.468 94.0696 120.47 94.0511 120.469C94.0138 120.466 93.9792 120.448 93.9548 120.42L93.6794 120.106L93.3504 120.871C93.3374 120.894 93.3183 120.912 93.2953 120.925C93.2723 120.937 93.2463 120.942 93.2203 120.94Z" fill="white"/>
<path d="M94.9648 124.055C94.9275 124.055 94.8917 124.04 94.8646 124.015C94.8376 123.989 94.8214 123.954 94.8194 123.917V119.035C94.8194 118.997 94.8347 118.96 94.862 118.932C94.8893 118.905 94.9263 118.89 94.9648 118.89C94.9842 118.889 95.0036 118.892 95.0217 118.899C95.0399 118.906 95.0563 118.916 95.0701 118.93C95.0838 118.944 95.0945 118.96 95.1014 118.978C95.1083 118.996 95.1113 119.016 95.1102 119.035V123.917C95.1102 123.936 95.1064 123.954 95.099 123.971C95.0916 123.989 95.0808 124.004 95.0672 124.017C95.0536 124.03 95.0375 124.04 95.0199 124.046C95.0023 124.053 94.9835 124.056 94.9648 124.055Z" fill="white"/>
<path d="M94.544 120.174C94.5268 120.181 94.5077 120.181 94.4905 120.174C94.4731 120.168 94.4573 120.158 94.444 120.145C94.4307 120.132 94.4201 120.116 94.413 120.099C94.4059 120.082 94.4022 120.063 94.4024 120.045C94.4026 120.026 94.4065 120.008 94.4139 119.991L94.9266 118.812L95.4928 119.471C95.5181 119.497 95.5322 119.533 95.5322 119.57C95.5322 119.607 95.5181 119.643 95.4928 119.669C95.4793 119.683 95.4632 119.694 95.4455 119.701C95.4277 119.709 95.4087 119.713 95.3895 119.713C95.3703 119.713 95.3513 119.709 95.3336 119.701C95.3158 119.694 95.2997 119.683 95.2862 119.669L95.0184 119.356L94.6894 120.121C94.6727 120.143 94.6502 120.159 94.6244 120.169C94.5987 120.178 94.5708 120.18 94.544 120.174Z" fill="white"/>
<path d="M79.4704 135.892L63.93 126.924V91.0303L79.4704 100.006V135.892Z" fill="#E0E0E0"/>
<path d="M71.1454 100.296L73.2496 101.513V96.4168L71.1454 95.2002V100.296Z" fill="#F5F5F5"/>
<path d="M73.2496 96.4172L95.0108 83.8533L92.8989 82.6367L71.1454 95.2006L73.2496 96.4172Z" fill="white"/>
<path d="M73.2496 117.948L45.283 101.803L17.3088 117.948L45.283 134.1L73.2496 117.948Z" fill="#F5F5F5"/>
<path d="M45.2831 155.63L73.2496 139.486V117.946L45.2831 134.099V155.63Z" fill="#EBEBEB"/>
<path d="M48.8716 148.484C48.7748 148.483 48.6801 148.456 48.5962 148.408C48.4766 148.321 48.3814 148.206 48.3197 148.072C48.258 147.938 48.232 147.79 48.2442 147.643V145.347V145.179H48.359L50.1494 144.123V146.679C50.1445 147.005 50.0621 147.326 49.9092 147.615C49.7562 147.903 49.537 148.152 49.2695 148.339C49.1518 148.421 49.0146 148.471 48.8716 148.484ZM48.5273 145.523V147.635C48.5137 147.732 48.5256 147.831 48.5618 147.923C48.598 148.014 48.6573 148.094 48.7339 148.155C48.7965 148.184 48.8656 148.196 48.9342 148.189C49.0027 148.182 49.0682 148.157 49.1241 148.117C49.3524 147.956 49.5403 147.745 49.6731 147.499C49.8059 147.254 49.8799 146.981 49.8893 146.702V146.51H49.2006L49.0706 145.615L48.5273 145.523ZM49.4455 146.227H49.8893V144.659L48.8257 145.286L49.3537 145.378L49.4455 146.227Z" fill="white"/>
<path d="M49.193 150.307C49.1749 150.307 49.157 150.304 49.1403 150.297C49.1236 150.29 49.1084 150.28 49.0956 150.267C49.0828 150.254 49.0727 150.239 49.0658 150.222C49.0588 150.205 49.0553 150.187 49.0553 150.169V148.249C49.0503 148.227 49.0502 148.205 49.055 148.184C49.0598 148.163 49.0693 148.143 49.0829 148.125C49.0965 148.108 49.1138 148.094 49.1336 148.085C49.1533 148.075 49.1749 148.07 49.1968 148.07C49.2187 148.07 49.2404 148.075 49.2601 148.085C49.2798 148.094 49.2971 148.108 49.3107 148.125C49.3244 148.143 49.3339 148.163 49.3387 148.184C49.3435 148.205 49.3434 148.227 49.3384 148.249V150.169C49.3384 150.188 49.3346 150.207 49.3272 150.224C49.3198 150.241 49.309 150.257 49.2954 150.27C49.2818 150.282 49.2657 150.292 49.2481 150.299C49.2305 150.305 49.2117 150.308 49.193 150.307Z" fill="white"/>
<path d="M48.3589 150.781C48.3283 150.779 48.2991 150.767 48.2754 150.748C48.2517 150.728 48.2349 150.702 48.2272 150.672C48.2196 150.642 48.2216 150.611 48.2328 150.582C48.2441 150.554 48.2642 150.529 48.2901 150.513L49.9581 149.557C49.9733 149.546 49.9906 149.538 50.0089 149.535C50.0272 149.531 50.0461 149.531 50.0643 149.536C50.0824 149.54 50.0994 149.548 50.1141 149.56C50.1288 149.571 50.1408 149.586 50.1494 149.602C50.1604 149.618 50.168 149.636 50.1716 149.655C50.1752 149.674 50.1749 149.693 50.1706 149.712C50.1662 149.731 50.158 149.749 50.1465 149.764C50.1349 149.779 50.1203 149.792 50.1035 149.801L48.4355 150.781H48.3589Z" fill="white"/>
<path d="M54.2966 147.491C54.2462 147.502 54.194 147.502 54.1436 147.491C54.0851 147.454 54.0379 147.401 54.0069 147.339C53.9759 147.277 53.9623 147.208 53.9676 147.139V146.749C53.9676 146.71 53.9829 146.673 54.0102 146.646C54.0375 146.619 54.0744 146.603 54.113 146.603C54.1515 146.603 54.1885 146.619 54.2158 146.646C54.2431 146.673 54.2584 146.71 54.2584 146.749V147.139C54.2478 147.171 54.2478 147.206 54.2584 147.238C54.2584 147.238 54.3043 147.238 54.3578 147.238C54.4442 147.154 54.5119 147.053 54.5567 146.941C54.6015 146.829 54.6224 146.708 54.618 146.588V144.04C54.6199 144.002 54.6358 143.966 54.6626 143.939C54.6895 143.912 54.7254 143.896 54.7634 143.895C54.8019 143.895 54.8389 143.91 54.8662 143.937C54.8934 143.964 54.9088 144.001 54.9088 144.04V146.588C54.9151 146.758 54.8817 146.928 54.8113 147.083C54.741 147.239 54.6355 147.375 54.5032 147.483C54.4359 147.502 54.3651 147.505 54.2966 147.491Z" fill="white"/>
<path d="M52.7892 145.265V145.012C52.8225 144.376 53.0062 143.756 53.3255 143.204C53.6447 142.652 54.0903 142.183 54.6256 141.837C54.8157 141.674 55.0514 141.575 55.3004 141.552C55.5493 141.529 55.7993 141.584 56.0158 141.709C56.2323 141.834 56.4047 142.023 56.5093 142.25C56.6139 142.477 56.6455 142.731 56.5997 142.977V143.061L52.7892 145.265ZM55.4826 141.86C55.2281 141.873 54.9809 141.949 54.7634 142.082C54.3095 142.383 53.9252 142.778 53.6362 143.24C53.3472 143.702 53.1602 144.22 53.0877 144.76L56.309 142.893C56.3213 142.713 56.2878 142.533 56.2115 142.37C56.1352 142.206 56.0187 142.065 55.8728 141.959C55.754 141.892 55.6192 141.858 55.4826 141.86Z" fill="white"/>
<path d="M59.4538 144.552C59.4344 144.553 59.4151 144.55 59.3969 144.543C59.3788 144.537 59.3623 144.526 59.3486 144.512C59.3348 144.498 59.3242 144.482 59.3173 144.464C59.3103 144.446 59.3073 144.426 59.3085 144.407V139.525C59.3035 139.504 59.3034 139.482 59.3081 139.46C59.3129 139.439 59.3225 139.419 59.3361 139.402C59.3497 139.385 59.367 139.371 59.3867 139.361C59.4065 139.352 59.4281 139.347 59.45 139.347C59.4719 139.347 59.4935 139.352 59.5133 139.361C59.533 139.371 59.5503 139.385 59.5639 139.402C59.5775 139.419 59.5871 139.439 59.5919 139.46C59.5967 139.482 59.5966 139.504 59.5916 139.525V144.407C59.5926 144.426 59.5898 144.444 59.5834 144.462C59.5769 144.48 59.5669 144.496 59.554 144.509C59.5411 144.523 59.5256 144.534 59.5084 144.541C59.4911 144.549 59.4726 144.552 59.4538 144.552Z" fill="white"/>
<path d="M59.0712 140.642H59.01C58.9923 140.635 58.9764 140.624 58.9632 140.61C58.95 140.596 58.9398 140.58 58.9334 140.562C58.9269 140.544 58.9242 140.524 58.9256 140.505C58.9269 140.486 58.9322 140.468 58.9411 140.451L59.4461 139.272L60.02 139.93C60.0453 139.96 60.058 139.998 60.0551 140.037C60.0522 140.076 60.0341 140.112 60.0047 140.137C59.9752 140.162 59.9369 140.175 59.8982 140.172C59.8595 140.169 59.8234 140.151 59.7981 140.122L59.5303 139.808L59.2012 140.573C59.1877 140.595 59.1684 140.613 59.1456 140.625C59.1227 140.637 59.097 140.643 59.0712 140.642Z" fill="white"/>
<path d="M60.7775 143.796C60.739 143.796 60.702 143.78 60.6747 143.753C60.6475 143.726 60.6321 143.689 60.6321 143.65V138.768C60.6321 138.73 60.6475 138.693 60.6747 138.666C60.702 138.638 60.739 138.623 60.7775 138.623C60.8161 138.623 60.8531 138.638 60.8803 138.666C60.9076 138.693 60.9229 138.73 60.9229 138.768V143.65C60.9229 143.689 60.9076 143.726 60.8803 143.753C60.8531 143.78 60.8161 143.796 60.7775 143.796Z" fill="white"/>
<path d="M60.3567 139.885H60.3031C60.2858 139.879 60.27 139.868 60.2567 139.855C60.2434 139.842 60.2328 139.827 60.2257 139.81C60.2185 139.793 60.2149 139.774 60.2151 139.756C60.2153 139.737 60.2192 139.719 60.2266 139.702L60.7393 138.516L61.3055 139.174C61.3191 139.187 61.33 139.203 61.3374 139.221C61.3448 139.239 61.3486 139.258 61.3486 139.277C61.3486 139.296 61.3448 139.315 61.3374 139.333C61.33 139.351 61.3191 139.367 61.3055 139.38C61.2926 139.394 61.2772 139.404 61.2601 139.412C61.243 139.419 61.2246 139.423 61.206 139.423C61.1874 139.423 61.169 139.419 61.152 139.412C61.1349 139.404 61.1194 139.394 61.1066 139.38L60.8311 139.067L60.5021 139.832C60.486 139.854 60.4636 139.871 60.4376 139.881C60.4117 139.89 60.3835 139.892 60.3567 139.885Z" fill="white"/>
<path d="M45.283 155.63L17.3088 139.486V117.946L45.283 134.099V155.63Z" fill="#E0E0E0"/>
<path d="M30.24 130.513L32.3442 131.73V126.634L30.24 125.417V130.513Z" fill="#F5F5F5"/>
<path d="M32.3442 126.634L60.3184 110.489L58.2142 109.265L30.24 125.417L32.3442 126.634Z" fill="white"/>
<path d="M21.7391 131.277L28.4113 135.103C28.7973 135.354 29.1189 135.693 29.3501 136.092C29.5813 136.491 29.7158 136.938 29.7427 137.398V141.522C29.7427 142.364 29.1459 142.708 28.4113 142.287L21.7391 138.462C21.3533 138.21 21.0322 137.871 20.8022 137.472C20.5722 137.074 20.4396 136.626 20.4154 136.166V132.05C20.4154 131.193 21.0122 130.887 21.7391 131.277Z" fill="#F5F5F5"/>
<path d="M21.2264 132.303L21.4789 132.448V137.024L21.2264 136.878V132.303Z" fill="#E0E0E0"/>
<path d="M22.2518 132.899L22.6956 133.16V137.728L22.2518 137.475V132.899Z" fill="#E0E0E0"/>
<path d="M23.2847 133.496L23.5449 133.641L23.5372 138.217L23.2847 138.072V133.496Z" fill="#E0E0E0"/>
<path d="M24.0652 133.939L24.5779 134.238L24.5703 138.814L24.0652 138.507V133.939Z" fill="#E0E0E0"/>
<path d="M25.3507 134.689L25.6032 134.835V139.41L25.3507 139.257V134.689Z" fill="#E0E0E0"/>
<path d="M26.093 135.111L26.6362 135.433V140.001L26.093 139.679V135.111Z" fill="#E0E0E0"/>
<path d="M27.4166 135.884L27.6691 136.029V140.597L27.4166 140.452V135.884Z" fill="#E0E0E0"/>
<path d="M28.0058 136.214L28.1359 136.29V140.858L28.0058 140.79V136.214Z" fill="#E0E0E0"/>
<path d="M26.9498 135.632L27.0723 135.701V140.276L26.9498 140.207V135.632Z" fill="#E0E0E0"/>
<path d="M24.8686 134.415L24.991 134.484V139.06L24.8686 138.983V134.415Z" fill="#E0E0E0"/>
<path d="M23.7286 133.756L23.8587 133.832V138.4L23.7286 138.332V133.756Z" fill="#E0E0E0"/>
<path d="M22.9098 133.306L23.0399 133.382V137.958L22.9098 137.881V133.306Z" fill="#E0E0E0"/>
<path d="M21.8003 132.632L21.9304 132.708V137.276L21.8003 137.207V132.632Z" fill="#E0E0E0"/>
<path d="M28.4496 136.473L28.7021 136.626V141.194L28.4496 141.048V136.473Z" fill="#E0E0E0"/>
<path d="M67.0365 74.8852L45.283 62.3213L23.5219 74.8852L45.283 87.4415L67.0365 74.8852Z" fill="#F5F5F5"/>
<path d="M45.2831 130.513L67.0365 117.949V74.8857L45.2831 87.442V130.513Z" fill="#EBEBEB"/>
<path d="M48.8716 123.366C48.7754 123.366 48.6806 123.343 48.5962 123.297C48.4766 123.21 48.3814 123.094 48.3197 122.96C48.258 122.826 48.232 122.679 48.2442 122.532V120.236V120.068H48.359L50.1494 119.02V121.568C50.1451 121.895 50.063 122.217 49.9101 122.507C49.7571 122.797 49.5376 123.047 49.2695 123.236C49.1505 123.313 49.0133 123.358 48.8716 123.366ZM48.5273 120.404V122.524C48.5152 122.621 48.5277 122.72 48.5639 122.811C48.6 122.902 48.6585 122.982 48.7339 123.044C48.7965 123.073 48.8656 123.084 48.9342 123.078C49.0027 123.071 49.0682 123.046 49.1241 123.006C49.3526 122.844 49.5405 122.631 49.6732 122.384C49.8059 122.137 49.8799 121.863 49.8893 121.583V121.399H49.2006L49.0706 120.504L48.5273 120.404ZM49.4455 121.108H49.8893V119.54L48.8257 120.167L49.3537 120.259L49.4455 121.108Z" fill="white"/>
<path d="M49.1931 125.187C49.1743 125.187 49.1557 125.184 49.1385 125.176C49.1213 125.169 49.1058 125.158 49.0929 125.144C49.08 125.131 49.07 125.115 49.0635 125.097C49.0571 125.079 49.0543 125.061 49.0553 125.042V123.129C49.0543 123.11 49.0571 123.092 49.0635 123.074C49.07 123.056 49.08 123.04 49.0929 123.027C49.1058 123.013 49.1213 123.002 49.1385 122.995C49.1557 122.987 49.1743 122.984 49.1931 122.984C49.2124 122.983 49.2318 122.986 49.25 122.992C49.2681 122.999 49.2846 123.01 49.2983 123.024C49.312 123.037 49.3227 123.054 49.3296 123.072C49.3365 123.09 49.3395 123.11 49.3384 123.129V125.042C49.3395 125.061 49.3365 125.081 49.3296 125.099C49.3227 125.117 49.312 125.133 49.2983 125.147C49.2846 125.161 49.2681 125.172 49.25 125.178C49.2318 125.185 49.2124 125.188 49.1931 125.187Z" fill="white"/>
<path d="M48.3589 125.668C48.3283 125.666 48.2991 125.655 48.2754 125.635C48.2517 125.616 48.2349 125.589 48.2272 125.559C48.2196 125.53 48.2216 125.498 48.2328 125.47C48.2441 125.441 48.2642 125.417 48.2901 125.401L49.9581 124.436C49.9916 124.417 50.0314 124.412 50.0687 124.422C50.106 124.432 50.1378 124.457 50.1571 124.49C50.1763 124.523 50.1815 124.563 50.1715 124.601C50.1614 124.638 50.137 124.67 50.1035 124.689L48.4355 125.645C48.413 125.661 48.3862 125.669 48.3589 125.668Z" fill="white"/>
<path d="M54.2966 122.371C54.2422 122.371 54.1889 122.355 54.1436 122.325C54.0851 122.29 54.0377 122.239 54.0066 122.178C53.9755 122.117 53.962 122.049 53.9676 121.981V121.591C53.9676 121.552 53.9829 121.515 54.0102 121.488C54.0374 121.461 54.0744 121.445 54.113 121.445C54.1515 121.445 54.1885 121.461 54.2158 121.488C54.243 121.515 54.2584 121.552 54.2584 121.591V121.981C54.2478 122.013 54.2478 122.048 54.2584 122.08C54.2909 122.09 54.3253 122.09 54.3578 122.08C54.4452 121.999 54.5137 121.899 54.5586 121.788C54.6035 121.677 54.6238 121.557 54.618 121.438V118.89C54.618 118.851 54.6333 118.814 54.6606 118.787C54.6878 118.76 54.7248 118.744 54.7634 118.744C54.7827 118.743 54.8021 118.746 54.8203 118.753C54.8384 118.76 54.8549 118.771 54.8686 118.784C54.8824 118.798 54.893 118.815 54.8999 118.833C54.9069 118.851 54.9099 118.87 54.9087 118.89V121.438C54.915 121.608 54.8817 121.778 54.8113 121.933C54.741 122.088 54.6355 122.225 54.5032 122.333C54.4384 122.362 54.3676 122.375 54.2966 122.371Z" fill="white"/>
<path d="M52.7892 120.176V119.931C52.8237 119.294 53.008 118.673 53.327 118.12C53.6461 117.567 54.091 117.097 54.6256 116.748C54.8174 116.59 55.0532 116.493 55.3013 116.473C55.5494 116.452 55.7978 116.508 56.013 116.634C56.2282 116.759 56.3999 116.947 56.5048 117.173C56.6097 117.398 56.6428 117.651 56.5997 117.896V117.973L52.7892 120.176ZM55.4826 116.779C55.2281 116.792 54.9809 116.868 54.7634 117.001C54.3104 117.301 53.9266 117.695 53.6377 118.155C53.3487 118.616 53.1612 119.133 53.0877 119.671L56.309 117.812C56.3228 117.632 56.2899 117.451 56.2135 117.288C56.1371 117.124 56.0198 116.983 55.8728 116.878C55.7579 116.797 55.6229 116.75 55.4826 116.741V116.779Z" fill="white"/>
<path d="M59.4538 119.411C59.4153 119.411 59.3783 119.395 59.351 119.368C59.3238 119.341 59.3085 119.304 59.3085 119.265V114.384C59.3035 114.362 59.3034 114.34 59.3081 114.319C59.3129 114.297 59.3225 114.277 59.3361 114.26C59.3497 114.243 59.367 114.229 59.3867 114.22C59.4065 114.21 59.4281 114.205 59.45 114.205C59.4719 114.205 59.4935 114.21 59.5133 114.22C59.533 114.229 59.5503 114.243 59.5639 114.26C59.5775 114.277 59.5871 114.297 59.5919 114.319C59.5967 114.34 59.5966 114.362 59.5916 114.384V119.265C59.5916 119.303 59.5773 119.338 59.5517 119.365C59.5261 119.393 59.491 119.409 59.4538 119.411Z" fill="white"/>
<path d="M59.0712 115.514H59.01C58.9923 115.507 58.9764 115.496 58.9632 115.482C58.95 115.468 58.9398 115.452 58.9334 115.434C58.9269 115.416 58.9242 115.397 58.9256 115.377C58.9269 115.358 58.9322 115.34 58.9411 115.323L59.4461 114.145L60.02 114.803C60.0452 114.83 60.0593 114.865 60.0593 114.902C60.0593 114.939 60.0452 114.975 60.02 115.002C59.9918 115.027 59.9549 115.042 59.9167 115.042C59.8784 115.042 59.8416 115.027 59.8134 115.002L59.5456 114.688L59.2166 115.453C59.2015 115.477 59.1795 115.495 59.1535 115.506C59.1275 115.517 59.0988 115.52 59.0712 115.514Z" fill="white"/>
<path d="M60.7775 118.645C60.7396 118.643 60.7037 118.627 60.6768 118.6C60.6499 118.574 60.634 118.538 60.6321 118.5V113.618C60.6321 113.579 60.6475 113.543 60.6747 113.515C60.702 113.488 60.739 113.473 60.7775 113.473C60.8161 113.473 60.8531 113.488 60.8803 113.515C60.9076 113.543 60.9229 113.579 60.9229 113.618V118.5C60.921 118.538 60.9051 118.574 60.8783 118.6C60.8514 118.627 60.8155 118.643 60.7775 118.645Z" fill="white"/>
<path d="M60.3567 114.765H60.3031C60.2855 114.758 60.2695 114.747 60.2562 114.733C60.2428 114.719 60.2322 114.703 60.2251 114.685C60.218 114.668 60.2145 114.649 60.2147 114.629C60.215 114.61 60.219 114.591 60.2266 114.574L60.7393 113.396L61.3055 114.054C61.3191 114.067 61.33 114.083 61.3373 114.101C61.3447 114.119 61.3485 114.138 61.3485 114.157C61.3485 114.176 61.3447 114.195 61.3373 114.213C61.33 114.231 61.3191 114.247 61.3055 114.26C61.2777 114.284 61.2425 114.297 61.206 114.297C61.1695 114.297 61.1342 114.284 61.1065 114.26L60.8311 113.946L60.5021 114.712C60.4853 114.733 60.4628 114.75 60.4371 114.759C60.4114 114.769 60.3835 114.771 60.3567 114.765Z" fill="white"/>
<path d="M45.283 130.513L23.5219 117.949V74.8857L45.283 87.442V130.513Z" fill="#E0E0E0"/>
<path d="M33.8439 85.9339L35.9557 87.1505V82.0621L33.8439 80.8379V85.9339Z" fill="#F5F5F5"/>
<path d="M35.9557 82.0618L57.7092 69.4979L55.605 68.2812L33.8439 80.8375L35.9557 82.0618Z" fill="white"/>
<path d="M27.9522 109.738L34.6244 113.564C35.0107 113.815 35.3321 114.154 35.5622 114.553C35.7922 114.952 35.9245 115.399 35.9481 115.859V119.976C35.9481 120.818 35.359 121.162 34.6244 120.741L27.9522 116.915C27.5649 116.665 27.2424 116.326 27.011 115.927C26.7796 115.528 26.6459 115.08 26.6208 114.62V110.503C26.6285 109.662 27.2177 109.317 27.9522 109.738Z" fill="#F5F5F5"/>
<path d="M27.4318 110.77L27.6843 110.915V115.491L27.4318 115.338V110.77Z" fill="#E0E0E0"/>
<path d="M28.4648 111.368L28.901 111.621V116.196L28.4648 115.936V111.368Z" fill="#E0E0E0"/>
<path d="M29.4979 111.956L29.7504 112.109V116.677L29.4979 116.532V111.956Z" fill="#E0E0E0"/>
<path d="M30.2783 112.4L30.7833 112.706V117.274L30.2783 116.976V112.4Z" fill="#E0E0E0"/>
<path d="M31.5638 113.151L31.8163 113.297V117.872L31.5638 117.727V113.151Z" fill="#E0E0E0"/>
<path d="M32.3059 113.571L32.8492 113.893V118.468L32.3059 118.147V113.571Z" fill="#E0E0E0"/>
<path d="M33.6298 114.344L33.8823 114.489V119.065L33.6298 118.912V114.344Z" fill="#E0E0E0"/>
<path d="M34.2188 114.682L34.3412 114.751V119.326L34.2188 119.25V114.682Z" fill="#E0E0E0"/>
<path d="M33.1553 114.092L33.2854 114.168V118.744L33.1553 118.667V114.092Z" fill="#E0E0E0"/>
<path d="M31.074 112.875L31.2041 112.952V117.52L31.074 117.451V112.875Z" fill="#E0E0E0"/>
<path d="M29.934 112.226L30.0641 112.294V116.87L29.934 116.794V112.226Z" fill="#E0E0E0"/>
<path d="M29.1229 111.774L29.2453 111.843V116.419L29.1229 116.342V111.774Z" fill="#E0E0E0"/>
<path d="M28.0134 111.1L28.1359 111.168V115.744L28.0134 115.668V111.1Z" fill="#E0E0E0"/>
<path d="M34.655 114.941L34.9152 115.087V119.655L34.655 119.509V114.941Z" fill="#E0E0E0"/>
<path d="M23.7285 193.438L107.238 241.643C108.265 242.164 109.4 242.436 110.551 242.436C111.702 242.436 112.837 242.164 113.864 241.643L296.837 136.051C298.665 134.996 298.665 133.282 296.837 132.226L213.327 84.0207C212.302 83.4962 211.166 83.2227 210.014 83.2227C208.862 83.2227 207.727 83.4962 206.701 84.0207L23.7285 189.613C21.8998 190.669 21.8998 192.382 23.7285 193.438Z" fill="#455A64"/>
<path d="M68.8652 215.82C70.289 216.539 71.8614 216.913 73.4562 216.913C75.0509 216.913 76.6233 216.539 78.0471 215.82C80.5951 214.351 80.5951 211.994 78.0471 210.502C76.6244 209.781 75.0515 209.404 73.4562 209.404C71.8608 209.404 70.2879 209.781 68.8652 210.502C66.3172 211.994 66.3172 214.366 68.8652 215.82Z" fill="#263238"/>
<path d="M108.806 241.644L25.297 193.439C23.6596 192.49 23.4913 191.021 24.7844 189.965C23.9676 190.611 23.2961 191.422 22.8136 192.345C22.3311 193.267 22.0484 194.282 21.9839 195.321V198.435C22.0467 199.585 22.3794 200.703 22.955 201.7C23.5306 202.697 24.3329 203.545 25.297 204.174L108.806 252.379C109.828 252.912 110.968 253.176 112.12 253.144V242.439C110.965 242.462 109.825 242.188 108.806 241.644Z" fill="#37474F"/>
<path d="M296.829 146.779C297.795 146.152 298.6 145.305 299.177 144.308C299.754 143.311 300.087 142.191 300.15 141.041V137.926C300.088 136.886 299.805 135.87 299.321 134.947C298.837 134.023 298.162 133.213 297.342 132.57C298.642 133.626 298.474 135.095 296.837 136.036L113.864 241.644C112.842 242.175 111.702 242.438 110.551 242.409V253.175C111.702 253.204 112.842 252.941 113.864 252.41L296.829 146.779Z" fill="#263238"/>
<path d="M120.995 231.658L41.067 185.488C39.9651 184.853 39.9651 183.82 41.067 183.193L195.568 93.9676C196.184 93.6544 196.866 93.4912 197.557 93.4912C198.249 93.4912 198.93 93.6544 199.547 93.9676L279.506 140.13C280.6 140.765 280.6 141.79 279.506 142.425L124.944 231.658C124.331 231.966 123.655 232.127 122.97 232.127C122.284 232.127 121.608 231.966 120.995 231.658Z" fill="white"/>
<path d="M88.7899 205.88L98.1172 200.494L95.0106 198.703L85.6833 204.082L88.7899 205.88Z" fill="#2B2F7E"/>
<path d="M200.687 141.279L210.014 135.892L206.9 134.102L197.58 139.488L200.687 141.279Z" fill="#2B2F7E"/>
<path d="M219.334 130.511L228.661 125.124L225.554 123.334L216.227 128.713L219.334 130.511Z" fill="#2B2F7E"/>
<path d="M249.267 111.65C249.629 111.831 250.028 111.926 250.434 111.926C250.839 111.926 251.238 111.831 251.6 111.65C251.741 111.602 251.863 111.511 251.949 111.391C252.035 111.27 252.082 111.125 252.082 110.977C252.082 110.828 252.035 110.684 251.949 110.563C251.863 110.442 251.741 110.351 251.6 110.303C251.239 110.119 250.839 110.022 250.434 110.022C250.028 110.022 249.628 110.119 249.267 110.303C249.126 110.351 249.004 110.442 248.918 110.563C248.832 110.684 248.785 110.828 248.785 110.977C248.785 111.125 248.832 111.27 248.918 111.391C249.004 111.511 249.126 111.602 249.267 111.65Z" fill="#263238"/>
<path d="M252.993 122.216C253.715 122.582 254.513 122.773 255.323 122.773C256.132 122.773 256.931 122.582 257.653 122.216C258.938 121.451 258.938 120.265 257.653 119.523C256.931 119.157 256.132 118.967 255.323 118.967C254.513 118.967 253.715 119.157 252.993 119.523C251.708 120.265 251.708 121.474 252.993 122.216Z" fill="#263238"/>
<path d="M249.703 117.535C250.56 117.038 250.514 116.212 249.603 115.684L234.3 106.831C233.808 106.567 233.259 106.423 232.701 106.413C232.142 106.402 231.589 106.524 231.086 106.769C230.23 107.267 230.275 108.093 231.186 108.621L246.535 117.474C247.022 117.73 247.562 117.869 248.112 117.879C248.662 117.89 249.206 117.772 249.703 117.535Z" fill="#263238"/>
<path d="M223.58 81.6328L224.101 81.3267C223.741 82.6324 223.566 83.9819 223.58 85.3361V87.2031C223.58 93.9059 231.622 111.03 234.583 117.09C234.889 117.725 230.826 122.048 230.826 122.048L235.655 119.263C235.655 119.263 247.721 109.316 247.721 101.144V99.2773C247.721 91.0672 242.319 81.2961 235.655 77.4473C232.288 75.5115 229.25 75.4426 227.062 76.9117L222.471 79.5439L223.58 81.6328ZM229.617 87.8994C229.617 84.0736 232.318 82.4897 235.655 84.4179C235.379 86.8894 239.894 94.5869 241.684 94.87C241.684 98.6958 238.983 100.28 235.655 98.3515C233.903 97.2037 232.446 95.6592 231.402 93.8433C230.359 92.0273 229.758 89.991 229.648 87.8994H229.617Z" fill="#2B2F7E"/>
<path d="M218.614 90.1936C218.752 98.3961 231.209 122.047 231.209 122.047C231.209 122.047 243.115 111.932 242.985 103.729V101.862C242.847 93.6597 237.284 83.9728 230.551 80.2388C223.817 76.5049 218.477 80.1164 218.614 88.3266V90.1936ZM224.659 90.7904C224.598 86.9646 227.276 85.3348 230.635 87.2018C232.411 88.318 233.898 89.8371 234.976 91.6359C236.054 93.4347 236.693 95.4624 236.84 97.5544C236.909 101.38 234.231 103.01 230.865 101.143C229.091 100.025 227.606 98.5048 226.528 96.7065C225.45 94.9082 224.81 92.8816 224.659 90.7904Z" fill="#2B2F7E"/>
<path opacity="0.1" d="M218.614 90.1936C218.752 98.3961 231.209 122.047 231.209 122.047C231.209 122.047 243.115 111.932 242.985 103.729V101.862C242.847 93.6597 237.284 83.9728 230.551 80.2388C223.817 76.5049 218.477 80.1164 218.614 88.3266V90.1936ZM224.659 90.7904C224.598 86.9646 227.276 85.3348 230.635 87.2018C232.411 88.318 233.898 89.8371 234.976 91.6359C236.054 93.4347 236.693 95.4624 236.84 97.5544C236.909 101.38 234.231 103.01 230.865 101.143C229.091 100.025 227.606 98.5048 226.528 96.7065C225.45 94.9082 224.81 92.8816 224.659 90.7904Z" fill="black"/>
<path d="M101.92 199.588C109.656 204.041 127.79 200.804 142.428 192.349L182.637 169.142C197.274 160.687 202.86 150.235 195.109 145.789C187.358 141.344 169.208 144.596 154.555 153.043L114.423 176.22C99.7929 184.667 94.192 195.157 101.92 199.588Z" fill="#F0F0F0"/>
<path d="M218.989 5.03227H219.028L225.646 1.20647H225.7C229.87 -0.905366 235.44 -0.323841 241.439 3.57847C253.498 11.3372 262.703 29.2419 262.007 43.558C261.655 50.6969 258.946 55.594 254.761 57.7517H254.722L248.096 61.5775H248.05C243.88 63.697 238.302 63.1078 232.295 59.2132C220.244 51.4468 211.039 33.5497 211.736 19.2336C212.103 12.087 214.85 7.19001 218.989 5.03227Z" fill="#37474F"/>
<path d="M248.433 61.3791L254.745 57.7064H254.791C258.938 55.541 261.678 50.6439 262.03 43.5127C262.336 37.1312 260.675 30.0382 257.676 23.4502L251.05 27.276C254.057 33.864 255.717 40.957 255.403 47.3461C255.074 54.3091 252.442 59.1525 248.433 61.3791Z" fill="#263238"/>
<path d="M232.326 59.2062C220.275 51.4399 211.07 33.5428 211.766 19.2267C212.463 4.91056 222.815 -0.407288 234.843 7.35142C246.872 15.1101 256.107 33.0148 255.411 47.331C254.715 61.6471 244.377 66.9649 232.326 59.2062Z" fill="#455A64"/>
<path d="M242.426 58.1949C249.535 58.5392 250.69 50.5433 250.843 47.1001C251.455 34.4749 242.992 18.024 232.364 11.1759C230.1 9.58959 227.464 8.61445 224.713 8.34476C217.612 8.00044 216.457 15.9964 216.296 19.4396C215.684 32.0647 224.139 48.5156 234.775 55.402C237.039 56.9883 239.675 57.9634 242.426 58.2331V58.1949Z" fill="#FAFAFA"/>
<path d="M232.196 35.6449C232.28 35.6452 232.363 35.6296 232.441 35.599C232.601 35.5471 232.739 35.4441 232.834 35.3058C232.93 35.1675 232.977 35.0017 232.969 34.8339V16.6001C232.969 16.3972 232.888 16.2026 232.745 16.0591C232.601 15.9156 232.407 15.835 232.204 15.835C232.001 15.835 231.806 15.9156 231.663 16.0591C231.519 16.2026 231.439 16.3972 231.439 16.6001V32.6149L222.922 21.6731C222.796 21.5108 222.611 21.4051 222.408 21.3792C222.204 21.3534 221.998 21.4096 221.836 21.5354C221.673 21.6612 221.568 21.8464 221.542 22.0501C221.516 22.2539 221.572 22.4596 221.698 22.6219L231.607 35.3465C231.677 35.4371 231.766 35.5109 231.868 35.5626C231.97 35.6142 232.082 35.6423 232.196 35.6449Z" fill="#37474F"/>
<path d="M236.588 49.1349C236.623 49.1419 236.66 49.1419 236.695 49.1349C236.776 49.11 236.845 49.0547 236.886 48.9806C236.927 48.9064 236.939 48.8191 236.917 48.737L232.624 34.2831C232.6 34.201 232.544 34.1318 232.469 34.0909C232.393 34.05 232.305 34.0407 232.223 34.0651C232.141 34.0894 232.071 34.1454 232.031 34.2208C231.99 34.2961 231.98 34.3846 232.005 34.4668L236.29 48.9206C236.311 48.9826 236.352 49.0363 236.405 49.0746C236.459 49.1129 236.522 49.1339 236.588 49.1349Z" fill="#2B2F7E"/>
<path d="M232.441 31.2166C231.018 30.3061 229.801 30.9335 229.725 32.6168C229.729 33.535 229.951 34.4391 230.371 35.2555C230.791 36.0719 231.398 36.7775 232.142 37.3149C233.558 38.2331 234.775 37.6057 234.859 35.9223C234.852 35.0034 234.63 34.0989 234.21 33.2816C233.79 32.4642 233.184 31.7569 232.441 31.2166Z" fill="#2B2F7E"/>
<path d="M107.445 195.115L116.764 189.728L113.658 187.938L104.338 193.317L107.445 195.115Z" fill="#2B2F7E"/>
<path d="M126.091 184.347L135.419 178.96L132.305 177.17L122.985 182.549L126.091 184.347Z" fill="#2B2F7E"/>
<path d="M122.258 182.152C122.258 186.651 119.106 192.099 115.211 194.395C113.137 195.596 111.27 195.634 109.985 194.731C109.467 194.324 109.041 193.811 108.736 193.227C108.431 192.642 108.255 192 108.217 191.342C108.479 191.219 108.734 191.084 108.983 190.936C112.877 188.694 116.03 183.223 116.03 178.694C116.033 178.358 116.013 178.023 115.968 177.691C116.552 177.382 117.194 177.198 117.852 177.151C118.511 177.104 119.172 177.194 119.794 177.416C121.325 178.058 122.258 179.719 122.258 182.152Z" fill="#263238"/>
<path d="M122.893 172.908L122.763 172.831C120.804 171.791 118.172 171.982 115.211 173.681C109.204 177.147 104.33 185.579 104.33 192.519C104.33 196.008 105.562 198.449 107.552 199.581C109.541 200.714 112.227 200.522 115.203 198.816C121.21 195.35 126.076 186.91 126.076 179.97C126.084 176.481 124.875 174.04 122.893 172.908ZM115.241 194.378C113.16 195.579 111.293 195.618 110.008 194.707C108.875 193.942 108.187 192.412 108.187 190.307C108.187 185.816 111.347 180.36 115.241 178.065C117.017 177.04 118.631 176.864 119.832 177.392C121.317 178.027 122.25 179.687 122.25 182.136C122.258 186.665 119.106 192.136 115.211 194.393L115.241 194.378Z" fill="#37474F"/>
<path d="M120.192 177.599L120.108 177.553C118.838 176.872 117.116 177.002 115.211 178.096C111.316 180.346 108.156 185.817 108.156 190.339C108.156 192.634 108.921 194.165 110.245 194.93C111.569 195.695 113.306 195.542 115.211 194.425C119.106 192.175 122.258 186.704 122.258 182.182C122.258 179.917 121.47 178.326 120.192 177.599ZM115.211 192.787C113.543 193.751 112.043 193.782 111.003 193.047C110.1 192.412 109.541 191.196 109.541 189.512C109.648 187.546 110.217 185.632 111.203 183.926C112.188 182.221 113.561 180.771 115.211 179.695C115.747 179.321 116.363 179.077 117.01 178.983C117.657 178.888 118.317 178.946 118.937 179.152C120.131 179.665 120.881 180.996 120.881 182.978C120.774 184.944 120.205 186.857 119.22 188.561C118.235 190.266 116.861 191.714 115.211 192.787Z" fill="#2B2F7E"/>
<path d="M144.738 173.575L154.066 168.196L150.959 166.397L141.632 171.784L144.738 173.575Z" fill="#2B2F7E"/>
<path d="M163.393 162.807L172.713 157.428L169.606 155.63L160.279 161.017L163.393 162.807Z" fill="#2B2F7E"/>
<path d="M182.04 152.042L191.359 146.663L188.253 144.865L178.926 150.252L182.04 152.042Z" fill="#2B2F7E"/>
<path d="M135.633 101.976C135.73 101.846 135.867 101.751 136.022 101.703C136.178 101.656 136.345 101.659 136.498 101.713C136.652 101.767 136.784 101.868 136.876 102.002C136.968 102.136 137.015 102.296 137.01 102.459C137.07 102.894 137.026 103.338 136.881 103.753C136.736 104.168 136.494 104.542 136.176 104.846C135.564 105.374 134.944 105.16 134.799 104.364C134.74 103.928 134.784 103.485 134.929 103.07C135.074 102.655 135.315 102.28 135.633 101.976Z" fill="#2B2F7E"/>
<path d="M142.81 105.36L136.574 101.756L135.204 105.054L141.463 108.665L142.81 105.36Z" fill="#2B2F7E"/>
<path d="M141.854 105.567C142.466 105.047 143.078 105.261 143.231 106.057C143.287 106.491 143.241 106.933 143.094 107.347C142.948 107.76 142.707 108.133 142.389 108.436C141.777 108.964 141.157 108.75 141.012 107.954C140.956 107.518 141.003 107.075 141.149 106.661C141.296 106.246 141.537 105.871 141.854 105.567Z" fill="#2B2F7E"/>
<path d="M189.783 135.743C189.783 135.896 189.783 136.034 189.783 136.187C189.783 136.493 189.783 136.807 189.783 137.12C188.544 136.592 186.929 136.768 185.154 137.794C181.259 140.043 178.099 145.514 178.099 150.036C178.099 152.133 178.788 153.648 179.92 154.436C179.602 154.662 179.273 154.871 178.933 155.063L178.574 155.247L177.495 159.31L171.251 155.828C169.277 154.688 168.06 152.255 168.06 148.781C168.06 141.841 172.927 133.409 178.933 129.935C181.902 128.222 184.588 128.046 186.585 129.17L192.706 132.598L192.836 132.675L189.783 135.743Z" fill="#455A64"/>
<path d="M192.829 132.608L192.699 132.531C190.74 131.491 188.108 131.682 185.146 133.381C179.14 136.847 174.266 145.279 174.266 152.219C174.266 155.708 175.498 158.149 177.487 159.281C179.477 160.414 182.162 160.223 185.139 158.516C191.145 155.05 196.012 146.61 196.012 139.67C196.035 136.181 194.803 133.74 192.829 132.608ZM185.177 154.078C183.096 155.28 181.229 155.318 179.943 154.407C178.811 153.642 178.122 152.112 178.122 150.008C178.122 145.516 181.282 140.061 185.177 137.765C186.952 136.74 188.567 136.564 189.806 137.092C191.291 137.727 192.224 139.387 192.224 141.836C192.209 146.366 189.041 151.836 185.146 154.078H185.177Z" fill="#37474F"/>
<path d="M192.209 141.865C192.209 146.364 189.056 151.812 185.162 154.107C183.088 155.309 181.221 155.347 179.936 154.444C179.417 154.037 178.992 153.524 178.687 152.94C178.382 152.355 178.205 151.713 178.168 151.054C178.43 150.932 178.685 150.797 178.933 150.649C182.828 148.407 185.98 142.936 185.98 138.406C185.984 138.071 185.964 137.736 185.919 137.404C186.503 137.095 187.144 136.911 187.803 136.864C188.462 136.816 189.123 136.907 189.745 137.129C191.26 137.771 192.209 139.416 192.209 141.865Z" fill="#263238"/>
<path d="M190.128 137.298L190.043 137.244C188.773 136.571 187.044 136.693 185.146 137.795C181.252 140.045 178.092 145.508 178.092 150.038C178.092 152.333 178.857 153.864 180.181 154.629C181.504 155.394 183.241 155.233 185.146 154.116C189.041 151.874 192.194 146.403 192.194 141.874C192.209 139.616 191.444 138.033 190.128 137.298ZM185.146 152.479C183.471 153.45 181.971 153.481 180.938 152.747C180.027 152.111 179.477 150.895 179.477 149.212C179.584 147.245 180.153 145.331 181.138 143.625C182.123 141.92 183.496 140.47 185.146 139.395C186.57 138.568 187.87 138.423 188.865 138.851C190.059 139.364 190.809 140.695 190.809 142.677C190.702 144.641 190.134 146.552 189.15 148.255C188.166 149.959 186.795 151.405 185.146 152.479Z" fill="#2B2F7E"/>
<path d="M178.926 144.154L196.524 133.992C198.567 132.806 191.933 125.882 186.998 125.415C184.281 125.087 181.525 125.348 178.918 126.18C178.918 126.18 182.675 130.993 182.032 133.724C181.389 136.456 178.926 144.154 178.926 144.154Z" fill="#2B2F7E"/>
<path d="M154.066 115.438C154.066 115.438 179.576 128.307 180.678 129.08C181.78 129.853 180.678 138.828 178.926 144.154C177.173 149.479 174.48 157.667 173.401 159.962C172.322 162.258 170.914 163.115 168.328 164.607L149.964 175.219L125.104 178.249L115.234 172.893L117.805 156.741C117.805 156.741 144.226 142.685 147.845 140.596C151.464 138.507 162.169 128.705 154.066 115.438Z" fill="#2B2F7E"/>
<path opacity="0.2" d="M154.066 115.438C154.066 115.438 179.576 128.307 180.678 129.08C181.78 129.853 180.678 138.828 178.926 144.154C177.173 149.479 174.48 157.667 173.401 159.962C172.322 162.258 170.914 163.115 168.328 164.607L149.964 175.219L125.104 178.249L115.234 172.893L117.805 156.741C117.805 156.741 144.226 142.685 147.845 140.596C151.464 138.507 162.169 128.705 154.066 115.438Z" fill="black"/>
<path d="M181.168 141.085C183.463 134.918 185.177 129.806 184.886 126.356C184.534 122.262 183.004 118.918 176.255 117.235C169.507 115.551 160.072 115.582 160.072 115.582L157.203 117.242C157.203 117.242 176.607 128.49 178.811 129.715C180.158 130.48 181.596 133.854 178.956 144.161L179.408 144.421C179.63 144.559 180.433 143.067 181.168 141.085Z" fill="#2B2F7E"/>
<path opacity="0.3" d="M181.168 141.085C183.463 134.918 185.177 129.806 184.886 126.356C184.534 122.262 183.004 118.918 176.255 117.235C169.507 115.551 160.072 115.582 160.072 115.582L157.203 117.242C157.203 117.242 176.607 128.49 178.811 129.715C180.158 130.48 181.596 133.854 178.956 144.161L179.408 144.421C179.63 144.559 180.433 143.067 181.168 141.085Z" fill="white"/>
<path d="M166.469 122.615L169.606 120.824C169.606 120.824 169.422 109.952 164.847 107.312C160.271 104.672 144.738 106.47 144.738 106.47L141.632 108.261L166.469 122.615Z" fill="#2B2F7E"/>
<path d="M156.292 109.798C154.8 110.662 154.8 112.055 156.292 112.912C157.129 113.338 158.054 113.56 158.993 113.56C159.932 113.56 160.858 113.338 161.694 112.912C163.179 112.055 163.179 110.655 161.694 109.798C160.857 109.375 159.931 109.155 158.993 109.155C158.055 109.155 157.13 109.375 156.292 109.798Z" fill="#F0F0F0"/>
<path d="M161.067 114.992C160.019 115.604 160.019 116.592 161.067 117.196C161.659 117.499 162.315 117.657 162.98 117.657C163.645 117.657 164.3 117.499 164.893 117.196C165.949 116.592 165.949 115.604 164.893 114.992C164.299 114.693 163.644 114.537 162.98 114.537C162.315 114.537 161.66 114.693 161.067 114.992Z" fill="#F0F0F0"/>
<path d="M149.046 108.414C147.99 109.018 147.99 110.005 149.046 110.618C149.639 110.917 150.295 111.073 150.959 111.073C151.624 111.073 152.279 110.917 152.872 110.618C153.928 110.005 153.928 109.018 152.872 108.414C152.28 108.111 151.624 107.953 150.959 107.953C150.294 107.953 149.638 108.111 149.046 108.414Z" fill="#F0F0F0"/>
<path d="M166.959 119.462C167.571 118.934 168.183 119.148 168.336 119.944C168.392 120.38 168.345 120.823 168.199 121.238C168.053 121.653 167.812 122.027 167.494 122.332C167.397 122.462 167.26 122.557 167.105 122.605C166.949 122.652 166.782 122.649 166.629 122.595C166.475 122.541 166.343 122.44 166.251 122.306C166.159 122.172 166.112 122.012 166.117 121.849C166.058 121.413 166.104 120.969 166.25 120.554C166.396 120.139 166.639 119.765 166.959 119.462Z" fill="#2B2F7E"/>
<path d="M174.098 122.843L167.854 119.239L166.492 122.537L172.743 126.141L174.098 122.843Z" fill="#2B2F7E"/>
<path d="M173.133 123.05C173.231 122.92 173.367 122.824 173.523 122.776C173.679 122.729 173.845 122.732 173.999 122.786C174.152 122.84 174.285 122.941 174.377 123.075C174.469 123.209 174.516 123.369 174.511 123.532C174.569 123.968 174.523 124.412 174.377 124.827C174.23 125.242 173.988 125.616 173.669 125.919C173.057 126.447 172.445 126.225 172.292 125.437C172.235 125.001 172.281 124.558 172.427 124.143C172.574 123.728 172.816 123.354 173.133 123.05Z" fill="#2B2F7E"/>
<path d="M173.133 123.05C173.231 122.92 173.367 122.824 173.523 122.776C173.679 122.729 173.845 122.732 173.999 122.786C174.152 122.84 174.285 122.941 174.377 123.075C174.469 123.209 174.516 123.369 174.511 123.532C174.569 123.968 174.523 124.412 174.377 124.827C174.23 125.242 173.988 125.616 173.669 125.919C173.057 126.447 172.445 126.225 172.292 125.437C172.235 125.001 172.281 124.558 172.427 124.143C172.574 123.728 172.816 123.354 173.133 123.05Z" fill="black"/>
<path d="M119.848 176.03C119.848 176.183 119.848 176.321 119.848 176.474C119.848 176.78 119.848 177.094 119.848 177.407C118.608 176.879 116.994 177.055 115.257 178.081C111.362 180.33 108.202 185.801 108.202 190.323C108.202 192.42 108.891 193.935 110.023 194.723C109.705 194.949 109.376 195.158 109.036 195.35L108.676 195.534L107.598 199.597L101.354 196.116C99.3797 194.975 98.1631 192.542 98.1631 189.068C98.1631 182.128 103.03 173.696 109.036 170.223C112.005 168.509 114.691 168.333 116.688 169.457L122.809 172.885L122.939 172.962L119.848 176.03Z" fill="#455A64"/>
<path d="M101.224 163.887L96.564 180.039L105.891 185.426L110.719 169.373L101.224 163.887Z" fill="#2B2F7E"/>
<path opacity="0.2" d="M101.224 163.887L96.564 180.039L105.891 185.426L110.719 169.373L101.224 163.887Z" fill="black"/>
<path d="M101.224 163.888C101.224 163.888 106.511 168.379 110.719 169.374C116.244 170.713 125.028 170.858 128.142 171.073C132.901 171.402 136.498 171.394 138.181 170.79C140.362 170.024 146.223 166.62 147.845 165.686C150.951 163.896 152.275 156.848 143.713 154.92C137.924 153.721 132.027 153.118 126.114 153.122L101.224 163.888Z" fill="#2B2F7E"/>
<path d="M153.951 161.822C153.685 162.487 153.505 163.184 153.415 163.895C153.169 164.634 153.111 165.423 153.247 166.191C153.83 167.155 154.748 167.871 155.826 168.203C156.602 168.376 157.405 168.387 158.186 168.235C158.966 168.084 159.708 167.773 160.363 167.323C161.947 166.374 163.14 165.226 165.39 164.584C166.998 164.243 168.512 163.557 169.828 162.571C171.075 161.569 172.743 158.799 170.356 158.156C167.969 157.514 162.781 159.779 158.052 159.985L153.951 161.822Z" fill="#37474F"/>
<path d="M153.951 158.868V162.403C154.096 162.8 154.347 163.15 154.678 163.413C155.009 163.676 155.406 163.843 155.826 163.895C156.21 163.952 156.602 163.909 156.966 163.773C157.539 163.554 158.035 163.172 158.394 162.675C158.753 162.177 158.959 161.585 158.986 160.972L159.123 158.868H153.951Z" fill="#FFA8A7"/>
<path d="M160.684 137.007C160.684 141.406 159.445 160.428 159.445 160.428C159.445 160.428 157.647 162.724 153.737 160.428L152.421 139.172L160.684 137.007Z" fill="#37474F"/>
<path d="M140.178 155.754L152.421 148.7C152.922 148.436 153.342 148.041 153.635 147.556C153.929 147.071 154.084 146.515 154.084 145.949C154.084 145.382 153.929 144.827 153.635 144.342C153.342 143.857 152.922 143.461 152.421 143.198L143.3 137.934C142.786 137.674 142.219 137.538 141.643 137.538C141.068 137.538 140.5 137.674 139.987 137.934L127.744 144.989C127.245 145.254 126.827 145.65 126.535 146.134C126.244 146.619 126.09 147.174 126.09 147.739C126.09 148.305 126.244 148.86 126.535 149.344C126.827 149.829 127.245 150.225 127.744 150.49L136.865 155.754C137.378 156.015 137.946 156.15 138.521 156.15C139.097 156.15 139.665 156.015 140.178 155.754Z" fill="#2B2F7E"/>
<path d="M140.178 155.754L152.421 148.7C152.922 148.436 153.342 148.041 153.635 147.556C153.929 147.071 154.084 146.515 154.084 145.949C154.084 145.382 153.929 144.827 153.635 144.342C153.342 143.857 152.922 143.461 152.421 143.198L143.3 137.934C142.786 137.674 142.219 137.538 141.643 137.538C141.068 137.538 140.5 137.674 139.987 137.934L127.744 144.989C127.245 145.254 126.827 145.65 126.535 146.134C126.244 146.619 126.09 147.174 126.09 147.739C126.09 148.305 126.244 148.86 126.535 149.344C126.827 149.829 127.245 150.225 127.744 150.49L136.865 155.754C137.378 156.015 137.946 156.15 138.521 156.15C139.097 156.15 139.665 156.015 140.178 155.754Z" fill="white"/>
<path d="M127.744 146.901L136.865 152.166C137.378 152.426 137.946 152.561 138.521 152.561C139.097 152.561 139.665 152.426 140.178 152.166L152.421 145.111C152.62 145.043 152.794 144.914 152.917 144.743C153.04 144.571 153.106 144.366 153.106 144.155C153.106 143.943 153.04 143.738 152.917 143.566C152.794 143.395 152.62 143.266 152.421 143.198L143.3 137.934C142.786 137.674 142.219 137.538 141.643 137.538C141.068 137.538 140.5 137.674 139.987 137.934L127.744 144.989C127.544 145.056 127.371 145.185 127.248 145.357C127.125 145.528 127.059 145.734 127.059 145.945C127.059 146.156 127.125 146.362 127.248 146.533C127.371 146.705 127.544 146.834 127.744 146.901Z" fill="#2B2F7E"/>
<path d="M135.204 100.073L133.651 106.477L126.979 106.883L128.418 98.0068L135.204 100.073Z" fill="#FFA8A7"/>
<path d="M141.708 95.252C141.708 95.252 142.474 97.9606 142.16 98.1137C141.678 98.1871 141.188 98.1871 140.706 98.1137L141.708 95.252Z" fill="#F28F8F"/>
<path d="M140.431 86.6068C141.502 87.8693 142.481 89.9429 141.724 95.0235C140.897 100.579 139.872 101.221 139.046 101.757C137.967 102.461 133.651 102.086 132.435 101.198C130.973 100.135 128.716 96.7604 128.18 93.432C127.553 89.522 128.861 85.1836 131.738 84.4414C135.786 83.3931 139.52 85.5356 140.431 86.6068Z" fill="#FFA8A7"/>
<path d="M127.744 99.8049C128.777 100.876 130.897 101.167 132.228 101.412C133.559 101.657 137.653 101.924 138.862 99.0092C140.071 96.0939 139.245 93.9974 140.729 93.2934C142.213 92.5895 143.698 92.1304 144.088 91.7631C144.478 91.3958 144.486 86.5983 140.499 84.1115C136.513 81.6248 130.407 81.0509 126.39 86.0933C123.345 89.988 124.592 96.5148 127.744 99.8049Z" fill="#455A64"/>
<path d="M131.761 101.451C132.794 101.543 136.061 101.03 137.049 99.6838C138.036 98.3371 138.433 95.9269 138.579 94.6643C138.592 94.1671 138.775 93.6893 139.096 93.3096C139.417 92.9299 139.858 92.6709 140.346 92.5755C141.333 92.2617 143.514 91.1905 143.514 91.1905V90.5937C144.217 90.5495 144.923 90.5495 145.626 90.5937C146.085 90.6779 145.833 91.3589 144.67 91.948C143.506 92.5372 140.316 93.6773 139.826 94.0675C139.336 94.4578 139.107 96.1028 138.717 97.8551C138.326 99.6073 137.117 102.224 131.761 101.451Z" fill="#37474F"/>
<path d="M140.943 108.696L144.769 106.5C145.136 105.391 144.547 104.832 143.506 104.901C142.466 104.97 142.787 103.96 142.152 103.677C141.318 103.294 140.844 103.509 140.469 103.333C140.094 103.157 139.933 102.713 139.443 102.659C137.255 102.453 135.763 105.574 135.763 105.574L140.943 108.696Z" fill="#F28F8F"/>
<path d="M114.974 136.794C114.974 136.794 131.876 128.415 134.822 127.061C137.768 125.707 142.389 123.74 144.845 123.74C145.805 123.82 146.704 124.242 147.378 124.931C148.051 125.62 148.453 126.528 148.511 127.49C148.542 128.966 148.458 130.442 148.258 131.904C143.614 133.428 138.869 134.622 134.057 135.478C127.025 136.702 114.974 136.794 114.974 136.794Z" fill="#37474F"/>
<path d="M116.81 131.949C116.81 135.423 116.481 139.034 117.927 141.575C119.373 144.115 127.209 149.991 134.585 148.759C139.405 147.948 153.714 141.36 153.714 141.36C153.714 141.36 160.654 138.812 160.684 136.999C160.73 134.329 160.547 130.564 154.494 130.725C148.977 130.87 132.702 134.267 132.702 134.267L116.81 131.949Z" fill="#455A64"/>
<path d="M121.531 104.427C124.148 101.695 125.915 101.465 127.17 101.802C130.054 102.627 132.846 103.745 135.503 105.138C135.503 105.138 134.493 114.917 139.275 117.733V132.975C139.275 132.975 139.13 134.627 137.049 136.272C135.212 137.719 131.057 139.18 126.099 138.767C120.207 138.277 116.81 131.949 116.81 131.949C116.81 131.949 116.657 119.485 117.491 114.534C118.47 108.757 120.628 105.375 121.531 104.427Z" fill="#455A64"/>
<path d="M139.275 118.474C139.275 118.474 136.383 116.178 135.503 113.194C135.503 113.194 135.847 117.877 139.275 120.249V118.474Z" fill="#37474F"/>
<path d="M166.048 125.668C167.422 125.725 168.773 125.306 169.874 124.482C169.874 124.482 171.205 121.896 172.843 122.118C172.843 122.118 173.133 121.016 172.46 120.657C171.787 120.297 171.496 120.396 171.22 120.014C170.945 119.631 170.914 118.92 169.69 118.92C169.185 118.92 169.254 118.56 168.03 118.415C166.806 118.269 165.597 121.093 164.701 121.093L166.048 125.668Z" fill="#FFA8A7"/>
<path d="M135.503 105.139C139.704 105.789 141.226 107.036 142.757 108.452C144.287 109.867 153.652 119.263 153.652 119.263L164.992 120.893C165.588 121.376 166.025 122.026 166.247 122.76C166.706 124.092 166.293 125.545 165.857 125.89C165.857 125.89 154.609 126.563 152.398 126.142C150.186 125.721 139.237 118.452 139.237 118.452C138.19 117.663 137.313 116.672 136.655 115.538C135.998 114.404 135.575 113.15 135.411 111.849C134.699 107.235 135.503 105.139 135.503 105.139Z" fill="#455A64"/>
<path d="M125.418 145.554L108.041 166.764C107.848 166.788 107.654 166.801 107.46 166.802C106.771 166.813 106.09 166.653 105.478 166.335L90.8023 157.857L89.8076 157.284C89.2643 156.97 88.8129 155.684 88.8129 154.414V150.841C88.8123 147.17 89.7779 143.564 91.6126 140.385C93.4473 137.206 96.0865 134.566 99.265 132.73L116.787 122.614L135.434 133.38L125.418 145.554Z" fill="#2B2F7E"/>
<g opacity="0.1">
<path opacity="0.1" d="M125.418 145.554L108.041 166.764C107.848 166.788 107.654 166.801 107.46 166.802C106.771 166.813 106.09 166.653 105.478 166.335L90.8023 157.857L89.8076 157.284C89.2643 156.97 88.8129 155.684 88.8129 154.414V150.841C88.8123 147.17 89.7779 143.564 91.6126 140.385C93.4473 137.206 96.0865 134.566 99.2649 132.73L116.787 122.614L135.434 133.38L125.418 145.554Z" fill="black"/>
</g>
<path d="M119.427 152.868L135.411 133.387L116.764 122.621L99.2497 132.729C96.984 134.04 94.9854 135.767 93.3579 137.817L119.427 152.868Z" fill="#2B2F7E"/>
<path d="M135.411 149.027C135.411 150.298 134.967 151.583 134.416 151.897L133.422 152.471L109.426 166.328C108.99 166.563 108.512 166.711 108.018 166.764C107.826 166.788 107.631 166.801 107.437 166.802V161.607C107.436 157.935 108.403 154.328 110.239 151.149C112.075 147.969 114.716 145.33 117.897 143.495L119.878 142.355L135.411 133.38V149.027Z" fill="#2B2F7E"/>
<g opacity="0.2">
<path opacity="0.2" d="M135.411 149.027C135.411 150.298 134.967 151.583 134.416 151.897L133.422 152.471L109.426 166.328C108.99 166.563 108.512 166.711 108.018 166.764C107.826 166.788 107.631 166.801 107.437 166.802V161.607C107.436 157.935 108.403 154.328 110.239 151.149C112.075 147.969 114.716 145.33 117.897 143.495L119.878 142.355L135.411 133.38V149.027Z" fill="black"/>
</g>
<path d="M140.561 175.272L149.949 175.241L163.385 167.482L150.225 176.993L140.316 177.131L140.561 175.272Z" fill="#E0E0E0"/>
<path d="M117.767 188.633C117.767 188.633 134.692 182.252 136.13 181.502C137.819 180.468 139.42 179.298 140.92 178.005C141.226 177.6 141.37 177.096 141.323 176.591C141.277 176.085 141.043 175.616 140.668 175.274C140.668 175.274 133.781 174.96 132.014 175.503C131.027 175.802 115.096 180.913 115.096 180.913L117.767 188.633Z" fill="#E0E0E0"/>
<path d="M117.009 181.501C115.609 180.3 114.201 180.797 113.857 182.603C113.725 183.599 113.83 184.613 114.164 185.561C114.498 186.509 115.05 187.364 115.777 188.059C117.177 189.26 118.585 188.77 118.93 186.957C119.06 185.961 118.955 184.947 118.621 184C118.287 183.052 117.735 182.196 117.009 181.501Z" fill="#455A64"/>
</svg>
