<svg width="318" height="277" viewBox="0 0 318 277" fill="none" xmlns="http://www.w3.org/2000/svg">
<path d="M154.369 276.72C69.5208 276.72 0.737793 237.008 0.737793 188.021C0.737793 139.033 69.5208 99.3213 154.369 99.3213C239.217 99.3213 308 139.033 308 188.021C308 237.008 239.217 276.72 154.369 276.72Z" fill="#F5F5F5"/>
<path d="M43.6169 203.764C43.6442 203.706 43.6766 203.65 43.7136 203.597C43.7419 203.561 43.772 203.526 43.8039 203.494C43.8305 203.449 43.8631 203.407 43.9007 203.371L44.0168 203.261C44.1451 203.152 44.2832 203.055 44.4296 202.971L188.063 120.051C188.782 119.69 189.575 119.502 190.379 119.502C191.183 119.502 191.976 119.69 192.694 120.051L267.436 163.085C267.531 163.136 267.621 163.194 267.707 163.259C267.707 163.259 267.778 163.304 267.804 163.33C267.955 163.455 268.086 163.603 268.191 163.768C268.216 163.803 268.238 163.839 268.255 163.878C268.288 163.935 268.314 163.996 268.333 164.059C268.346 164.105 268.357 164.153 268.365 164.201C268.374 164.278 268.374 164.356 268.365 164.433C268.368 164.486 268.368 164.54 268.365 164.594C268.354 164.655 268.339 164.715 268.32 164.775C268.299 164.835 268.273 164.893 268.243 164.949C268.056 165.287 267.776 165.565 267.436 165.749L123.796 248.663C123.368 248.895 122.903 249.054 122.422 249.133C122.111 249.182 121.796 249.208 121.481 249.211C121.17 249.21 120.859 249.186 120.552 249.14C120.45 249.127 120.348 249.108 120.249 249.082C119.962 249.015 119.684 248.92 119.417 248.798C119.326 248.759 119.249 248.708 119.165 248.663L44.4296 205.635C43.5524 205.132 43.3073 204.409 43.6169 203.764Z" fill="#E0E0E0"/>
<path d="M49.8474 194.258C49.8747 194.198 49.9093 194.141 49.9506 194.09C49.9766 194.054 50.0046 194.019 50.0345 193.987C50.063 193.941 50.0978 193.9 50.1377 193.864L50.2473 193.761C50.3761 193.647 50.5166 193.548 50.6666 193.464L190.366 112.795C191.084 112.434 191.877 112.246 192.681 112.246C193.485 112.246 194.278 112.434 194.997 112.795L263.521 152.339L263.798 152.514L263.889 152.591C264.041 152.712 264.172 152.858 264.276 153.023C264.34 153.113 264.388 153.213 264.418 153.32C264.421 153.367 264.421 153.414 264.418 153.462C264.427 153.539 264.427 153.617 264.418 153.694C264.421 153.748 264.421 153.801 264.418 153.855C264.406 153.916 264.391 153.976 264.372 154.036C264.353 154.095 264.329 154.153 264.302 154.21C264.11 154.551 263.823 154.829 263.476 155.01L123.796 235.686C123.368 235.919 122.904 236.076 122.422 236.15C122.111 236.204 121.796 236.232 121.48 236.234C121.169 236.234 120.859 236.208 120.552 236.156C120.449 236.144 120.348 236.124 120.249 236.098C119.961 236.035 119.682 235.94 119.416 235.815C119.326 235.776 119.249 235.731 119.165 235.686L50.6666 196.134C49.7571 195.625 49.512 194.903 49.8474 194.258ZM64.8951 191.394L69.2746 193.929L127.64 227.597C127.791 227.686 127.949 227.764 128.111 227.83C128.587 228.028 129.098 228.129 129.614 228.129C130.13 228.129 130.64 228.028 131.117 227.83C131.279 227.764 131.437 227.686 131.588 227.597L242.404 163.62L247.77 160.531C247.958 160.425 248.128 160.29 248.273 160.131C248.828 159.525 248.654 158.751 247.77 158.235L185.051 122.025C184.337 121.539 183.482 121.301 182.619 121.347C182.413 121.373 182.211 121.427 182.02 121.509C181.912 121.549 181.809 121.599 181.71 121.657L64.8951 189.098C64.6944 189.215 64.5278 189.382 64.412 189.584C64.2962 189.785 64.2353 190.013 64.2353 190.246C64.2353 190.478 64.2962 190.706 64.412 190.908C64.5278 191.109 64.6944 191.277 64.8951 191.394Z" fill="#455A64"/>
<path d="M263.792 152.521C264.389 152.975 264.88 153.553 265.232 154.216C265.584 154.878 265.788 155.609 265.83 156.358V159.415C265.788 160.22 265.556 161.004 265.154 161.702C264.752 162.4 264.19 162.994 263.515 163.434L123.815 244.097C123.289 244.385 122.71 244.563 122.113 244.619C121.906 244.619 121.706 244.651 121.468 244.658V236.234C121.783 236.228 122.097 236.202 122.409 236.157C122.893 236.078 123.36 235.917 123.79 235.68L263.521 155.01C264.701 154.333 264.798 153.256 263.792 152.521Z" fill="#37474F"/>
<path d="M86.8509 210.685C88.1362 210.049 89.5511 209.718 90.9853 209.718C92.4195 209.718 93.8343 210.049 95.1197 210.685C95.6218 210.95 96.0481 211.338 96.3581 211.814C97.0998 213.104 95.7131 214.071 95.1197 214.432C93.8343 215.069 92.4195 215.4 90.9853 215.4C89.5511 215.4 88.1362 215.069 86.8509 214.432C86.3527 214.162 85.9277 213.775 85.6125 213.304C84.8707 212.014 86.2381 211.046 86.8509 210.685Z" fill="#2B2F7E"/>
<path d="M223.667 136.194C223.536 136.145 223.424 136.056 223.344 135.941C223.265 135.826 223.222 135.689 223.222 135.549C223.222 135.41 223.265 135.273 223.344 135.158C223.424 135.043 223.536 134.954 223.667 134.904C224.018 134.727 224.405 134.634 224.799 134.634C225.192 134.634 225.58 134.727 225.931 134.904C226.062 134.954 226.174 135.043 226.253 135.158C226.333 135.273 226.375 135.41 226.375 135.549C226.375 135.689 226.333 135.826 226.253 135.941C226.174 136.056 226.062 136.145 225.931 136.194C225.58 136.372 225.192 136.465 224.799 136.465C224.405 136.465 224.018 136.372 223.667 136.194Z" fill="#263238"/>
<path d="M227.221 142.388C227.112 142.335 227.02 142.252 226.955 142.15C226.891 142.047 226.857 141.928 226.857 141.807C226.857 141.686 226.891 141.567 226.955 141.465C227.02 141.362 227.112 141.279 227.221 141.227C227.533 141.071 227.878 140.989 228.227 140.989C228.576 140.989 228.921 141.071 229.233 141.227C229.342 141.279 229.434 141.362 229.499 141.465C229.563 141.567 229.597 141.686 229.597 141.807C229.597 141.928 229.563 142.047 229.499 142.15C229.434 142.252 229.342 142.335 229.233 142.388C228.922 142.547 228.577 142.63 228.227 142.63C227.877 142.63 227.532 142.547 227.221 142.388Z" fill="#263238"/>
<path d="M223.822 140.472L212.573 133.977C211.928 133.622 211.928 133.061 212.509 132.726C212.847 132.563 213.219 132.482 213.594 132.49C213.97 132.498 214.338 132.594 214.669 132.771L225.918 139.26C226.531 139.621 226.563 140.175 225.982 140.511C225.645 140.675 225.273 140.757 224.897 140.75C224.522 140.743 224.153 140.648 223.822 140.472Z" fill="#263238"/>
<path d="M50.357 193.672C49.4024 194.414 49.5056 195.465 50.6666 196.136L119.171 235.687C119.883 236.067 120.681 236.256 121.487 236.235V244.652C120.682 244.668 119.887 244.477 119.178 244.098L50.673 204.553C49.9979 204.114 49.4362 203.522 49.0337 202.825C48.6313 202.128 48.3996 201.345 48.3575 200.541V197.477C48.3997 196.737 48.6 196.014 48.9449 195.358C49.2898 194.702 49.7713 194.127 50.357 193.672Z" fill="#263238"/>
<path d="M230.846 176.242C230.504 176.457 230.218 176.748 230.01 177.093C229.802 177.438 229.677 177.827 229.646 178.229C229.632 178.365 229.656 178.502 229.715 178.625C229.774 178.748 229.866 178.852 229.981 178.926C230.123 179.009 230.665 179.332 230.82 179.416C230.96 179.476 231.113 179.498 231.265 179.481C231.416 179.464 231.561 179.408 231.684 179.319L247.261 170.289C247.601 170.074 247.886 169.782 248.093 169.437C248.3 169.092 248.424 168.704 248.454 168.303C248.465 168.172 248.444 168.041 248.391 167.922C248.338 167.802 248.255 167.698 248.151 167.619L247.287 167.116C247.146 167.056 246.993 167.033 246.842 167.05C246.69 167.067 246.546 167.123 246.422 167.212L230.846 176.242Z" fill="#455A64"/>
<path d="M231.684 176.714L247.261 167.723C247.906 167.342 248.454 167.613 248.454 168.329C248.424 168.731 248.3 169.119 248.093 169.464C247.886 169.809 247.601 170.101 247.261 170.316L231.684 179.346C231.039 179.726 230.485 179.455 230.485 178.74C230.509 178.331 230.631 177.934 230.84 177.582C231.049 177.23 231.338 176.932 231.684 176.714Z" fill="#263238"/>
<path d="M251.698 164.201C251.356 164.416 251.069 164.708 250.861 165.055C250.653 165.401 250.529 165.791 250.499 166.194C250.486 166.329 250.51 166.465 250.568 166.587C250.625 166.71 250.715 166.815 250.828 166.891C250.976 166.968 251.518 167.297 251.666 167.381C251.807 167.44 251.96 167.461 252.112 167.443C252.263 167.425 252.407 167.368 252.53 167.278L259.877 163.04C260.217 162.825 260.502 162.533 260.709 162.188C260.916 161.843 261.04 161.455 261.07 161.053C261.085 160.923 261.064 160.791 261.011 160.671C260.958 160.55 260.873 160.447 260.767 160.37C260.625 160.273 260.057 159.95 259.903 159.867C259.763 159.805 259.609 159.781 259.457 159.798C259.306 159.815 259.161 159.872 259.038 159.963L251.698 164.201Z" fill="#455A64"/>
<path d="M252.53 164.684L259.877 160.447C260.522 160.066 261.07 160.337 261.07 161.053C261.04 161.454 260.916 161.843 260.709 162.188C260.502 162.533 260.217 162.824 259.877 163.04L252.53 167.277C251.885 167.658 251.337 167.387 251.337 166.671C251.367 166.27 251.491 165.881 251.698 165.536C251.905 165.191 252.19 164.899 252.53 164.684Z" fill="#263238"/>
<path d="M64.8952 191.362L69.2747 193.891L127.64 227.566C127.793 227.652 127.95 227.73 128.111 227.798C128.587 227.996 129.098 228.098 129.614 228.098C130.13 228.098 130.641 227.996 131.117 227.798C131.278 227.73 131.435 227.652 131.588 227.566L242.404 163.589L247.764 160.493C247.953 160.391 248.123 160.258 248.267 160.099C248.822 159.493 248.648 158.713 247.764 158.197L185.045 121.993C184.326 121.519 183.472 121.292 182.613 121.348C182.407 121.374 182.205 121.428 182.013 121.509C181.906 121.55 181.802 121.599 181.704 121.658L64.8952 189.098C64.7018 189.217 64.5421 189.384 64.4313 189.582C64.3205 189.78 64.2623 190.003 64.2623 190.23C64.2623 190.457 64.3205 190.681 64.4313 190.879C64.5421 191.077 64.7018 191.243 64.8952 191.362Z" fill="#2B2F7E"/>
<path opacity="0.8" d="M64.8952 191.362L69.2747 193.891L127.64 227.566C127.793 227.652 127.95 227.73 128.111 227.798C128.587 227.996 129.098 228.098 129.614 228.098C130.13 228.098 130.641 227.996 131.117 227.798C131.278 227.73 131.435 227.652 131.588 227.566L242.404 163.589L247.764 160.493C247.953 160.391 248.123 160.258 248.267 160.099C248.822 159.493 248.648 158.713 247.764 158.197L185.045 121.993C184.326 121.519 183.472 121.292 182.613 121.348C182.407 121.374 182.205 121.428 182.013 121.509C181.906 121.55 181.802 121.599 181.704 121.658L64.8952 189.098C64.7018 189.217 64.5421 189.384 64.4313 189.582C64.3205 189.78 64.2623 190.003 64.2623 190.23C64.2623 190.457 64.3205 190.681 64.4313 190.879C64.5421 191.077 64.7018 191.243 64.8952 191.362Z" fill="white"/>
<path d="M234.522 155.759C234.554 155.753 234.584 155.742 234.613 155.727L234.916 155.546L235.657 155.978C235.676 155.991 235.699 155.998 235.722 155.998C235.745 155.998 235.767 155.991 235.786 155.978L235.896 155.92L235.948 155.881C235.949 155.866 235.949 155.851 235.948 155.836L236.257 154.746C236.26 154.731 236.26 154.716 236.257 154.701C236.248 154.685 236.235 154.672 236.219 154.662L236.115 154.604C236.084 154.595 236.05 154.595 236.019 154.604C235.984 154.608 235.951 154.619 235.922 154.636L234.851 155.281L234.683 155.191C234.656 155.181 234.627 155.181 234.6 155.191C234.565 155.193 234.532 155.204 234.503 155.223L234.432 155.262C234.4 155.262 234.38 155.301 234.38 155.314C234.38 155.327 234.38 155.346 234.425 155.365L234.587 155.462L234.277 155.636C234.255 155.648 234.237 155.666 234.226 155.688C234.226 155.688 234.226 155.72 234.277 155.739L234.4 155.817C234.445 155.81 234.488 155.79 234.522 155.759ZM235.167 155.372L235.928 154.927L235.703 155.681L235.167 155.372Z" fill="#455A64"/>
<path d="M233.826 155.139C234.153 155.12 234.472 155.023 234.754 154.855C235.058 154.675 235.225 154.501 235.245 154.32C235.264 154.139 235.141 153.972 234.883 153.817C234.776 153.758 234.664 153.709 234.548 153.669C234.437 153.634 234.322 153.61 234.206 153.598C234.206 153.598 234.168 153.598 234.155 153.598C234.142 153.598 234.155 153.598 234.155 153.598L234.09 153.72H234.135C234.305 153.738 234.47 153.791 234.619 153.875C234.793 153.978 234.877 154.094 234.864 154.223C234.851 154.352 234.722 154.475 234.484 154.61C234.289 154.734 234.068 154.811 233.839 154.836C233.638 154.846 233.439 154.799 233.265 154.701L233.097 154.584C233.059 154.553 233.026 154.516 233 154.475L233.503 154.185L233.813 154.359C233.842 154.37 233.874 154.37 233.903 154.359C233.935 154.356 233.966 154.345 233.993 154.327L234.064 154.288C234.064 154.288 234.116 154.249 234.116 154.236C234.116 154.223 234.116 154.204 234.071 154.185L233.581 153.901C233.547 153.893 233.511 153.893 233.477 153.901C233.438 153.902 233.399 153.915 233.368 153.94L232.652 154.352C232.631 154.36 232.613 154.373 232.6 154.391C232.6 154.391 232.6 154.391 232.6 154.43C232.684 154.62 232.836 154.772 233.026 154.855C233.261 155.022 233.538 155.121 233.826 155.139Z" fill="#455A64"/>
<path d="M227.692 151.463C227.453 151.605 227.453 151.824 227.692 151.96C227.824 152.03 227.971 152.066 228.121 152.066C228.27 152.066 228.417 152.03 228.55 151.96C228.788 151.824 228.788 151.605 228.55 151.463C228.417 151.396 228.27 151.361 228.121 151.361C227.972 151.361 227.825 151.396 227.692 151.463Z" fill="#455A64"/>
<path d="M229.253 151.057C229.685 151.308 229.82 151.669 229.653 151.985C229.622 152.023 229.582 152.051 229.536 152.068C229.491 152.085 229.442 152.09 229.395 152.082C229.253 152.082 229.149 151.985 229.195 151.908C229.317 151.682 229.195 151.431 228.917 151.263C228.571 151.082 228.172 151.025 227.789 151.102C227.647 151.102 227.505 151.102 227.485 150.986C227.485 150.915 227.543 150.857 227.653 150.831C228.197 150.733 228.757 150.812 229.253 151.057Z" fill="#455A64"/>
<path d="M229.943 150.664C230.588 151.032 230.82 151.554 230.633 152.038C230.633 152.109 230.497 152.154 230.375 152.148C230.233 152.148 230.143 152.057 230.175 151.98C230.323 151.587 230.136 151.161 229.614 150.858C229.018 150.553 228.342 150.438 227.679 150.529C227.537 150.529 227.401 150.529 227.389 150.413C227.389 150.342 227.46 150.277 227.582 150.264C228.391 150.148 229.217 150.288 229.943 150.664Z" fill="#455A64"/>
<path d="M217.256 144.523C217.279 144.529 217.303 144.529 217.327 144.523C217.327 144.523 217.327 144.523 217.327 144.478L217.198 143.833C217.198 143.833 217.198 143.801 217.198 143.788L217.159 143.749L216.933 143.62C216.91 143.613 216.886 143.613 216.862 143.62C216.837 143.612 216.81 143.612 216.785 143.62L214.94 144.684C214.937 144.69 214.935 144.697 214.935 144.703C214.935 144.71 214.937 144.717 214.94 144.723C214.936 144.73 214.934 144.737 214.934 144.745C214.934 144.753 214.936 144.761 214.94 144.768L215.172 144.903C215.198 144.91 215.224 144.91 215.25 144.903C215.275 144.911 215.302 144.911 215.327 144.903L216.733 144.091L216.811 144.465C216.811 144.465 216.811 144.465 216.849 144.504C216.877 144.51 216.906 144.51 216.933 144.504L217.256 144.523Z" fill="#455A64"/>
<path d="M215.811 143.691C215.836 143.698 215.863 143.698 215.888 143.691C215.891 143.684 215.893 143.676 215.893 143.668C215.893 143.661 215.891 143.653 215.888 143.646L215.753 143.001C215.756 142.986 215.756 142.97 215.753 142.956L215.721 142.917L215.495 142.788C215.47 142.78 215.443 142.78 215.418 142.788C215.392 142.781 215.366 142.781 215.34 142.788L213.502 143.852C213.502 143.852 213.502 143.852 213.502 143.897C213.499 143.903 213.498 143.91 213.498 143.917C213.498 143.923 213.499 143.93 213.502 143.936L213.734 144.071C213.759 144.079 213.786 144.079 213.811 144.071H213.889L215.295 143.259L215.379 143.678C215.389 143.696 215.405 143.709 215.424 143.717C215.449 143.724 215.476 143.724 215.501 143.717L215.811 143.691Z" fill="#455A64"/>
<path d="M214.005 142.529C213.98 142.523 213.953 142.523 213.928 142.529C213.902 142.522 213.875 142.522 213.85 142.529L213.566 142.69C213.563 142.696 213.561 142.703 213.561 142.71C213.561 142.716 213.563 142.723 213.566 142.729C213.563 142.736 213.561 142.744 213.561 142.752C213.561 142.759 213.563 142.767 213.566 142.774L213.831 142.929H213.908C213.934 142.937 213.96 142.937 213.986 142.929L214.269 142.768C214.273 142.761 214.275 142.753 214.275 142.745C214.275 142.737 214.273 142.73 214.269 142.723C214.272 142.715 214.274 142.708 214.274 142.7C214.274 142.692 214.272 142.685 214.269 142.677L214.005 142.529ZM213.005 143.103C212.981 143.091 212.955 143.084 212.928 143.084C212.901 143.084 212.874 143.091 212.85 143.103L212.573 143.264C212.573 143.264 212.541 143.264 212.541 143.31C212.543 143.319 212.546 143.328 212.552 143.336C212.557 143.344 212.565 143.35 212.573 143.355L212.838 143.503C212.861 143.516 212.888 143.523 212.915 143.523C212.942 143.523 212.969 143.516 212.992 143.503L213.27 143.342C213.27 143.342 213.302 143.342 213.302 143.297C213.301 143.288 213.297 143.279 213.292 143.272C213.286 143.265 213.278 143.26 213.27 143.258L213.005 143.103Z" fill="#455A64"/>
<path d="M211.051 142.53C211.075 142.542 211.101 142.549 211.128 142.549C211.155 142.549 211.182 142.542 211.206 142.53L211.548 142.336L212.431 142.846H212.509C212.534 142.853 212.561 142.853 212.586 142.846L212.786 142.73C212.818 142.73 212.831 142.697 212.838 142.678C212.844 142.657 212.844 142.634 212.838 142.613L213.057 141.485C213.063 141.464 213.061 141.442 213.053 141.422C213.045 141.402 213.03 141.386 213.012 141.375L212.792 141.246H212.715H212.644L211.502 141.891L211.257 141.749H211.18H211.102L210.903 141.872C210.894 141.874 210.886 141.879 210.881 141.886C210.875 141.893 210.871 141.902 210.87 141.91C210.87 141.91 210.87 141.943 210.903 141.956L211.148 142.097L210.799 142.297C210.799 142.297 210.767 142.297 210.799 142.343C210.796 142.35 210.794 142.357 210.794 142.365C210.794 142.373 210.796 142.381 210.799 142.388L211.051 142.53ZM211.909 142.13L212.515 141.775L212.392 142.42L211.909 142.13Z" fill="#455A64"/>
<path d="M211.825 140.737C211.83 140.722 211.83 140.706 211.825 140.691C211.825 140.691 211.825 140.691 211.825 140.646L210.754 140.001C210.731 139.988 210.704 139.981 210.677 139.981C210.65 139.981 210.623 139.988 210.599 140.001L210.4 140.117C210.4 140.117 210.367 140.117 210.367 140.162C210.367 140.208 210.367 140.195 210.4 140.208L211.199 140.666L210.864 140.898C210.832 140.855 210.792 140.818 210.748 140.788L210.632 140.711C210.524 140.65 210.409 140.603 210.29 140.569C210.173 140.531 210.051 140.51 209.929 140.504C209.809 140.488 209.687 140.488 209.567 140.504C209.448 140.531 209.333 140.574 209.226 140.633C209.124 140.683 209.037 140.759 208.974 140.853C208.93 140.914 208.911 140.991 208.922 141.065C208.934 141.145 208.972 141.218 209.032 141.272C209.11 141.346 209.197 141.411 209.29 141.465C209.411 141.533 209.539 141.59 209.671 141.633C209.787 141.666 209.905 141.687 210.025 141.698C210.133 141.708 210.241 141.708 210.348 141.698C210.44 141.679 210.529 141.649 210.612 141.607C210.612 141.607 210.645 141.607 210.645 141.562C210.645 141.517 210.645 141.53 210.612 141.517L210.38 141.382H210.309H210.232C210.179 141.398 210.125 141.409 210.071 141.414H209.916L209.774 141.369L209.645 141.304C209.535 141.24 209.477 141.175 209.471 141.098C209.464 141.02 209.509 140.962 209.613 140.904C209.707 140.851 209.815 140.829 209.922 140.84C210.047 140.842 210.169 140.875 210.277 140.936C210.32 140.961 210.361 140.989 210.4 141.02C210.419 141.04 210.436 141.061 210.451 141.085C210.448 141.102 210.448 141.119 210.451 141.136C210.464 141.156 210.482 141.172 210.503 141.182L210.767 141.336H210.845H210.916L211.825 140.737Z" fill="#455A64"/>
<path d="M242.481 160.616L243.075 160.274L242.288 159.816L241.695 160.158L242.481 160.616Z" fill="#455A64"/>
<path d="M241.295 159.932L242.481 159.248L241.695 158.79L240.508 159.474L241.295 159.932Z" fill="#455A64"/>
<path d="M240.108 159.248L241.888 158.216L241.101 157.765L239.314 158.79L240.108 159.248Z" fill="#455A64"/>
<path d="M238.921 158.563L241.295 157.189L240.501 156.731L238.134 158.105L238.921 158.563Z" fill="#455A64"/>
<path d="M185.27 125.36C185.429 125.341 185.589 125.365 185.735 125.431L188.695 127.133C188.889 127.243 188.837 127.449 188.586 127.598L187.502 128.243C187.341 128.331 187.163 128.384 186.98 128.398C186.903 128.407 186.825 128.407 186.748 128.398C186.667 128.391 186.588 128.369 186.515 128.333L183.555 126.63C183.368 126.514 183.413 126.314 183.671 126.166L184.748 125.521C184.909 125.43 185.087 125.375 185.27 125.36ZM187.012 128.262C187.09 128.254 187.165 128.227 187.231 128.185L188.315 127.54C188.502 127.43 188.541 127.269 188.399 127.185L185.438 125.482C185.4 125.462 185.359 125.448 185.316 125.443H185.245C185.164 125.451 185.087 125.478 185.019 125.521L183.942 126.166C183.755 126.275 183.716 126.437 183.852 126.514L186.812 128.223C186.874 128.253 186.943 128.266 187.012 128.262Z" fill="#455A64"/>
<path d="M187.651 126.999L186.361 127.734L186.825 128.005C186.878 128.021 186.934 128.021 186.986 128.005L187.934 127.457C188.07 127.38 188.102 127.257 187.999 127.193L187.651 126.999Z" fill="#455A64"/>
<path d="M187.431 126.876L186.877 126.554L185.599 127.289L186.161 127.612L187.431 126.876Z" fill="#455A64"/>
<path d="M186.657 126.43L186.109 126.107L184.825 126.849L185.38 127.172L186.657 126.43Z" fill="#455A64"/>
<path d="M185.251 125.716L184.329 126.251C184.161 126.348 184.193 126.49 184.426 126.619L184.613 126.728L185.903 125.987L185.458 125.735C185.426 125.718 185.392 125.708 185.356 125.704C185.321 125.701 185.285 125.705 185.251 125.716Z" fill="#455A64"/>
<path d="M184.632 125.451C184.437 125.431 184.242 125.484 184.084 125.6L183.884 125.716C183.664 125.845 183.542 125.987 183.626 126.038L183.761 126.129L184.78 125.542L184.632 125.451Z" fill="#455A64"/>
<path d="M192.81 130.34L190.514 128.347L189.302 130.069L190.888 129.637L192.81 130.34Z" fill="#455A64"/>
<path d="M143.926 214.156V214.724C143.901 215.214 143.759 215.691 143.514 216.115C143.268 216.54 142.926 216.901 142.514 217.168L131.446 223.554C131.008 223.776 130.524 223.892 130.033 223.892C129.542 223.892 129.058 223.776 128.621 223.554L74.0735 192.046C73.6621 191.777 73.3198 191.415 73.0744 190.989C72.829 190.563 72.6873 190.085 72.661 189.595V189.033C72.6873 188.543 72.829 188.065 73.0744 187.639C73.3198 187.213 73.6621 186.851 74.0735 186.582L85.1416 180.197C85.5792 179.974 86.0632 179.858 86.5542 179.858C87.0451 179.858 87.5291 179.974 87.9667 180.197L142.514 211.711C142.924 211.98 143.266 212.341 143.512 212.765C143.757 213.19 143.899 213.666 143.926 214.156Z" fill="#2B2F7E"/>
<path opacity="0.15" d="M73.9123 186.711C73.3253 187.156 73.3898 187.807 74.0993 188.214L128.646 219.728C129.082 219.957 129.567 220.075 130.059 220.07V223.888C129.565 223.901 129.076 223.785 128.64 223.553L74.0993 192.045C73.6889 191.775 73.3475 191.413 73.1022 190.987C72.8569 190.562 72.7146 190.084 72.6868 189.594V189.033C72.7114 188.58 72.8338 188.139 73.0453 187.738C73.2568 187.337 73.5526 186.987 73.9123 186.711Z" fill="black"/>
<path opacity="0.3" d="M142.753 211.86C143.103 212.137 143.392 212.484 143.598 212.88C143.805 213.276 143.926 213.711 143.952 214.157V214.724C143.926 215.215 143.784 215.692 143.537 216.117C143.291 216.542 142.946 216.903 142.533 217.169L131.472 223.554C131.038 223.787 130.551 223.903 130.059 223.89V220.071C130.551 220.077 131.037 219.959 131.472 219.729L142.54 213.344C143.243 212.944 143.281 212.312 142.753 211.86Z" fill="black"/>
<path d="M126.376 207.835C126.29 207.785 126.192 207.758 126.092 207.758C126.008 207.761 125.923 207.771 125.841 207.79L120.036 209.415L119.907 209.461C119.89 209.469 119.875 209.482 119.865 209.498C119.855 209.514 119.849 209.532 119.849 209.551C119.849 209.551 119.849 209.609 119.907 209.635L120.771 210.131C120.847 210.179 120.933 210.205 121.023 210.209C121.084 210.22 121.148 210.22 121.21 210.209L121.971 209.989L123.79 211.041L123.409 211.479C123.382 211.51 123.369 211.549 123.37 211.589C123.37 211.634 123.416 211.679 123.506 211.731L124.37 212.228C124.415 212.255 124.466 212.268 124.518 212.266C124.573 212.268 124.626 212.255 124.673 212.228C124.703 212.211 124.728 212.187 124.744 212.157L127.569 208.803C127.601 208.762 127.619 208.712 127.621 208.661C127.621 208.603 127.576 208.551 127.485 208.5L126.376 207.835ZM124.493 210.202L123.383 209.557L125.583 208.912L124.493 210.202Z" fill="#455A64"/>
<path d="M121.997 205.308C121.68 205.126 121.342 204.985 120.99 204.889C120.642 204.797 120.286 204.743 119.926 204.728C119.573 204.714 119.22 204.747 118.875 204.824C118.543 204.894 118.222 205.007 117.92 205.16L117.656 205.308L117.424 205.444L117.198 205.573L116.953 205.721C116.716 205.861 116.511 206.05 116.353 206.276C116.235 206.45 116.176 206.658 116.185 206.869C116.213 207.096 116.307 207.309 116.456 207.482C116.657 207.715 116.9 207.91 117.172 208.056L119.017 209.12C119.073 209.153 119.138 209.169 119.204 209.165C119.267 209.169 119.33 209.153 119.384 209.12L123.809 206.572C123.861 206.54 123.886 206.508 123.886 206.463C123.885 206.44 123.877 206.418 123.863 206.399C123.85 206.381 123.831 206.367 123.809 206.359L121.997 205.308ZM119.217 205.876C119.484 205.736 119.784 205.67 120.086 205.684C120.388 205.699 120.68 205.794 120.932 205.96L121.629 206.366L119.049 207.869L118.32 207.443C117.746 207.114 117.707 206.798 118.211 206.469L118.475 206.308L118.72 206.166L118.959 206.03L119.217 205.876Z" fill="#455A64"/>
<path d="M117.049 202.448C116.733 202.267 116.395 202.126 116.043 202.029C115.693 201.937 115.334 201.883 114.973 201.868C114.622 201.858 114.271 201.89 113.928 201.965C113.596 202.032 113.275 202.145 112.973 202.3L112.702 202.448L112.476 202.584L112.251 202.713L111.999 202.861C111.765 203.003 111.563 203.192 111.406 203.416C111.285 203.589 111.226 203.798 111.238 204.009C111.26 204.236 111.353 204.451 111.503 204.622C111.705 204.855 111.947 205.049 112.218 205.196L114.07 206.26C114.124 206.293 114.187 206.308 114.25 206.306C114.316 206.309 114.381 206.293 114.437 206.26L118.862 203.713C118.883 203.702 118.901 203.687 118.914 203.668C118.928 203.648 118.936 203.626 118.939 203.603C118.937 203.58 118.929 203.559 118.915 203.54C118.902 203.522 118.883 203.508 118.862 203.5L117.049 202.448ZM114.27 203.016C114.537 202.876 114.837 202.81 115.139 202.825C115.44 202.84 115.733 202.935 115.985 203.1L116.682 203.506L114.102 205.009L113.367 204.583C112.793 204.254 112.76 203.938 113.257 203.609L113.521 203.448C113.605 203.403 113.689 203.358 113.766 203.306L114.012 203.171L114.27 203.016Z" fill="#455A64"/>
<path d="M109.29 197.999C109.236 197.967 109.173 197.951 109.11 197.954C109.044 197.95 108.979 197.966 108.923 197.999L108.194 198.418C108.173 198.427 108.156 198.441 108.143 198.459C108.131 198.478 108.123 198.499 108.123 198.521C108.123 198.544 108.13 198.567 108.142 198.586C108.155 198.606 108.173 198.621 108.194 198.631L109.4 199.289L105.891 201.314C105.839 201.314 105.814 201.379 105.814 201.424C105.816 201.446 105.824 201.468 105.838 201.486C105.851 201.505 105.87 201.519 105.891 201.527L106.788 202.043C106.842 202.076 106.905 202.091 106.968 202.088C107.034 202.092 107.099 202.076 107.155 202.043L110.664 200.018L111.87 200.714C111.928 200.744 111.992 200.759 112.057 200.759C112.12 200.76 112.182 200.744 112.238 200.714L112.967 200.295C113.018 200.263 113.044 200.23 113.044 200.185C113.042 200.163 113.034 200.141 113.02 200.123C113.006 200.104 112.988 200.09 112.967 200.082L109.29 197.999Z" fill="#455A64"/>
<path d="M106.942 198.683C107.16 198.549 107.348 198.374 107.497 198.167C107.62 197.999 107.682 197.794 107.671 197.586C107.644 197.361 107.552 197.148 107.407 196.974C107.196 196.732 106.945 196.529 106.665 196.374C106.339 196.188 105.99 196.045 105.627 195.948C105.281 195.856 104.926 195.805 104.569 195.793C104.23 195.785 103.892 195.819 103.563 195.896C103.254 195.964 102.955 196.07 102.673 196.213L102.028 196.561L101.441 196.916C101.224 197.049 101.035 197.225 100.886 197.432C100.763 197.599 100.701 197.804 100.712 198.012C100.725 198.251 100.818 198.478 100.976 198.657C101.183 198.9 101.435 199.102 101.718 199.25C102.043 199.442 102.392 199.59 102.756 199.689C103.102 199.779 103.457 199.829 103.814 199.837C104.153 199.846 104.491 199.811 104.82 199.734C105.129 199.666 105.428 199.56 105.711 199.418C105.91 199.315 106.11 199.199 106.356 199.076L106.942 198.683ZM102.756 197.631L103.014 197.464L103.311 197.283L103.627 197.109L103.905 196.967C104.027 196.904 104.157 196.856 104.292 196.825C104.427 196.792 104.565 196.775 104.704 196.774C104.85 196.774 104.996 196.794 105.136 196.832C105.287 196.872 105.432 196.93 105.569 197.006C105.686 197.068 105.789 197.154 105.872 197.257C105.931 197.328 105.965 197.417 105.969 197.509C105.967 197.595 105.938 197.679 105.885 197.748C105.817 197.835 105.734 197.909 105.64 197.967C105.561 198.026 105.48 198.08 105.394 198.128C105.298 198.186 105.201 198.251 105.091 198.309L104.782 198.483C104.688 198.537 104.591 198.587 104.491 198.631C104.241 198.755 103.965 198.821 103.685 198.825C103.382 198.829 103.085 198.746 102.827 198.586C102.544 198.425 102.415 198.264 102.428 198.096C102.443 197.998 102.481 197.906 102.538 197.825C102.595 197.745 102.67 197.679 102.756 197.631Z" fill="#455A64"/>
<path d="M99.2864 194.297L99.0477 194.445L98.7252 194.632L98.3963 194.826L98.1318 194.961C98.0173 195.021 97.896 195.066 97.7706 195.097C97.6384 195.135 97.5019 195.156 97.3643 195.161C97.2188 195.159 97.0739 195.142 96.9322 195.11C96.7707 195.071 96.6162 195.008 96.4742 194.922C96.3521 194.859 96.2428 194.774 96.1517 194.671C96.0971 194.607 96.0575 194.532 96.0356 194.452C96.0159 194.391 96.0159 194.325 96.0356 194.265C96.0629 194.211 96.0976 194.161 96.1388 194.116C96.1737 194.077 96.2 194.031 96.2162 193.981C96.2162 193.981 96.1775 193.91 96.1001 193.865L95.2036 193.349C95.157 193.327 95.1064 193.316 95.0552 193.316C95.004 193.316 94.9534 193.327 94.9069 193.349C94.7021 193.459 94.5323 193.624 94.4167 193.826C94.3223 193.999 94.2926 194.2 94.3328 194.394C94.3884 194.616 94.4968 194.822 94.6489 194.993C94.851 195.22 95.0911 195.41 95.3584 195.555C95.6799 195.74 96.0248 195.881 96.3839 195.974C96.7287 196.069 97.084 196.121 97.4417 196.129C97.7822 196.137 98.1226 196.103 98.4543 196.025C98.7623 195.962 99.0598 195.856 99.338 195.709C99.5379 195.613 99.7379 195.497 99.983 195.374C100.228 195.251 100.396 195.129 100.583 195.006C100.802 194.88 100.991 194.709 101.138 194.503C101.255 194.331 101.314 194.125 101.305 193.916C101.283 193.691 101.193 193.477 101.047 193.304C100.843 193.06 100.593 192.859 100.312 192.71C100.006 192.534 99.6784 192.398 99.338 192.304C99.0009 192.208 98.6553 192.145 98.306 192.117C97.9761 192.095 97.6449 192.112 97.3191 192.168C97.03 192.213 96.7507 192.306 96.4935 192.446C96.4757 192.454 96.4604 192.466 96.449 192.482C96.4377 192.498 96.4308 192.517 96.429 192.536C96.4296 192.555 96.4362 192.573 96.4477 192.588C96.4593 192.603 96.4753 192.614 96.4935 192.62L97.3901 193.142C97.4498 193.181 97.5188 193.203 97.59 193.207C97.6663 193.197 97.7418 193.182 97.8158 193.162C97.8997 193.134 97.9861 193.115 98.0738 193.104C98.1809 193.09 98.2892 193.09 98.3963 193.104C98.5248 193.114 98.6521 193.136 98.7768 193.168C98.9305 193.214 99.0778 193.279 99.2154 193.362C99.3413 193.425 99.4515 193.515 99.5379 193.626C99.5946 193.695 99.6264 193.782 99.6282 193.871C99.6204 193.96 99.5842 194.043 99.525 194.11C99.4519 194.18 99.3719 194.243 99.2864 194.297Z" fill="#455A64"/>
<path d="M94.952 189.692C94.8658 189.641 94.7679 189.615 94.6682 189.614C94.5835 189.617 94.4992 189.628 94.4166 189.646L88.6117 191.272L88.4827 191.317C88.4375 191.317 88.4182 191.369 88.4182 191.407C88.4182 191.446 88.4182 191.465 88.4827 191.491L89.3405 191.988C89.4188 192.034 89.5075 192.061 89.5985 192.065C89.6584 192.074 89.7192 192.074 89.7791 192.065L90.5402 191.846L92.3655 192.897L91.985 193.336C91.9583 193.366 91.9445 193.405 91.9463 193.446C91.9463 193.491 91.9914 193.536 92.0817 193.587L92.946 194.091C92.9926 194.112 93.0432 194.123 93.0944 194.123C93.1456 194.123 93.1962 194.112 93.2427 194.091C93.2747 194.072 93.3013 194.045 93.3201 194.013L96.1388 190.659C96.1727 190.62 96.1911 190.569 96.1903 190.517C96.1903 190.459 96.1517 190.408 96.0614 190.35L94.952 189.692ZM93.0686 192.059L91.9592 191.414L94.1586 190.769L93.0686 192.059Z" fill="#455A64"/>
<path d="M90.5274 187.137C90.2404 186.972 89.9379 186.836 89.6244 186.731C89.3363 186.633 89.0374 186.57 88.7343 186.544C88.4403 186.523 88.1449 186.545 87.8571 186.608C87.5669 186.673 87.2885 186.781 87.0315 186.931C86.7502 187.067 86.523 187.294 86.3865 187.576C86.3421 187.681 86.3264 187.796 86.3412 187.909C86.3559 188.023 86.4005 188.13 86.4704 188.221L83.9936 188.672C83.9594 188.676 83.9264 188.687 83.8968 188.704C83.8517 188.704 83.8323 188.756 83.8323 188.795C83.8323 188.833 83.8323 188.853 83.8968 188.879L84.8256 189.414C84.901 189.467 84.9915 189.494 85.0836 189.491H85.2965L87.5217 189.085L88.1667 189.446L86.7025 190.291C86.6509 190.291 86.6252 190.356 86.6252 190.401C86.6272 190.423 86.6355 190.445 86.6492 190.463C86.6628 190.482 86.6813 190.496 86.7025 190.504L87.5991 191.02C87.6537 191.052 87.7164 191.068 87.7797 191.065C87.8451 191.069 87.9101 191.053 87.9667 191.02L92.3914 188.472C92.4124 188.462 92.4301 188.447 92.4427 188.428C92.4553 188.408 92.4621 188.386 92.4623 188.363C92.4613 188.34 92.4542 188.317 92.4418 188.298C92.4293 188.279 92.4119 188.263 92.3914 188.253L90.5274 187.137ZM89.2374 188.782L88.4569 188.324C88.3039 188.251 88.176 188.134 88.0893 187.988C88.0377 187.872 88.0893 187.756 88.2957 187.647C88.4717 187.54 88.6794 187.499 88.8826 187.53C89.0899 187.56 89.2893 187.63 89.4696 187.737L90.2436 188.188L89.2374 188.782Z" fill="#455A64"/>
<path d="M84.3354 183.564C84.2774 183.535 84.2134 183.52 84.1484 183.52C84.0833 183.52 84.0193 183.535 83.9613 183.564L83.2389 183.984C83.2177 183.992 83.1992 184.006 83.1855 184.024C83.1719 184.042 83.1635 184.064 83.1615 184.087C83.1615 184.132 83.1615 184.164 83.2389 184.196L84.445 184.893L80.9298 186.918C80.9089 186.928 80.8911 186.943 80.8785 186.963C80.866 186.982 80.8592 187.005 80.8589 187.028C80.8596 187.05 80.8667 187.072 80.8793 187.09C80.8918 187.108 80.9094 187.123 80.9298 187.131L81.8264 187.654C81.8854 187.679 81.9491 187.692 82.0134 187.692C82.0778 187.692 82.1414 187.679 82.2005 187.654L85.7092 185.622L86.9154 186.318C86.9711 186.348 87.033 186.363 87.096 186.364C87.1611 186.364 87.2253 186.349 87.283 186.318L88.0119 185.899C88.032 185.888 88.049 185.873 88.0614 185.854C88.0738 185.834 88.0812 185.812 88.0828 185.79C88.0814 185.768 88.074 185.746 88.0615 185.728C88.049 185.71 88.0319 185.696 88.0119 185.686L84.3354 183.564Z" fill="#455A64"/>
<path d="M134.897 211.544C136.632 212.543 136.632 214.162 134.897 215.156C133.926 215.649 132.853 215.905 131.765 215.905C130.677 215.905 129.604 215.649 128.634 215.156C126.905 214.162 126.905 212.543 128.634 211.544C129.604 211.051 130.677 210.794 131.765 210.794C132.853 210.794 133.926 211.051 134.897 211.544ZM129.737 212.724L130.898 213.369L129.737 214.014C129.689 214.028 129.647 214.058 129.617 214.098C129.587 214.138 129.571 214.187 129.571 214.237C129.571 214.287 129.587 214.335 129.617 214.375C129.647 214.415 129.689 214.445 129.737 214.459C129.855 214.52 129.987 214.551 130.12 214.551C130.254 214.551 130.385 214.52 130.504 214.459L131.672 213.814L132.833 214.459C132.951 214.52 133.083 214.551 133.216 214.551C133.35 214.551 133.481 214.52 133.6 214.459C133.648 214.445 133.69 214.415 133.72 214.375C133.75 214.335 133.766 214.287 133.766 214.237C133.766 214.187 133.75 214.138 133.72 214.098C133.69 214.058 133.648 214.028 133.6 214.014L132.439 213.369L133.6 212.724C133.648 212.71 133.69 212.68 133.72 212.64C133.75 212.6 133.766 212.552 133.766 212.502C133.766 212.451 133.75 212.403 133.72 212.363C133.69 212.323 133.648 212.293 133.6 212.279C133.481 212.218 133.35 212.187 133.216 212.187C133.083 212.187 132.951 212.218 132.833 212.279L131.672 212.924L130.504 212.279C130.385 212.218 130.254 212.187 130.12 212.187C129.987 212.187 129.855 212.218 129.737 212.279C129.675 212.286 129.619 212.317 129.58 212.365C129.541 212.414 129.523 212.475 129.53 212.537C129.537 212.599 129.568 212.655 129.616 212.694C129.665 212.732 129.727 212.75 129.788 212.743L129.737 212.724Z" fill="#455A64"/>
<path d="M123.157 169.379C123.229 167.872 123.655 166.403 124.402 165.091C125.148 163.78 126.194 162.663 127.453 161.832C128.704 161.097 129.833 161.065 130.633 161.587L133.568 163.238L127.408 173.862L124.499 172.21C123.686 171.765 123.17 170.791 123.157 169.379Z" fill="#37474F"/>
<path d="M130.504 163.56C129.246 164.393 128.202 165.51 127.456 166.821C126.71 168.132 126.282 169.6 126.208 171.107C126.208 173.88 128.182 174.977 130.569 173.59C131.826 172.757 132.87 171.64 133.617 170.329C134.363 169.018 134.79 167.55 134.864 166.044C134.845 163.27 132.891 162.161 130.504 163.56Z" fill="#455A64"/>
<path d="M132 167.722C132 166.638 131.355 166.142 130.523 166.619C130.077 166.942 129.713 167.365 129.461 167.855C129.208 168.345 129.075 168.887 129.072 169.438C129.072 170.521 129.717 171.011 130.549 170.541C130.994 170.216 131.357 169.793 131.608 169.303C131.86 168.814 131.995 168.272 132 167.722Z" fill="#263238"/>
<path opacity="0.15" d="M126.208 171.107C126.223 170.111 126.424 169.127 126.802 168.205L134.251 163.877C134.672 164.52 134.884 165.277 134.858 166.044C134.858 166.076 134.858 166.109 134.858 166.147L126.215 171.165C126.215 171.165 126.208 171.127 126.208 171.107Z" fill="black"/>
<path d="M154.04 192.981C155.616 193.1 157.197 192.816 158.632 192.155L199.267 168.735C201.724 167.497 204.485 164.285 204.659 161.24L205.904 132.274L203.64 132.145L202.389 161.118C202.272 163.182 200.112 165.775 198.254 166.704L157.587 190.13C156.494 190.586 155.312 190.787 154.13 190.719C152.948 190.651 151.796 190.315 150.763 189.736L123.674 174.115C123.029 173.689 122.648 173.179 122.674 172.747C122.7 172.315 123.106 171.889 123.796 171.541L167.327 146.27C169.778 145.038 172.525 141.82 172.7 138.775L173.306 122.708L171.042 122.586L170.436 138.646C170.319 140.723 168.159 143.31 166.308 144.238L122.777 169.516C121.326 170.245 120.487 171.347 120.41 172.618C120.332 173.889 121.055 175.121 122.429 176.011L149.518 191.633C150.886 192.459 152.443 192.923 154.04 192.981Z" fill="#455A64"/>
<path d="M161.341 192.329C161.413 190.822 161.839 189.352 162.585 188.041C163.332 186.73 164.377 185.613 165.637 184.782C166.888 184.047 168.017 184.008 168.81 184.537L171.751 186.188L165.592 196.811L162.683 195.16C161.883 194.715 161.341 193.741 161.341 192.329Z" fill="#37474F"/>
<path d="M168.701 186.51C167.44 187.342 166.394 188.459 165.648 189.772C164.901 191.084 164.475 192.555 164.405 194.063C164.405 196.83 166.372 197.933 168.765 196.54C170.023 195.707 171.066 194.59 171.812 193.279C172.557 191.968 172.983 190.5 173.054 188.993C173.035 186.226 171.087 185.098 168.701 186.51Z" fill="#455A64"/>
<path d="M170.197 190.67C170.197 189.587 169.552 189.09 168.72 189.567C168.273 189.889 167.908 190.312 167.656 190.802C167.403 191.292 167.271 191.835 167.269 192.386C167.269 193.463 167.914 193.96 168.739 193.482C169.186 193.161 169.55 192.739 169.803 192.25C170.057 191.762 170.191 191.22 170.197 190.67Z" fill="#263238"/>
<path d="M191.385 175.01C191.453 173.504 191.876 172.034 192.619 170.722C193.362 169.409 194.404 168.291 195.661 167.457C196.919 166.722 198.041 166.683 198.841 167.206L201.782 168.85L195.642 179.486L192.727 177.835C191.914 177.397 191.398 176.423 191.385 175.01Z" fill="#37474F"/>
<path d="M198.719 169.186C197.465 170.017 196.424 171.131 195.68 172.439C194.936 173.746 194.51 175.21 194.436 176.713C194.436 179.48 196.416 180.583 198.802 179.183C200.059 178.349 201.101 177.231 201.844 175.919C202.588 174.606 203.01 173.137 203.079 171.63C203.059 168.883 201.105 167.78 198.719 169.186Z" fill="#455A64"/>
<path d="M200.221 173.334C200.221 172.257 199.576 171.76 198.744 172.237C198.299 172.561 197.935 172.984 197.683 173.474C197.431 173.963 197.297 174.505 197.293 175.056C197.293 176.14 197.938 176.63 198.777 176.159C199.221 175.833 199.582 175.408 199.833 174.917C200.084 174.427 200.217 173.885 200.221 173.334Z" fill="#263238"/>
<path d="M210.761 97.1724C211.145 95.6971 211.075 94.1398 210.558 92.7053C210.041 91.2709 209.102 90.0265 207.865 89.1358L180.833 73.8559C178.375 72.2434 175.673 73.3657 174.822 76.1714L172.945 82.2537L174.802 83.3373L176.821 77.1905C176.903 76.8618 177.066 76.5587 177.294 76.3084C177.522 76.0581 177.809 75.8685 178.129 75.7566C178.449 75.6446 178.791 75.6139 179.126 75.6672C179.461 75.7205 179.777 75.8561 180.046 76.0618L206.368 90.9289C207.157 91.5069 207.757 92.3052 208.093 93.2232C208.429 94.1413 208.487 95.1382 208.258 96.0888L206.671 101.926L208.884 103.216L210.761 97.1724Z" fill="#455A64"/>
<path d="M168.965 126.481L205.278 147.45L152.208 178.087L115.895 157.119L168.965 126.481Z" fill="#2B2F7E"/>
<path opacity="0.5" d="M168.965 126.481L205.278 147.45L152.208 178.087L115.895 157.119L168.965 126.481Z" fill="black"/>
<path d="M208.884 103.254L172.945 82.2598L168.965 126.481L205.278 147.449L208.884 103.254Z" fill="#2B2F7E"/>
<path opacity="0.35" d="M208.884 103.254L172.945 82.2598L168.965 126.481L205.278 147.449L208.884 103.254Z" fill="black"/>
<path d="M172.951 82.2598L168.971 126.481L115.901 157.118L107.516 120.024L172.951 82.2598ZM154.395 124.778C155.161 125.015 155.99 124.941 156.702 124.572C157.415 124.203 157.953 123.567 158.2 122.804L166.972 100.042C167.165 99.6834 167.279 99.2876 167.307 98.8811C167.335 98.4746 167.275 98.0669 167.133 97.6852C166.991 97.3034 166.768 96.9565 166.481 96.6674C166.194 96.3784 165.849 96.154 165.468 96.0092C165.087 95.8644 164.68 95.8025 164.273 95.8276C163.866 95.8528 163.47 95.9644 163.11 96.155C162.75 96.3457 162.434 96.611 162.185 96.9332C161.936 97.2554 161.758 97.6271 161.664 98.0234L152.892 120.785C152.569 121.514 152.544 122.341 152.824 123.087C153.104 123.834 153.666 124.441 154.388 124.778H154.395ZM137.825 132.569C138.59 132.811 139.42 132.739 140.133 132.371C140.846 132.002 141.384 131.366 141.63 130.602L150.376 107.84C150.569 107.482 150.683 107.088 150.711 106.682C150.739 106.277 150.681 105.87 150.54 105.489C150.399 105.108 150.178 104.761 149.893 104.472C149.608 104.183 149.264 103.957 148.885 103.811C148.506 103.665 148.1 103.601 147.694 103.624C147.288 103.647 146.892 103.756 146.532 103.943C146.171 104.131 145.855 104.393 145.604 104.713C145.352 105.032 145.172 105.401 145.074 105.796L136.302 128.557C135.973 129.291 135.947 130.125 136.232 130.877C136.516 131.628 137.086 132.237 137.818 132.569H137.825ZM121.255 140.367C122.016 140.61 122.842 140.543 123.555 140.181C124.267 139.819 124.808 139.191 125.06 138.432L133.826 115.67C134.013 115.314 134.123 114.921 134.149 114.519C134.174 114.117 134.114 113.714 133.972 113.336C133.83 112.959 133.61 112.616 133.327 112.329C133.043 112.043 132.702 111.82 132.326 111.675C131.95 111.53 131.548 111.466 131.145 111.487C130.743 111.508 130.349 111.615 129.991 111.799C129.632 111.983 129.317 112.241 129.065 112.556C128.813 112.871 128.631 113.236 128.53 113.626L119.758 136.388C119.437 137.114 119.413 137.937 119.692 138.681C119.97 139.425 120.529 140.03 121.248 140.367H121.255Z" fill="#2B2F7E"/>
<path opacity="0.23" d="M172.951 82.2598L168.971 126.481L115.901 157.118L107.516 120.024L172.951 82.2598ZM154.395 124.778C155.161 125.015 155.99 124.941 156.702 124.572C157.415 124.203 157.953 123.567 158.2 122.804L166.972 100.042C167.165 99.6834 167.279 99.2876 167.307 98.8811C167.335 98.4746 167.275 98.0669 167.133 97.6852C166.991 97.3034 166.768 96.9565 166.481 96.6674C166.194 96.3784 165.849 96.154 165.468 96.0092C165.087 95.8644 164.68 95.8025 164.273 95.8276C163.866 95.8528 163.47 95.9644 163.11 96.155C162.75 96.3457 162.434 96.611 162.185 96.9332C161.936 97.2554 161.758 97.6271 161.664 98.0234L152.892 120.785C152.569 121.514 152.544 122.341 152.824 123.087C153.104 123.834 153.666 124.441 154.388 124.778H154.395ZM137.825 132.569C138.59 132.811 139.42 132.739 140.133 132.371C140.846 132.002 141.384 131.366 141.63 130.602L150.376 107.84C150.569 107.482 150.683 107.088 150.711 106.682C150.739 106.277 150.681 105.87 150.54 105.489C150.399 105.108 150.178 104.761 149.893 104.472C149.608 104.183 149.264 103.957 148.885 103.811C148.506 103.665 148.1 103.601 147.694 103.624C147.288 103.647 146.892 103.756 146.532 103.943C146.171 104.131 145.855 104.393 145.604 104.713C145.352 105.032 145.172 105.401 145.074 105.796L136.302 128.557C135.973 129.291 135.947 130.125 136.232 130.877C136.516 131.628 137.086 132.237 137.818 132.569H137.825ZM121.255 140.367C122.016 140.61 122.842 140.543 123.555 140.181C124.267 139.819 124.808 139.191 125.06 138.432L133.826 115.67C134.013 115.314 134.123 114.921 134.149 114.519C134.174 114.117 134.114 113.714 133.972 113.336C133.83 112.959 133.61 112.616 133.327 112.329C133.043 112.043 132.702 111.82 132.326 111.675C131.95 111.53 131.548 111.466 131.145 111.487C130.743 111.508 130.349 111.615 129.991 111.799C129.632 111.983 129.317 112.241 129.065 112.556C128.813 112.871 128.631 113.236 128.53 113.626L119.758 136.388C119.437 137.114 119.413 137.937 119.692 138.681C119.97 139.425 120.529 140.03 121.248 140.367H121.255Z" fill="black"/>
<path d="M208.884 103.255L205.278 147.45L152.208 178.087L143.823 141L208.884 103.255ZM187.934 146.76C188.701 146.997 189.53 146.923 190.242 146.554C190.954 146.185 191.492 145.549 191.74 144.786L200.505 122.024C200.694 121.667 200.805 121.274 200.831 120.871C200.857 120.468 200.797 120.064 200.655 119.686C200.514 119.308 200.293 118.964 200.009 118.677C199.725 118.39 199.383 118.167 199.006 118.021C198.629 117.876 198.226 117.813 197.822 117.835C197.419 117.857 197.025 117.965 196.666 118.15C196.308 118.336 195.992 118.596 195.741 118.912C195.49 119.228 195.309 119.595 195.21 119.986L186.438 142.741C186.107 143.473 186.078 144.306 186.359 145.059C186.639 145.811 187.205 146.423 187.934 146.76ZM171.364 154.551C172.13 154.793 172.96 154.721 173.673 154.353C174.386 153.984 174.924 153.348 175.17 152.584L183.916 129.822C184.108 129.464 184.223 129.07 184.251 128.664C184.279 128.259 184.221 127.852 184.08 127.471C183.939 127.09 183.718 126.743 183.433 126.454C183.147 126.165 182.804 125.939 182.425 125.793C182.045 125.647 181.639 125.583 181.234 125.606C180.828 125.629 180.432 125.738 180.071 125.925C179.711 126.113 179.395 126.375 179.143 126.695C178.892 127.014 178.712 127.383 178.614 127.778L169.849 150.539C169.519 151.273 169.494 152.107 169.778 152.858C170.062 153.61 170.632 154.219 171.364 154.551ZM154.794 162.349C155.559 162.59 156.388 162.519 157.1 162.15C157.812 161.781 158.349 161.146 158.593 160.382L167.365 137.62C167.558 137.262 167.672 136.868 167.7 136.462C167.729 136.057 167.67 135.65 167.529 135.269C167.388 134.888 167.168 134.541 166.882 134.252C166.597 133.963 166.253 133.737 165.874 133.591C165.495 133.445 165.089 133.381 164.683 133.404C164.277 133.427 163.881 133.535 163.521 133.723C163.16 133.911 162.844 134.173 162.593 134.493C162.342 134.812 162.161 135.181 162.064 135.576L153.298 158.337C152.967 159.068 152.939 159.9 153.219 160.652C153.5 161.403 154.066 162.014 154.794 162.349Z" fill="#2B2F7E"/>
<g opacity="0.15">
<path opacity="0.15" d="M208.884 103.254L205.278 147.449L152.208 178.086L143.823 140.999L208.884 103.254ZM187.934 146.759C188.701 146.996 189.53 146.922 190.242 146.553C190.954 146.184 191.492 145.548 191.74 144.785L200.505 122.023C200.694 121.666 200.805 121.273 200.831 120.87C200.857 120.467 200.797 120.063 200.655 119.685C200.514 119.307 200.293 118.963 200.009 118.676C199.725 118.389 199.383 118.166 199.006 118.02C198.629 117.875 198.226 117.812 197.822 117.834C197.419 117.856 197.025 117.964 196.666 118.149C196.308 118.335 195.992 118.595 195.741 118.911C195.49 119.227 195.309 119.594 195.21 119.985L186.438 142.74C186.107 143.472 186.078 144.305 186.359 145.058C186.639 145.81 187.205 146.422 187.934 146.759ZM171.364 154.55C172.13 154.792 172.96 154.72 173.673 154.352C174.386 153.983 174.924 153.347 175.17 152.583L183.916 129.821C184.108 129.463 184.223 129.069 184.251 128.663C184.279 128.258 184.221 127.851 184.08 127.47C183.939 127.089 183.718 126.742 183.433 126.453C183.147 126.164 182.804 125.938 182.425 125.792C182.045 125.646 181.639 125.582 181.234 125.605C180.828 125.628 180.432 125.737 180.071 125.924C179.711 126.112 179.395 126.374 179.143 126.694C178.892 127.013 178.712 127.382 178.614 127.777L169.849 150.538C169.519 151.272 169.494 152.106 169.778 152.857C170.062 153.609 170.632 154.218 171.364 154.55ZM154.794 162.348C155.559 162.589 156.388 162.518 157.1 162.149C157.812 161.78 158.349 161.145 158.593 160.381L167.365 137.619C167.558 137.261 167.672 136.867 167.7 136.461C167.729 136.056 167.67 135.649 167.529 135.268C167.388 134.887 167.168 134.54 166.882 134.251C166.597 133.962 166.253 133.736 165.874 133.59C165.495 133.444 165.089 133.38 164.683 133.403C164.277 133.426 163.881 133.535 163.521 133.722C163.16 133.91 162.844 134.172 162.593 134.492C162.342 134.811 162.161 135.18 162.064 135.575L153.298 158.336C152.967 159.067 152.939 159.899 153.219 160.651C153.5 161.402 154.066 162.013 154.794 162.348Z" fill="black"/>
</g>
<path d="M143.83 141L107.516 120.031L115.895 157.125L152.208 178.087L143.83 141Z" fill="#2B2F7E"/>
<path opacity="0.4" d="M143.83 141L107.516 120.031L115.895 157.125L152.208 178.087L143.83 141Z" fill="black"/>
<path d="M130.749 60.9254L134.942 63.3828L134.929 50.6829L137.47 49.2188L148.977 55.8622L148.996 71.5291L155.704 75.3281L140.689 85.0675L128.208 62.3895L130.749 60.9254Z" fill="#37474F"/>
<path d="M146.436 57.3261L146.455 72.993L153.163 76.7984L140.689 85.0673L128.208 62.3893L134.948 66.3495L134.929 50.6826L146.436 57.3261Z" fill="#455A64"/>
<path d="M148.977 55.8613L146.436 57.3255L146.455 72.9924L148.996 71.5282L148.977 55.8613Z" fill="#263238"/>
<path d="M200.963 70.7879L164.598 49.7933L167.63 6.0498L200.963 25.2964V70.7879Z" fill="#2B2F7E"/>
<path opacity="0.6" d="M200.963 70.7879L164.598 49.7933L167.63 6.0498L200.963 25.2964V70.7879Z" fill="white"/>
<path d="M200.963 25.2967V21.7944L210.058 20.0464L176.724 0.799805L173.693 6.05006H167.63L200.963 25.2967Z" fill="#2B2F7E"/>
<path opacity="0.3" d="M200.963 25.2967V21.7944L210.058 20.0464L176.724 0.799805L173.693 6.05006H167.63L200.963 25.2967Z" fill="white"/>
<path d="M176.724 0.799805V11.3003L173.693 9.55238V6.05006L176.724 0.799805Z" fill="#2B2F7E"/>
<path opacity="0.1" d="M176.724 0.799805V11.3003L173.693 9.55238V6.05006L176.724 0.799805Z" fill="black"/>
<path d="M167.63 6.0498H173.693V9.55212L167.63 6.0498Z" fill="#2B2F7E"/>
<path opacity="0.2" d="M167.63 6.0498H173.693V9.55212L167.63 6.0498Z" fill="black"/>
<path d="M210.058 20.0469L213.089 63.7904L200.963 70.7886V25.2971V21.7948L210.058 20.0469Z" fill="#2B2F7E"/>
<path opacity="0.1" d="M210.058 20.0469L213.089 63.7904L200.963 70.7886V25.2971V21.7948L210.058 20.0469Z" fill="black"/>
<path d="M200.963 21.7949L207.026 67.2864L200.963 70.7887V21.7949Z" fill="#2B2F7E"/>
<path opacity="0.2" d="M200.963 21.7949L207.026 67.2864L200.963 70.7887V21.7949Z" fill="black"/>
<path d="M200.963 70.789L206.523 63.4941L213.089 63.7908L200.963 70.789Z" fill="#2B2F7E"/>
<path d="M200.228 19.582C200.228 20.1754 199.815 20.4205 199.299 20.1238C199.028 19.9458 198.801 19.7067 198.639 19.4255C198.477 19.1444 198.382 18.829 198.364 18.5049C198.364 17.9115 198.783 17.6664 199.299 17.9631C199.57 18.1414 199.795 18.3807 199.956 18.6619C200.118 18.9431 200.211 19.2583 200.228 19.582Z" fill="#37474F"/>
<path d="M187.825 12.5849C187.825 13.1783 187.406 13.4234 186.89 13.1203C186.618 12.9441 186.391 12.7062 186.229 12.426C186.066 12.1458 185.972 11.8312 185.954 11.5078C185.954 10.9144 186.374 10.6693 186.89 10.966C187.161 11.1436 187.388 11.3826 187.55 11.6639C187.713 11.9451 187.807 12.2606 187.825 12.5849Z" fill="#37474F"/>
<path d="M199.299 18.9053C199.381 18.9036 199.458 18.8705 199.516 18.8128C199.574 18.755 199.607 18.6773 199.609 18.5957V10.9525C199.609 7.61786 196.758 3.26415 193.249 1.23887C191.314 0.110127 189.444 -0.10917 188.16 0.632573C187.135 1.21952 186.573 2.36761 186.573 3.85754V11.5975C186.575 11.6802 186.609 11.7589 186.668 11.8168C186.727 11.8747 186.807 11.9071 186.889 11.9071C186.972 11.9071 187.05 11.8745 187.108 11.8164C187.166 11.7583 187.199 11.6796 187.199 11.5975V3.85754C187.199 2.56756 187.644 1.63876 188.489 1.16147C189.573 0.516474 191.204 0.755121 192.952 1.76776C196.287 3.70274 199.002 7.80491 199.002 10.9396V18.5957C199.004 18.6751 199.035 18.7511 199.09 18.8085C199.145 18.8658 199.22 18.9004 199.299 18.9053Z" fill="#37474F"/>
<path d="M191.011 24.833C191.011 25.4264 190.592 25.665 190.076 25.3683C189.804 25.1921 189.578 24.9543 189.415 24.6741C189.253 24.3939 189.158 24.0793 189.141 23.7558C189.141 23.1624 189.56 22.9173 190.076 23.214C190.348 23.3916 190.574 23.6307 190.737 23.9119C190.899 24.1932 190.993 24.5087 191.011 24.833Z" fill="#455A64"/>
<path d="M178.588 17.8332C178.588 18.4265 178.169 18.6652 177.653 18.3685C177.381 18.1923 177.155 17.9544 176.992 17.6742C176.83 17.394 176.736 17.0794 176.718 16.756C176.718 16.1562 177.137 15.9175 177.653 16.2142C177.926 16.391 178.153 16.6299 178.315 16.9113C178.478 17.1927 178.571 17.5086 178.588 17.8332Z" fill="#455A64"/>
<path d="M190.063 24.1562C190.143 24.1546 190.219 24.1221 190.275 24.0656C190.332 24.0091 190.364 23.9329 190.366 23.8531V16.197C190.366 12.8688 187.515 8.5151 184.006 6.52207C182.071 5.39333 180.201 5.17403 178.917 5.91578C177.898 6.50272 177.337 7.65081 177.337 9.14075V16.8807C177.336 16.9219 177.344 16.9628 177.359 17.0011C177.374 17.0394 177.397 17.0743 177.426 17.1038C177.454 17.1332 177.489 17.1566 177.527 17.1726C177.565 17.1885 177.606 17.1967 177.647 17.1967C177.688 17.1967 177.729 17.1885 177.768 17.1727C177.806 17.1568 177.841 17.1335 177.87 17.1042C177.9 17.0748 177.923 17.04 177.939 17.0016C177.955 16.9633 177.963 16.9222 177.963 16.8807V9.14075C177.963 7.85076 178.401 6.92842 179.253 6.45112C180.336 5.80613 181.962 6.04477 183.716 7.05742C187.051 8.9924 189.76 13.0946 189.76 16.2228V23.8531C189.763 23.9324 189.796 24.0077 189.852 24.0639C189.908 24.1201 189.983 24.153 190.063 24.1562Z" fill="#455A64"/>
<path d="M52.7822 181.569C35.1386 181.569 20.8356 173.311 20.8356 163.123C20.8356 152.935 35.1386 144.676 52.7822 144.676C70.4258 144.676 84.7288 152.935 84.7288 163.123C84.7288 173.311 70.4258 181.569 52.7822 181.569Z" fill="#E0E0E0"/>
<path d="M65.7272 49.0701C67.6041 53.1078 70.8162 59.7899 72.577 63.4922L79.4656 55.3782H85.2705C85.2705 55.3782 78.3046 70.213 74.1508 73.6831C73.8258 73.9882 73.442 74.2238 73.0228 74.3754C72.6036 74.5271 72.1579 74.5916 71.7129 74.565C71.2679 74.5385 70.833 74.4214 70.4348 74.2209C70.0367 74.0205 69.6836 73.7409 69.3972 73.3993C67.7046 71.3527 66.1469 69.1981 64.7339 66.9494C61.4444 61.8668 59.9738 59.6738 59.9738 59.6738L55.833 42.259C59.4321 41.9881 63.1214 43.4651 65.7272 49.0701Z" fill="#FFA8A7"/>
<path d="M55.1428 42.2401C57.3552 42.1563 59.761 41.8789 61.8701 43.7236C63.8875 45.4847 65.4647 47.6936 66.4754 50.1735C67.9008 53.5275 70.1067 57.778 70.1067 57.778C68.9723 59.4276 67.5783 60.8826 65.9787 62.0866C64.5354 63.2018 62.8255 63.92 61.0187 64.1699L55.1428 42.2401Z" fill="#2B2F7E"/>
<path opacity="0.45" d="M55.1428 42.2401C57.3552 42.1563 59.761 41.8789 61.8701 43.7236C63.8875 45.4847 65.4647 47.6936 66.4754 50.1735C67.9008 53.5275 70.1067 57.778 70.1067 57.778C68.9723 59.4276 67.5783 60.8826 65.9787 62.0866C64.5354 63.2018 62.8255 63.92 61.0187 64.1699L55.1428 42.2401Z" fill="black"/>
<path d="M72.5771 63.4933C71.8005 64.4037 71.0913 65.3694 70.4551 66.3829C70.4551 66.3829 71.1968 63.6481 72.203 62.7129L72.5771 63.4933Z" fill="#F28F8F"/>
<path d="M86.9927 44.5999L86.4444 44.0258C86.3597 43.9576 86.26 43.9103 86.1535 43.8878C86.047 43.8654 85.9368 43.8685 85.8317 43.8968L79.1624 45.032C78.8245 45.1078 78.507 45.2561 78.232 45.4666C77.9569 45.677 77.7308 45.9447 77.5693 46.2511L71.5709 59.2864C71.5029 59.391 71.4667 59.5131 71.4667 59.6379C71.4667 59.7627 71.5029 59.8848 71.5709 59.9894L72.1385 60.5828C72.2265 60.6568 72.3317 60.7075 72.4444 60.73C72.5572 60.7526 72.6738 60.7463 72.7835 60.7118L79.4269 59.5831C79.7653 59.5062 80.0829 59.3568 80.358 59.1452C80.633 58.9336 80.8589 58.6649 81.02 58.3576L87.0185 45.3223C87.1668 44.9998 87.1668 44.7418 86.9927 44.5999Z" fill="#455A64"/>
<path d="M72.1385 59.8739L78.1369 46.8321C78.2991 46.5262 78.5254 46.259 78.8004 46.0486C79.0753 45.8382 79.3924 45.6896 79.73 45.613L86.3993 44.4907C87.0443 44.3875 87.3023 44.7616 87.0443 45.3357L81.0458 58.371C80.8847 58.6783 80.6588 58.947 80.3838 59.1586C80.1087 59.3702 79.7911 59.5196 79.4527 59.5965L72.7834 60.7252C72.1643 60.822 71.874 60.4414 72.1385 59.8739Z" fill="#263238"/>
<path d="M78.9818 45.917C78.62 46.142 78.3258 46.4607 78.1304 46.8393L72.132 59.8682C72.0679 59.9707 72.0339 60.0892 72.0339 60.21C72.0339 60.3309 72.0679 60.4494 72.132 60.5519L71.5966 59.9972C71.5299 59.8933 71.4945 59.7724 71.4945 59.6489C71.4945 59.5254 71.5299 59.4045 71.5966 59.3006L77.5951 46.2653C77.775 45.91 78.0467 45.6094 78.382 45.3945L78.9818 45.917Z" fill="#37474F"/>
<path d="M83.8386 57.4956C86.5992 54.3287 86.5218 50.362 85.2512 49.2139L84.4127 51.0457C84.4127 51.0457 80.188 51.9873 78.1562 51.8325C76.1245 51.6777 74.4669 51.1875 73.9122 51.5874C72.7319 52.4195 72.39 55.9541 75.7698 57.244C78.64 58.3341 83.8386 57.4956 83.8386 57.4956Z" fill="#FFA8A7"/>
<path d="M35.303 161.565C37.0896 162.526 39.2632 162.449 41.3788 161.565L42.2625 150.007L35.303 150.916V161.565Z" fill="#FFA8A7"/>
<path d="M56.6329 154.656C58.1357 157.914 60.8576 157.011 63.9213 154.927L63.3795 143.317H55.9944L56.6329 154.656Z" fill="#FFA8A7"/>
<path d="M48.3189 172.505C48.5008 173.091 48.4734 173.723 48.2415 174.291C48.0093 174.652 46.6806 175.794 44.2683 175.962C41.9657 176.129 39.9082 175.82 38.5601 174.962C37.2121 174.104 36.5542 173.156 36.4252 171.847C36.2962 170.537 36.4252 169.267 35.8189 168.254C35.2126 167.241 34.3225 166.274 34.1226 165.771C33.8846 164.897 33.8846 163.975 34.1226 163.101L48.3189 172.505Z" fill="#263238"/>
<path d="M42.0173 161.055C42.0529 161.55 42.1459 162.039 42.2947 162.512C42.6498 163.528 43.124 164.498 43.7072 165.402C43.9988 165.873 44.3198 166.326 44.6682 166.756C45.3648 167.582 46.2291 168.259 46.9644 169.059C47.7534 169.806 48.2575 170.805 48.3899 171.884C48.4866 173.69 46.5258 174.303 45.0165 174.574C43.3847 174.858 41.71 174.774 40.1146 174.329C39.2769 174.109 38.5202 173.652 37.9347 173.014C37.3491 172.376 36.9595 171.583 36.8122 170.73C36.7284 170.226 36.7606 169.71 36.6961 169.207C36.495 168.055 36.0144 166.97 35.2965 166.047C34.8754 165.516 34.5142 164.941 34.2193 164.331C33.7485 163.209 34.1226 161.951 34.4257 160.842C34.6837 159.881 34.9804 158.791 35.3158 158.907C35.295 159.104 35.3239 159.304 35.3997 159.487C35.5105 159.665 35.5993 159.856 35.6641 160.055C35.7322 160.31 35.8229 160.558 35.935 160.797C36.1037 161.169 36.3859 161.478 36.7413 161.68C36.7413 161.035 36.7864 160.319 36.8058 159.636C36.7893 159.424 36.8437 159.213 36.9606 159.036C37.1207 158.89 37.325 158.801 37.5411 158.784C38.807 158.48 40.1125 158.373 41.411 158.468C41.5085 158.464 41.6056 158.483 41.695 158.522C41.7843 158.561 41.8637 158.62 41.927 158.694C42.0052 158.833 42.0368 158.994 42.0173 159.152C41.9827 159.786 41.9827 160.421 42.0173 161.055Z" fill="#37474F"/>
<path d="M43.9524 165.75C43.3074 165.247 41.7723 165.24 40.9467 165.331C40.11 165.403 39.3049 165.685 38.6054 166.15C38.5029 166.224 38.3773 166.26 38.2509 166.251C38.1245 166.241 38.0056 166.187 37.9153 166.098C37.8636 166.047 37.8235 165.985 37.7977 165.917C37.772 165.849 37.7612 165.776 37.7661 165.703C37.771 165.63 37.7915 165.559 37.8261 165.495C37.8607 165.431 37.9087 165.375 37.9669 165.331C38.7364 164.762 39.6508 164.422 40.6049 164.35C42.6302 164.208 43.2236 164.557 43.2236 164.557C43.2236 164.557 44.1395 165.176 43.9524 165.75Z" fill="#F5F5F5"/>
<path d="M45.4874 167.628C44.636 167.131 42.9848 167.202 42.1592 167.286C41.3373 167.373 40.5524 167.673 39.8824 168.157C39.7796 168.232 39.6532 168.267 39.5265 168.256C39.3997 168.246 39.281 168.19 39.1922 168.099C39.1384 168.048 39.0965 167.987 39.0695 167.918C39.0425 167.85 39.031 167.776 39.036 167.703C39.0409 167.629 39.0621 167.558 39.0981 167.493C39.134 167.429 39.1838 167.374 39.2438 167.331C40.0253 166.738 40.9567 166.374 41.9334 166.28C43.9587 166.138 44.5134 166.551 44.5134 166.551C44.7461 166.646 44.9544 166.792 45.123 166.978C45.2916 167.165 45.4161 167.387 45.4874 167.628Z" fill="#F5F5F5"/>
<path d="M39.7857 162.442C40.6389 162.288 41.5176 162.361 42.3334 162.655C42.6882 162.855 42.9268 163.416 42.6946 163.558C41.9786 163.272 41.2036 163.166 40.4371 163.248C39.6771 163.324 38.9355 163.529 38.2442 163.854C38.07 163.932 37.8636 164.035 37.683 164.138C37.6272 164.167 37.5661 164.185 37.5034 164.19C37.4407 164.196 37.3775 164.188 37.3176 164.169C37.2576 164.15 37.2021 164.119 37.1541 164.078C37.1061 164.038 37.0667 163.988 37.038 163.932C36.9884 163.831 36.9787 163.715 37.011 163.607C37.0433 163.5 37.1152 163.408 37.2122 163.351C37.9957 162.869 38.873 162.559 39.7857 162.442Z" fill="#F5F5F5"/>
<path d="M76.0214 162.088C76.1965 162.615 76.1642 163.19 75.9311 163.694C75.7053 164.165 73.2479 165.552 69.9327 165.326C67.4763 165.156 65.1105 164.33 63.0828 162.933C61.7928 162.094 60.5028 161.94 58.8646 161.843C57.2263 161.746 55.0655 160.933 54.7108 160.166C54.5228 159.479 54.5407 158.753 54.7624 158.076L76.0214 162.088Z" fill="#263238"/>
<path d="M62.7023 151.896L63.5601 151.561C63.7116 151.484 63.8862 151.466 64.0503 151.509C64.2632 151.587 64.347 151.838 64.4051 152.058C64.482 152.547 64.6029 153.028 64.7663 153.496C65.0103 153.877 65.3256 154.208 65.6951 154.47C66.5166 155.131 67.4051 155.703 68.346 156.179C69.4296 156.76 70.4874 157.211 71.6097 157.714C72.732 158.217 74.2606 158.54 75.1507 159.146C76.4407 160.023 76.6213 162.223 75.1507 163.093C73.8607 163.842 70.5132 164.654 66.9851 163.655C65.0501 163.113 62.9345 161.075 60.4126 160.862C58.8065 160.739 55.7751 160.288 54.7431 159.069C54.3625 158.527 54.8721 156.818 55.2849 155.341C55.7428 153.722 55.9299 151.2 56.4523 151.342C56.491 151.877 56.9554 152.193 57.2392 152.632C57.4608 153.048 57.6526 153.479 57.8132 153.922C57.9736 154.366 58.2662 154.751 58.6517 155.025C58.8448 155.156 59.0756 155.22 59.3087 155.207C59.5418 155.194 59.7643 155.105 59.9417 154.954C60.4126 154.463 60.1352 153.606 60.4771 153.019C60.7555 152.648 61.1547 152.385 61.6058 152.277L62.7023 151.896Z" fill="#37474F"/>
<path d="M66.8497 155.327C66.7331 155.107 66.5637 154.919 66.3565 154.781C66.1493 154.642 65.911 154.557 65.6629 154.534C64.934 154.398 63.6441 154.934 62.8443 155.598C62.7675 155.659 62.7072 155.739 62.6687 155.829C62.6302 155.919 62.6147 156.018 62.6236 156.116C62.6326 156.214 62.6657 156.308 62.7199 156.39C62.7742 156.471 62.8479 156.539 62.9346 156.585C63.0424 156.645 63.1662 156.669 63.2888 156.655C63.4113 156.642 63.5265 156.59 63.6182 156.508C64.5007 155.708 65.66 155.285 66.8497 155.327Z" fill="#F5F5F5"/>
<path d="M69.1071 156.592C68.9478 156.367 68.737 156.184 68.4922 156.059C68.2475 155.933 67.9762 155.868 67.701 155.869C66.5777 155.921 65.4991 156.325 64.618 157.024C64.5447 157.083 64.4871 157.16 64.45 157.246C64.4129 157.333 64.3975 157.427 64.4051 157.521C64.4127 157.615 64.4431 157.706 64.4937 157.786C64.5443 157.865 64.6135 157.931 64.6954 157.978C64.797 158.035 64.9136 158.058 65.0292 158.045C65.1447 158.033 65.2534 157.985 65.3404 157.907C65.8285 157.418 66.4209 157.046 67.0731 156.818C67.7254 156.59 68.4207 156.513 69.1071 156.592Z" fill="#F5F5F5"/>
<path d="M71.6097 157.733C71.4265 157.528 71.2017 157.365 70.9503 157.253C70.699 157.142 70.4268 157.086 70.152 157.088C69.0683 157.153 68.0335 157.562 67.1979 158.255C67.1247 158.315 67.067 158.391 67.0299 158.478C66.9929 158.565 66.9774 158.659 66.9851 158.753C66.9927 158.847 67.0231 158.938 67.0737 159.017C67.1243 159.097 67.1935 159.163 67.2753 159.21C67.3781 159.264 67.4947 159.285 67.6098 159.271C67.725 159.257 67.8332 159.209 67.9203 159.133C68.3838 158.628 68.9587 158.239 69.5993 157.996C70.2398 157.753 70.9282 157.663 71.6097 157.733Z" fill="#F5F5F5"/>
<path d="M36.2124 74.5612C35.7996 87.2096 35.8319 117.776 35.8319 117.776C35.6964 119.35 35.0579 122.581 34.5419 128.876C33.8582 137.074 35.3353 155.089 35.3353 155.089C36.3762 155.542 37.4983 155.779 38.6336 155.786C39.769 155.792 40.8938 155.568 41.94 155.127C41.94 155.127 45.8873 129.476 47.1128 121.375C48.2158 114.28 50.3765 98.2583 50.3765 98.2583L52.8726 119.053C52.5302 122.516 52.6147 126.008 53.1242 129.45C53.7047 133.178 56.2846 148.503 56.2846 148.503C58.7034 149.112 61.2459 149.016 63.6118 148.226C63.6118 148.226 63.8504 121.672 63.9214 118.221C63.9923 114.28 62.1734 71.4395 62.1734 71.4395L36.2124 74.5612Z" fill="#37474F"/>
<path d="M50.4023 98.2579L52.2728 87.8928C52.2728 87.8928 57.4328 87.4413 60.3223 84.5518C60.3223 84.5518 59.8128 87.3833 53.2919 89.0667L51.4279 99.5543L52.8984 119.033L50.4023 98.2579Z" fill="#263238"/>
<path d="M61.5348 51.9793C60.9801 47.9287 60.4447 42.4849 54.1689 42.2334L46.0678 42.6204C44.0748 43.1428 36.322 44.0587 36.322 44.0587L36.1736 61.6284C36.1736 61.6284 35.6834 74.2961 35.8317 81.075C41.6367 84.7514 54.2463 85.9447 62.1733 79.9269C62.412 74.3348 62.0895 55.9911 61.5348 51.9793Z" fill="#FAFAFA"/>
<path d="M60.4963 21.3936C61.0405 22.3531 61.3808 23.4145 61.496 24.5115C61.6112 25.6085 61.4988 26.7175 61.1659 27.7691C60.8329 28.8206 60.2865 29.7922 59.5609 30.6229C58.8353 31.4537 57.9461 32.1258 56.9489 32.5972L58.4065 33.6034L43.8426 34.8934L44.0296 38.4021C43.3798 38.2253 42.8231 37.8049 42.4752 37.2282C41.9527 36.293 40.5402 30.5526 40.5402 30.5526C39.1728 27.4179 38.502 24.1929 39.4824 23.1222C39.8665 22.6977 40.3741 22.4044 40.9337 22.2837L38.9987 21.3098C39.0832 21.1179 39.2058 20.9451 39.3588 20.8019C39.5119 20.6586 39.6924 20.5477 39.8895 20.476C40.0865 20.4043 40.296 20.3732 40.5054 20.3846C40.7148 20.396 40.9197 20.4496 41.1078 20.5422C41.2718 20.6258 41.4202 20.7371 41.5464 20.8712C41.4969 20.6591 41.4646 20.4434 41.4496 20.2262C41.3847 19.5865 41.5369 18.9435 41.8818 18.4009C42.16 18.0362 42.5088 17.7313 42.9073 17.5043C44.5456 16.4788 46.4871 16.0982 48.3124 15.4532C49.3444 15.0856 50.3441 14.6341 51.3632 14.2213C52.0253 13.8901 52.7685 13.7558 53.5046 13.8343C53.8758 13.8959 54.2073 14.1025 54.4262 14.4085C54.6451 14.7145 54.7335 15.0949 54.672 15.4661C55.0723 15.1025 55.5711 14.865 56.1057 14.7836C56.6404 14.7021 57.1872 14.7802 57.6777 15.0082C58.1404 15.2001 58.5312 15.5324 58.7951 15.9583C59.0589 16.3841 59.1825 16.882 59.1483 17.3818C59.8089 17.2175 60.5059 17.2858 61.122 17.5753C61.4268 17.722 61.681 17.9562 61.8521 18.248C62.0233 18.5397 62.1037 18.8759 62.083 19.2136C61.8289 20.1052 61.2667 20.8777 60.4963 21.3936Z" fill="#37474F"/>
<path d="M50.2408 23.4449C48.8992 23.2836 47.5706 23.0643 46.2419 22.858C46.1828 22.8405 46.1208 22.8356 46.0598 22.8433C45.9987 22.8511 45.9399 22.8715 45.8871 22.9031C45.8299 22.9562 45.7915 23.0263 45.7775 23.103C44.9003 25.683 44.9261 28.4243 44.2295 31.0236C44.165 31.2622 44.0166 31.6686 43.7328 31.6686C43.2169 31.7266 42.8621 31.2687 42.6428 30.8688L42.1462 29.9722C42.0434 29.8047 41.9198 29.6509 41.7785 29.5143C41.1335 28.9402 39.3082 28.2243 38.4503 30.198C37.5925 32.1717 39.4307 34.829 40.9142 35.2418C43.4942 35.9578 43.8102 34.313 43.8102 34.313L44.3004 43.472C46.5708 45.8455 54.0334 45.02 52.5564 42.956L52.4596 40.1696C53.5977 40.3154 54.7482 40.337 55.891 40.2341C57.7486 39.8858 58.8709 38.3765 59.374 36.3641C60.1802 33.0876 60.0899 29.0821 59.4578 24.1092C59.3805 23.5198 59.2266 22.9431 58.9998 22.3936C56.3876 23.8512 53.2078 23.7996 50.2408 23.4449Z" fill="#FFA8A7"/>
<path d="M52.4596 40.2018C52.4596 40.2018 48.2607 39.4988 46.7772 38.7699C45.9057 38.3491 45.1817 37.6746 44.7004 36.835C44.9485 37.6803 45.363 38.4675 45.9194 39.1505C47.0288 40.4792 52.4919 41.3048 52.4919 41.3048L52.4596 40.2018Z" fill="#F28F8F"/>
<path d="M51.8599 29.8688C51.8585 30.0448 51.8054 30.2164 51.7073 30.3624C51.6091 30.5084 51.4701 30.6222 51.3077 30.6898C51.1452 30.7574 50.9665 30.7756 50.7938 30.7424C50.621 30.7091 50.4619 30.6257 50.3362 30.5027C50.2104 30.3796 50.1237 30.2222 50.0868 30.0502C50.0498 29.8782 50.0643 29.6991 50.1284 29.5353C50.1926 29.3715 50.3035 29.2301 50.4473 29.1289C50.5912 29.0276 50.7617 28.9709 50.9375 28.9658C51.1793 28.9641 51.412 29.0581 51.5848 29.2272C51.7576 29.3964 51.8565 29.627 51.8599 29.8688Z" fill="#263238"/>
<path d="M50.615 26.1402L48.7381 26.9465C48.6352 26.6909 48.6347 26.4055 48.7368 26.1496C48.8389 25.8938 49.0357 25.6871 49.2863 25.5726C49.4105 25.5196 49.5441 25.4922 49.6791 25.4922C49.8141 25.4922 49.9478 25.5195 50.0719 25.5726C50.1961 25.6256 50.3082 25.7032 50.4015 25.8008C50.4949 25.8984 50.5675 26.0138 50.615 26.1402Z" fill="#263238"/>
<path d="M50.7762 34.7383L53.7174 35.738C53.6608 35.9344 53.5652 36.1174 53.4364 36.276C53.3076 36.4347 53.1481 36.5658 52.9676 36.6615C52.787 36.7572 52.589 36.8155 52.3854 36.8331C52.1818 36.8506 51.9767 36.827 51.7824 36.7636C51.3846 36.6227 51.0571 36.3326 50.8694 35.9546C50.6816 35.5766 50.6482 35.1404 50.7762 34.7383Z" fill="#B16668"/>
<path d="M51.776 36.7516C51.5257 36.6649 51.3011 36.5167 51.1231 36.3206C50.945 36.1245 50.8191 35.8868 50.7569 35.6293C50.9527 35.536 51.169 35.4936 51.3855 35.506C51.6021 35.5185 51.8121 35.5853 51.996 35.7004C52.1799 35.8155 52.3318 35.9751 52.4376 36.1645C52.5435 36.3539 52.5999 36.5669 52.6016 36.7838C52.3291 36.8537 52.0422 36.8425 51.776 36.7516Z" fill="#F28F8F"/>
<path d="M59.3159 26.8946L57.4455 26.1787C57.4895 26.0542 57.5586 25.9401 57.6484 25.8434C57.7383 25.7466 57.847 25.6693 57.9678 25.6161C58.0886 25.5629 58.2191 25.5351 58.3511 25.5342C58.4831 25.5333 58.6139 25.5595 58.7355 25.6111C58.9778 25.7104 59.173 25.8987 59.2809 26.1374C59.3889 26.3761 59.4014 26.647 59.3159 26.8946Z" fill="#263238"/>
<path d="M58.658 29.8694C58.6567 30.0466 58.6032 30.2195 58.5043 30.3666C58.4055 30.5136 58.2655 30.6283 58.1019 30.6963C57.9382 30.7644 57.7582 30.7828 57.5842 30.7493C57.4102 30.7158 57.2499 30.6318 57.1233 30.5078C56.9967 30.3838 56.9094 30.2253 56.8722 30.0521C56.835 29.8788 56.8496 29.6984 56.9142 29.5334C56.9788 29.3684 57.0905 29.2261 57.2354 29.1241C57.3804 29.0221 57.5521 28.9651 57.7292 28.96C57.9727 28.9583 58.2071 29.0529 58.3811 29.2233C58.5551 29.3937 58.6546 29.6259 58.658 29.8694Z" fill="#263238"/>
<path d="M54.2721 29.5918L54.4075 34.5454L57.1681 33.7456L54.5881 29.5531C54.4812 29.543 54.3734 29.5562 54.2721 29.5918Z" fill="#F28F8F"/>
<path d="M62.5216 57.0167C62.3087 51.889 61.8766 47.3418 59.9932 44.9489C58.1098 42.5559 57.0584 42.0851 52.5306 42.156V42.4656C52.7882 42.4817 53.0386 42.5569 53.2624 42.6856C53.4861 42.8143 53.6771 42.9928 53.8206 43.2074C55.3868 45.5852 56.5626 48.1981 57.3036 50.9473C58.5935 55.9331 58.8451 67.0722 58.916 73.0642C58.987 79.0562 58.916 83.8936 58.916 83.8936C58.916 83.8936 61.9475 83.1841 62.8828 81.6684C62.8828 81.6684 62.7409 62.1509 62.5216 57.0167Z" fill="#2B2F7E"/>
<path opacity="0.35" d="M62.5216 57.0167C62.3087 51.889 61.8766 47.3418 59.9932 44.9489C58.1098 42.5559 57.0584 42.0851 52.5306 42.156V42.4656C52.7882 42.4817 53.0386 42.5569 53.2624 42.6856C53.4861 42.8143 53.6771 42.9928 53.8206 43.2074C55.3868 45.5852 56.5626 48.1981 57.3036 50.9473C58.5935 55.9331 58.8451 67.0722 58.916 73.0642C58.987 79.0562 58.916 83.8936 58.916 83.8936C58.916 83.8936 61.9475 83.1841 62.8828 81.6684C62.8828 81.6684 62.7409 62.1509 62.5216 57.0167Z" fill="black"/>
<path d="M46.8676 48.8513C46.2226 46.1166 44.8874 44.3364 44.2876 42.9238L38.6245 43.7236C36.5412 44.6847 33.8322 46.9486 34.0322 49.2706L35.5157 66.0791L35.1029 81.9976C38.3278 87.0221 48.0028 86.0933 48.0028 86.0933C48.0028 86.0933 48.2801 78.9339 47.9705 65.1052C47.777 57.3524 47.6867 52.3343 46.8676 48.8513Z" fill="#2B2F7E"/>
<path opacity="0.35" d="M46.8676 48.8513C46.2226 46.1166 44.8874 44.3364 44.2876 42.9238L38.6245 43.7236C36.5412 44.6847 33.8322 46.9486 34.0322 49.2706L35.5157 66.0791L35.1029 81.9976C38.3278 87.0221 48.0028 86.0933 48.0028 86.0933C48.0028 86.0933 48.2801 78.9339 47.9705 65.1052C47.777 57.3524 47.6867 52.3343 46.8676 48.8513Z" fill="black"/>
<path d="M47.132 50.1989C46.7579 48.4445 46.558 45.1809 46.2484 44.523C45.9388 43.8651 44.2553 42.588 44.1908 41.6785V41.1045C43.6581 41.2075 43.1659 41.4603 42.7719 41.8333C42.243 42.3042 40.6821 43.3942 40.6821 43.3942C40.8368 44.4771 41.2384 45.5099 41.856 46.4128C42.7848 47.7479 44.0748 48.6187 44.2747 48.2897C44.4746 47.9608 44.4424 47.4577 44.7843 46.6837C45.2099 45.7098 45.3131 45.297 45.7646 46.258C46.1 47.0255 47.132 50.1989 47.132 50.1989Z" fill="#37474F"/>
<path d="M56.7876 49.2381C57.2456 50.7216 56.0394 44.1168 55.2525 42.9559C54.4656 41.7949 52.4662 41.3369 52.4662 41.3369L52.55 42.7624C53.0763 42.8871 53.5366 43.2048 53.84 43.6524C55.0625 45.3775 56.0535 47.2554 56.7876 49.2381Z" fill="#37474F"/>
<path d="M47.3385 51.5859C43.0057 52.029 38.6996 52.7029 34.4386 53.6048L34.4838 54.0821C38.755 53.1752 43.0719 52.4992 47.4159 52.0568C47.3707 51.9149 47.3578 51.7536 47.3385 51.5859Z" fill="#2B2F7E"/>
<path d="M62.1217 51.4956C60.7092 51.3279 59.1032 51.1796 57.3423 51.0957L57.4584 51.5794C59.1999 51.6633 60.7866 51.8116 62.1733 51.9793C62.1604 51.8181 62.1411 51.6504 62.1217 51.4956Z" fill="#2B2F7E"/>
<path d="M23.4672 66.3831C29.5172 51.0193 30.8395 46.2399 35.1093 44.4533C36.2345 44.0209 37.4208 43.7684 38.6246 43.7051C39.6759 45.6401 41.2045 53.0704 36.1607 58.2433C36.1607 58.2433 32.4971 67.2732 30.6524 71.543C30.7105 75.8387 30.4009 79.4184 31.7102 85.2234C31.9765 86.0077 32.4874 86.686 33.1679 87.1583C34.703 88.0033 34.961 88.9579 36.0962 90.0479C36.9798 90.8993 37.7538 91.0993 37.6248 91.383C37.4251 91.6969 37.126 91.9348 36.7753 92.0587C36.4245 92.1826 36.0424 92.1855 35.6898 92.0667C34.8594 91.7269 34.0626 91.3101 33.3098 90.8219C33.1615 90.9961 34.5998 93.2858 36.0897 94.9563C38.3021 97.4137 38.8374 99.1875 34.4192 99.3616C31.6522 99.4713 28.6659 97.2009 26.7889 91.6862C26.4213 90.5962 26.0343 89.0224 25.6408 87.4873C25.357 86.8423 23.3317 76.4837 22.906 73.2974C22.3385 69.363 22.4804 68.8792 23.4672 66.3831Z" fill="#FFA8A7"/>
<path d="M39.3792 43.7234C37.5379 43.4611 35.6609 43.7909 34.0193 44.6651C31.6263 46.1099 30.7943 47.3741 27.9112 54.0949C25.028 60.8157 24.4604 62.1122 24.4604 62.1122C24.4604 62.1122 25.7504 65.9435 33.4517 66.382L36.9024 58.5131C36.9024 58.5131 39.7662 54.9463 40.0306 50.541C40.2951 46.1357 39.3792 43.7234 39.3792 43.7234Z" fill="#2B2F7E"/>
<path opacity="0.45" d="M39.3792 43.7234C37.5379 43.4611 35.6609 43.7909 34.0193 44.6651C31.6263 46.1099 30.7943 47.3741 27.9112 54.0949C25.028 60.8157 24.4604 62.1122 24.4604 62.1122C24.4604 62.1122 25.7504 65.9435 33.4517 66.382L36.9024 58.5131C36.9024 58.5131 39.7662 54.9463 40.0306 50.541C40.2951 46.1357 39.3792 43.7234 39.3792 43.7234Z" fill="black"/>
<path d="M241 201.022L255.243 192.804L275.179 204.311L260.937 212.537L241 201.022Z" fill="#F5F5F5"/>
<path d="M260.937 245.425L241 233.917V201.021L260.937 212.536V245.425Z" fill="#EBEBEB"/>
<path d="M257.648 238.884C257.737 238.886 257.825 238.861 257.9 238.814C258.01 238.735 258.098 238.629 258.155 238.506C258.211 238.383 258.235 238.247 258.223 238.112V236.009V235.854H258.118L256.477 234.894V237.229C256.48 237.529 256.555 237.825 256.695 238.09C256.836 238.356 257.037 238.585 257.283 238.757C257.392 238.831 257.517 238.874 257.648 238.884ZM257.956 236.17V238.105C257.969 238.195 257.959 238.287 257.926 238.372C257.892 238.457 257.838 238.532 257.767 238.589C257.71 238.612 257.648 238.62 257.586 238.612C257.525 238.605 257.467 238.583 257.416 238.547C257.206 238.401 257.034 238.207 256.912 237.982C256.79 237.756 256.723 237.506 256.715 237.25V237.081H257.325L257.445 236.261L257.956 236.17ZM257.115 236.815H256.736V235.37L257.718 235.945L257.234 236.03L257.115 236.815Z" fill="white"/>
<path d="M257.346 240.552C257.382 240.552 257.416 240.538 257.441 240.513C257.466 240.488 257.48 240.454 257.48 240.419V238.659C257.48 238.641 257.476 238.624 257.469 238.609C257.463 238.593 257.453 238.579 257.44 238.567C257.428 238.555 257.413 238.546 257.397 238.54C257.381 238.534 257.363 238.531 257.346 238.532C257.313 238.532 257.281 238.546 257.257 238.569C257.233 238.593 257.22 238.625 257.22 238.659V240.419C257.22 240.453 257.233 240.486 257.257 240.511C257.28 240.535 257.312 240.55 257.346 240.552Z" fill="white"/>
<path d="M258.111 240.987C258.133 240.988 258.156 240.983 258.176 240.971C258.196 240.96 258.212 240.944 258.223 240.923C258.233 240.909 258.24 240.893 258.243 240.875C258.247 240.858 258.246 240.84 258.242 240.823C258.238 240.806 258.231 240.79 258.22 240.776C258.21 240.761 258.196 240.75 258.181 240.741L256.652 239.865C256.637 239.856 256.62 239.85 256.603 239.848C256.585 239.846 256.568 239.847 256.551 239.851C256.534 239.856 256.518 239.864 256.504 239.874C256.49 239.885 256.478 239.898 256.47 239.914C256.461 239.928 256.456 239.945 256.453 239.961C256.451 239.978 256.452 239.995 256.457 240.012C256.462 240.028 256.469 240.043 256.48 240.057C256.491 240.07 256.504 240.081 256.519 240.089L258.048 240.973C258.067 240.984 258.089 240.989 258.111 240.987Z" fill="white"/>
<path d="M252.669 237.964C252.72 237.964 252.771 237.952 252.816 237.929C252.867 237.894 252.909 237.847 252.936 237.792C252.963 237.736 252.975 237.675 252.971 237.613V237.249C252.971 237.215 252.957 237.183 252.934 237.159C252.91 237.136 252.878 237.122 252.844 237.122C252.827 237.121 252.81 237.124 252.794 237.13C252.778 237.136 252.763 237.145 252.75 237.157C252.738 237.169 252.728 237.183 252.721 237.199C252.715 237.214 252.711 237.231 252.711 237.249V237.613C252.711 237.662 252.711 237.69 252.711 237.697C252.711 237.704 252.669 237.697 252.627 237.697C252.547 237.621 252.483 237.528 252.441 237.425C252.399 237.323 252.378 237.212 252.381 237.101V234.766C252.386 234.747 252.386 234.726 252.382 234.707C252.377 234.687 252.369 234.669 252.356 234.653C252.344 234.637 252.328 234.625 252.31 234.616C252.292 234.607 252.272 234.603 252.252 234.603C252.232 234.603 252.212 234.607 252.194 234.616C252.176 234.625 252.16 234.637 252.147 234.653C252.135 234.669 252.126 234.687 252.122 234.707C252.117 234.726 252.117 234.747 252.122 234.766V237.101C252.116 237.258 252.147 237.413 252.211 237.555C252.276 237.698 252.372 237.823 252.494 237.922C252.548 237.949 252.608 237.963 252.669 237.964Z" fill="white"/>
<path d="M254.057 235.93V235.698C254.024 235.115 253.855 234.548 253.562 234.043C253.27 233.538 252.863 233.108 252.374 232.788C252.2 232.639 251.984 232.548 251.756 232.527C251.528 232.506 251.299 232.556 251.1 232.671C250.902 232.786 250.744 232.959 250.648 233.167C250.552 233.375 250.523 233.608 250.565 233.833V233.91L254.057 235.93ZM251.589 232.809C251.82 232.82 252.045 232.89 252.241 233.013C252.658 233.288 253.012 233.65 253.278 234.073C253.544 234.496 253.717 234.972 253.784 235.467L250.825 233.756C250.815 233.591 250.847 233.425 250.918 233.276C250.989 233.126 251.097 232.997 251.231 232.9C251.338 232.839 251.459 232.806 251.582 232.802L251.589 232.809Z" fill="white"/>
<path d="M247.95 235.271C247.985 235.271 248.019 235.257 248.044 235.232C248.069 235.207 248.083 235.173 248.083 235.138V230.664C248.083 230.628 248.069 230.594 248.044 230.569C248.019 230.544 247.985 230.53 247.95 230.53C247.914 230.53 247.88 230.544 247.855 230.569C247.83 230.594 247.816 230.628 247.816 230.664V235.138C247.816 235.173 247.83 235.207 247.855 235.232C247.88 235.257 247.914 235.271 247.95 235.271Z" fill="white"/>
<path d="M248.335 231.723H248.384C248.4 231.717 248.415 231.707 248.427 231.696C248.439 231.684 248.449 231.669 248.455 231.654C248.462 231.638 248.465 231.621 248.465 231.604C248.465 231.587 248.461 231.57 248.454 231.555L247.985 230.475L247.466 231.078C247.443 231.104 247.432 231.138 247.435 231.172C247.438 231.206 247.454 231.238 247.48 231.26C247.493 231.271 247.507 231.279 247.524 231.285C247.54 231.29 247.557 231.292 247.574 231.291C247.608 231.288 247.64 231.272 247.662 231.246L247.914 230.958L248.216 231.66C248.228 231.68 248.245 231.697 248.266 231.709C248.288 231.72 248.311 231.725 248.335 231.723Z" fill="white"/>
<path d="M246.736 234.577C246.771 234.577 246.803 234.564 246.828 234.541C246.853 234.517 246.868 234.485 246.87 234.451V229.977C246.87 229.942 246.856 229.908 246.831 229.883C246.806 229.858 246.772 229.844 246.736 229.844C246.719 229.843 246.701 229.846 246.684 229.852C246.668 229.858 246.652 229.868 246.64 229.881C246.627 229.893 246.618 229.908 246.611 229.925C246.605 229.942 246.602 229.959 246.603 229.977V234.451C246.603 234.468 246.607 234.485 246.613 234.501C246.62 234.517 246.63 234.531 246.643 234.543C246.655 234.555 246.67 234.564 246.686 234.57C246.702 234.576 246.719 234.578 246.736 234.577Z" fill="white"/>
<path d="M247.122 231.022C247.138 231.028 247.155 231.028 247.171 231.022C247.187 231.016 247.201 231.006 247.214 230.994C247.226 230.982 247.236 230.968 247.242 230.952C247.249 230.937 247.252 230.92 247.252 230.903C247.252 230.886 247.248 230.869 247.241 230.853L246.771 229.773L246.252 230.377C246.229 230.401 246.216 230.434 246.216 230.468C246.216 230.502 246.229 230.534 246.252 230.559C246.265 230.571 246.28 230.581 246.296 230.588C246.312 230.595 246.329 230.598 246.347 230.598C246.365 230.598 246.382 230.595 246.398 230.588C246.415 230.581 246.429 230.571 246.442 230.559L246.687 230.271L246.989 230.973C247.004 230.992 247.025 231.008 247.048 231.016C247.072 231.025 247.097 231.027 247.122 231.022Z" fill="white"/>
<path d="M260.937 245.426L275.179 237.207V204.312L260.937 212.537V245.426Z" fill="#E0E0E0"/>
<path d="M268.566 212.803L266.638 213.918V209.248L268.566 208.133V212.803Z" fill="#F5F5F5"/>
<path d="M266.638 209.249L246.694 197.734L248.63 196.619L268.566 208.134L266.638 209.249Z" fill="white"/>
<path d="M266.638 228.981L292.269 214.185L317.907 228.981L292.269 243.785L266.638 228.981Z" fill="#F5F5F5"/>
<path d="M292.269 263.516L266.638 248.72V228.979L292.269 243.783V263.516Z" fill="#EBEBEB"/>
<path d="M288.98 256.967C289.069 256.965 289.156 256.941 289.232 256.897C289.342 256.818 289.429 256.711 289.486 256.588C289.542 256.466 289.566 256.33 289.555 256.195V254.092V253.937H289.45L287.809 252.97V255.312C287.813 255.611 287.889 255.905 288.029 256.17C288.169 256.434 288.37 256.662 288.615 256.834C288.723 256.909 288.849 256.955 288.98 256.967ZM289.296 254.253V256.188C289.308 256.278 289.297 256.368 289.264 256.452C289.231 256.536 289.176 256.609 289.106 256.665C289.049 256.692 288.985 256.702 288.923 256.696C288.86 256.69 288.8 256.667 288.749 256.63C288.539 256.483 288.367 256.289 288.245 256.064C288.124 255.839 288.056 255.589 288.047 255.333V255.158H288.678L288.798 254.337L289.296 254.253ZM288.454 254.898H288.047V253.461L289.022 254.036L288.538 254.12L288.454 254.898Z" fill="white"/>
<path d="M288.685 258.638C288.702 258.638 288.718 258.635 288.734 258.628C288.749 258.622 288.763 258.613 288.775 258.601C288.786 258.589 288.796 258.575 288.802 258.56C288.808 258.545 288.812 258.528 288.812 258.512V256.751C288.816 256.732 288.816 256.712 288.812 256.692C288.808 256.672 288.799 256.654 288.786 256.638C288.774 256.623 288.758 256.61 288.74 256.601C288.722 256.592 288.702 256.588 288.682 256.588C288.662 256.588 288.642 256.592 288.624 256.601C288.606 256.61 288.59 256.623 288.578 256.638C288.565 256.654 288.556 256.672 288.552 256.692C288.548 256.712 288.548 256.732 288.552 256.751V258.512C288.552 258.529 288.556 258.546 288.562 258.562C288.569 258.577 288.579 258.592 288.592 258.603C288.604 258.615 288.619 258.624 288.635 258.63C288.651 258.636 288.668 258.639 288.685 258.638Z" fill="white"/>
<path d="M289.45 259.072C289.478 259.07 289.505 259.06 289.526 259.042C289.548 259.024 289.564 259 289.571 258.972C289.578 258.945 289.576 258.916 289.565 258.89C289.555 258.864 289.537 258.842 289.513 258.827L287.984 257.95C287.97 257.94 287.954 257.933 287.938 257.93C287.921 257.927 287.904 257.927 287.887 257.931C287.87 257.935 287.855 257.943 287.841 257.953C287.828 257.964 287.817 257.977 287.809 257.992C287.799 258.007 287.792 258.023 287.789 258.04C287.785 258.058 287.786 258.075 287.79 258.093C287.793 258.11 287.801 258.126 287.812 258.14C287.822 258.154 287.836 258.166 287.851 258.174L289.38 259.072H289.45Z" fill="white"/>
<path d="M284.008 256.057C284.054 256.067 284.102 256.067 284.148 256.057C284.202 256.023 284.245 255.975 284.274 255.918C284.302 255.861 284.314 255.797 284.31 255.734V255.376C284.31 255.341 284.296 255.307 284.271 255.282C284.246 255.257 284.212 255.243 284.176 255.243C284.141 255.243 284.107 255.257 284.082 255.282C284.057 255.307 284.043 255.341 284.043 255.376V255.734C284.053 255.764 284.053 255.796 284.043 255.825C284.043 255.825 284.001 255.825 283.952 255.825C283.873 255.748 283.811 255.655 283.77 255.552C283.729 255.45 283.709 255.34 283.714 255.229V252.894C283.712 252.859 283.697 252.826 283.673 252.802C283.648 252.777 283.615 252.762 283.58 252.761C283.545 252.761 283.511 252.775 283.486 252.8C283.461 252.825 283.447 252.859 283.447 252.894V255.229C283.441 255.385 283.472 255.541 283.536 255.683C283.601 255.826 283.697 255.951 283.819 256.05C283.88 256.067 283.945 256.069 284.008 256.057Z" fill="white"/>
<path d="M285.39 254.017V253.785C285.359 253.202 285.191 252.634 284.898 252.128C284.606 251.622 284.197 251.193 283.707 250.875C283.532 250.726 283.316 250.635 283.088 250.614C282.86 250.593 282.631 250.643 282.433 250.758C282.234 250.872 282.076 251.046 281.98 251.254C281.884 251.462 281.855 251.695 281.897 251.92V251.997L285.39 254.017ZM282.921 250.896C283.154 250.908 283.381 250.978 283.58 251.1C283.996 251.376 284.349 251.738 284.613 252.161C284.878 252.584 285.05 253.059 285.116 253.554L282.164 251.843C282.152 251.678 282.183 251.513 282.253 251.363C282.323 251.214 282.43 251.084 282.564 250.987C282.672 250.926 282.796 250.894 282.921 250.896Z" fill="white"/>
<path d="M279.282 253.364C279.299 253.365 279.317 253.362 279.334 253.356C279.35 253.349 279.365 253.339 279.378 253.327C279.391 253.314 279.4 253.299 279.407 253.283C279.413 253.266 279.416 253.248 279.415 253.23V248.756C279.419 248.737 279.42 248.716 279.415 248.697C279.411 248.677 279.402 248.659 279.389 248.643C279.377 248.627 279.361 248.615 279.343 248.606C279.325 248.597 279.305 248.593 279.285 248.593C279.265 248.593 279.245 248.597 279.227 248.606C279.209 248.615 279.193 248.627 279.181 248.643C279.168 248.659 279.159 248.677 279.155 248.697C279.151 248.716 279.151 248.737 279.155 248.756V253.23C279.154 253.248 279.157 253.265 279.163 253.281C279.169 253.297 279.178 253.312 279.19 253.324C279.202 253.337 279.216 253.347 279.232 253.353C279.247 253.36 279.264 253.364 279.282 253.364Z" fill="white"/>
<path d="M279.632 249.78H279.688C279.705 249.773 279.719 249.763 279.731 249.75C279.743 249.737 279.753 249.722 279.759 249.706C279.765 249.689 279.767 249.672 279.766 249.654C279.765 249.637 279.76 249.62 279.752 249.604L279.289 248.524L278.763 249.127C278.74 249.154 278.728 249.19 278.731 249.225C278.733 249.261 278.75 249.294 278.777 249.317C278.804 249.34 278.839 249.352 278.874 249.349C278.91 249.346 278.943 249.33 278.966 249.303L279.212 249.015L279.513 249.717C279.526 249.737 279.543 249.753 279.564 249.764C279.585 249.775 279.609 249.781 279.632 249.78Z" fill="white"/>
<path d="M278.068 252.67C278.104 252.67 278.138 252.656 278.163 252.631C278.188 252.606 278.202 252.572 278.202 252.537V248.063C278.202 248.028 278.188 247.994 278.163 247.969C278.138 247.944 278.104 247.93 278.068 247.93C278.033 247.93 277.999 247.944 277.974 247.969C277.949 247.994 277.935 248.028 277.935 248.063V252.537C277.935 252.572 277.949 252.606 277.974 252.631C277.999 252.656 278.033 252.67 278.068 252.67Z" fill="white"/>
<path d="M278.454 249.086H278.503C278.519 249.08 278.534 249.071 278.546 249.059C278.558 249.047 278.568 249.033 278.574 249.017C278.581 249.001 278.584 248.985 278.584 248.967C278.584 248.95 278.58 248.934 278.573 248.918L278.104 247.831L277.585 248.434C277.572 248.447 277.562 248.461 277.555 248.478C277.549 248.494 277.545 248.511 277.545 248.529C277.545 248.546 277.549 248.564 277.555 248.58C277.562 248.596 277.572 248.611 277.585 248.623C277.596 248.636 277.611 248.646 277.626 248.652C277.642 248.659 277.659 248.662 277.676 248.662C277.693 248.662 277.71 248.659 277.725 248.652C277.741 248.646 277.755 248.636 277.767 248.623L278.019 248.336L278.321 249.037C278.336 249.058 278.356 249.074 278.38 249.082C278.404 249.091 278.43 249.092 278.454 249.086Z" fill="white"/>
<path d="M292.269 263.516L317.907 248.72V228.979L292.269 243.783V263.516Z" fill="#E0E0E0"/>
<path d="M306.056 240.497L304.127 241.612V236.941L306.056 235.826V240.497Z" fill="#F5F5F5"/>
<path d="M304.127 236.941L278.489 222.144L280.418 221.022L306.056 235.826L304.127 236.941Z" fill="white"/>
<path d="M313.846 241.196L307.732 244.703C307.378 244.933 307.083 245.244 306.871 245.609C306.659 245.975 306.536 246.385 306.511 246.806V250.586C306.511 251.358 307.058 251.673 307.732 251.287L313.846 247.781C314.2 247.551 314.494 247.24 314.705 246.875C314.916 246.509 315.037 246.099 315.06 245.677V241.905C315.06 241.119 314.513 240.839 313.846 241.196Z" fill="#F5F5F5"/>
<path d="M314.316 242.137L314.085 242.27V246.463L314.316 246.33V242.137Z" fill="#E0E0E0"/>
<path d="M313.377 242.684L312.97 242.922V247.109L313.377 246.877V242.684Z" fill="#E0E0E0"/>
<path d="M312.43 243.23L312.192 243.364L312.199 247.557L312.43 247.424V243.23Z" fill="#E0E0E0"/>
<path d="M311.715 243.637L311.245 243.91L311.252 248.104L311.715 247.823V243.637Z" fill="#E0E0E0"/>
<path d="M310.536 244.324L310.305 244.457V248.651L310.536 248.511V244.324Z" fill="#E0E0E0"/>
<path d="M309.856 244.711L309.358 245.005V249.192L309.856 248.897V244.711Z" fill="#E0E0E0"/>
<path d="M308.643 245.419L308.412 245.552V249.739L308.643 249.605V245.419Z" fill="#E0E0E0"/>
<path d="M308.103 245.722L307.984 245.792V249.978L308.103 249.915V245.722Z" fill="#E0E0E0"/>
<path d="M309.071 245.188L308.959 245.251V249.444L309.071 249.381V245.188Z" fill="#E0E0E0"/>
<path d="M310.978 244.072L310.866 244.135V248.329L310.978 248.259V244.072Z" fill="#E0E0E0"/>
<path d="M312.023 243.469L311.904 243.539V247.725L312.023 247.662V243.469Z" fill="#E0E0E0"/>
<path d="M312.774 243.056L312.654 243.126V247.319L312.774 247.249V243.056Z" fill="#E0E0E0"/>
<path d="M313.79 242.438L313.671 242.509V246.695L313.79 246.632V242.438Z" fill="#E0E0E0"/>
<path d="M307.696 245.959L307.465 246.099V250.286L307.696 250.152V245.959Z" fill="#E0E0E0"/>
<path d="M272.332 189.515L292.269 178L312.213 189.515L292.269 201.022L272.332 189.515Z" fill="#F5F5F5"/>
<path d="M292.269 240.496L272.332 228.981V189.515L292.269 201.022V240.496Z" fill="#EBEBEB"/>
<path d="M288.98 233.946C289.068 233.947 289.155 233.925 289.232 233.883C289.342 233.804 289.429 233.697 289.486 233.575C289.542 233.452 289.566 233.316 289.555 233.182V231.078V230.924H289.45L287.809 229.963V232.298C287.813 232.598 287.888 232.894 288.028 233.159C288.168 233.425 288.37 233.654 288.615 233.827C288.724 233.898 288.85 233.939 288.98 233.946ZM289.296 231.232V233.175C289.307 233.264 289.295 233.354 289.262 233.437C289.229 233.521 289.175 233.594 289.106 233.651C289.049 233.678 288.985 233.688 288.923 233.682C288.86 233.676 288.8 233.653 288.749 233.616C288.539 233.468 288.367 233.273 288.245 233.046C288.124 232.82 288.056 232.569 288.047 232.312V232.144H288.678L288.798 231.323L289.296 231.232ZM288.454 231.877H288.047V230.44L289.022 231.015L288.538 231.099L288.454 231.877Z" fill="white"/>
<path d="M288.685 235.616C288.703 235.616 288.72 235.612 288.735 235.605C288.751 235.599 288.765 235.589 288.777 235.576C288.789 235.564 288.798 235.549 288.804 235.533C288.81 235.517 288.813 235.499 288.812 235.482V233.729C288.813 233.712 288.81 233.695 288.804 233.679C288.798 233.663 288.789 233.648 288.777 233.635C288.765 233.623 288.751 233.613 288.735 233.606C288.72 233.599 288.703 233.596 288.685 233.596C288.668 233.595 288.65 233.598 288.633 233.604C288.617 233.61 288.602 233.62 288.589 233.633C288.576 233.645 288.567 233.66 288.56 233.677C288.554 233.694 288.551 233.711 288.552 233.729V235.482C288.551 235.5 288.554 235.518 288.56 235.534C288.567 235.551 288.576 235.566 288.589 235.579C288.602 235.591 288.617 235.601 288.633 235.607C288.65 235.614 288.668 235.617 288.685 235.616Z" fill="white"/>
<path d="M289.45 236.057C289.478 236.055 289.505 236.045 289.526 236.027C289.548 236.009 289.564 235.984 289.571 235.957C289.578 235.93 289.576 235.901 289.565 235.875C289.555 235.849 289.537 235.827 289.513 235.812L287.984 234.928C287.954 234.91 287.917 234.906 287.883 234.915C287.849 234.924 287.82 234.946 287.802 234.977C287.784 235.008 287.779 235.044 287.789 235.078C287.798 235.113 287.82 235.142 287.851 235.159L289.38 236.036C289.4 236.05 289.425 236.057 289.45 236.057Z" fill="white"/>
<path d="M284.008 233.035C284.058 233.035 284.107 233.021 284.148 232.993C284.202 232.961 284.245 232.914 284.274 232.858C284.302 232.802 284.315 232.74 284.31 232.677V232.32C284.31 232.284 284.296 232.251 284.271 232.226C284.246 232.201 284.212 232.187 284.176 232.187C284.141 232.187 284.107 232.201 284.082 232.226C284.057 232.251 284.043 232.284 284.043 232.32V232.677C284.053 232.707 284.053 232.739 284.043 232.769C284.013 232.777 283.982 232.777 283.952 232.769C283.872 232.694 283.809 232.602 283.768 232.5C283.727 232.399 283.708 232.289 283.714 232.18V229.844C283.714 229.809 283.699 229.775 283.675 229.75C283.65 229.725 283.616 229.711 283.58 229.711C283.563 229.71 283.545 229.713 283.528 229.719C283.512 229.726 283.496 229.735 283.484 229.748C283.471 229.76 283.461 229.776 283.455 229.792C283.449 229.809 283.446 229.827 283.447 229.844V232.18C283.441 232.336 283.472 232.491 283.536 232.634C283.601 232.776 283.698 232.901 283.819 233C283.878 233.027 283.943 233.039 284.008 233.035Z" fill="white"/>
<path d="M285.39 231.023V230.798C285.358 230.214 285.189 229.645 284.897 229.139C284.604 228.632 284.197 228.201 283.707 227.881C283.531 227.736 283.315 227.648 283.087 227.629C282.86 227.61 282.632 227.661 282.435 227.776C282.238 227.891 282.081 228.063 281.984 228.27C281.888 228.477 281.858 228.708 281.897 228.933V229.003L285.39 231.023ZM282.921 227.909C283.154 227.921 283.381 227.991 283.58 228.113C283.996 228.388 284.347 228.749 284.612 229.171C284.877 229.593 285.049 230.066 285.116 230.56L282.164 228.856C282.151 228.691 282.181 228.526 282.251 228.376C282.321 228.226 282.429 228.097 282.564 228C282.669 227.926 282.793 227.883 282.921 227.874V227.909Z" fill="white"/>
<path d="M279.282 230.322C279.317 230.322 279.351 230.308 279.376 230.283C279.401 230.258 279.415 230.224 279.415 230.188V225.714C279.419 225.695 279.42 225.674 279.415 225.655C279.411 225.635 279.402 225.617 279.389 225.601C279.377 225.586 279.361 225.573 279.343 225.564C279.325 225.555 279.305 225.551 279.285 225.551C279.265 225.551 279.245 225.555 279.227 225.564C279.209 225.573 279.193 225.586 279.181 225.601C279.168 225.617 279.159 225.635 279.155 225.655C279.151 225.674 279.151 225.695 279.155 225.714V230.188C279.155 230.223 279.168 230.255 279.192 230.28C279.215 230.305 279.247 230.32 279.282 230.322Z" fill="white"/>
<path d="M279.632 226.75H279.688C279.705 226.744 279.719 226.734 279.731 226.721C279.743 226.708 279.753 226.693 279.759 226.677C279.765 226.66 279.767 226.643 279.766 226.625C279.765 226.608 279.76 226.591 279.752 226.575L279.289 225.495L278.763 226.098C278.74 226.123 278.727 226.155 278.727 226.189C278.727 226.223 278.74 226.256 278.763 226.281C278.789 226.304 278.822 226.317 278.857 226.317C278.892 226.317 278.926 226.304 278.952 226.281L279.198 225.993L279.499 226.694C279.513 226.716 279.533 226.733 279.557 226.743C279.581 226.753 279.607 226.756 279.632 226.75Z" fill="white"/>
<path d="M278.068 229.619C278.103 229.618 278.136 229.603 278.161 229.578C278.185 229.554 278.2 229.521 278.202 229.486V225.012C278.202 224.977 278.188 224.943 278.163 224.918C278.138 224.893 278.104 224.879 278.068 224.879C278.033 224.879 277.999 224.893 277.974 224.918C277.949 224.943 277.935 224.977 277.935 225.012V229.486C277.937 229.521 277.951 229.554 277.976 229.578C278.001 229.603 278.034 229.618 278.068 229.619Z" fill="white"/>
<path d="M278.454 226.064H278.503C278.519 226.057 278.534 226.047 278.546 226.034C278.559 226.022 278.568 226.007 278.575 225.991C278.581 225.974 278.584 225.957 278.584 225.94C278.584 225.922 278.58 225.905 278.573 225.889L278.104 224.809L277.585 225.412C277.572 225.424 277.562 225.439 277.555 225.455C277.549 225.471 277.545 225.489 277.545 225.506C277.545 225.524 277.549 225.541 277.555 225.558C277.562 225.574 277.572 225.589 277.585 225.601C277.61 225.623 277.642 225.635 277.676 225.635C277.709 225.635 277.741 225.623 277.767 225.601L278.019 225.313L278.321 226.015C278.336 226.035 278.357 226.05 278.38 226.059C278.404 226.067 278.43 226.069 278.454 226.064Z" fill="white"/>
<path d="M292.269 240.496L312.213 228.981V189.515L292.269 201.022V240.496Z" fill="#E0E0E0"/>
<path d="M302.753 199.64L300.817 200.755V196.092L302.753 194.97V199.64Z" fill="#F5F5F5"/>
<path d="M300.817 196.092L280.881 184.577L282.809 183.462L302.753 194.97L300.817 196.092Z" fill="white"/>
<path d="M308.152 221.457L302.037 224.963C301.683 225.193 301.389 225.503 301.178 225.869C300.967 226.235 300.846 226.645 300.824 227.067V230.839C300.824 231.611 301.364 231.926 302.037 231.541L308.152 228.034C308.507 227.805 308.803 227.495 309.015 227.129C309.227 226.763 309.349 226.353 309.372 225.931V222.158C309.365 221.386 308.825 221.071 308.152 221.457Z" fill="#F5F5F5"/>
<path d="M308.629 222.402L308.398 222.536V226.729L308.629 226.589V222.402Z" fill="#E0E0E0"/>
<path d="M307.682 222.95L307.283 223.182V227.375L307.682 227.137V222.95Z" fill="#E0E0E0"/>
<path d="M306.736 223.489L306.504 223.63V227.816L306.736 227.683V223.489Z" fill="#E0E0E0"/>
<path d="M306.02 223.896L305.558 224.177V228.363L306.02 228.09V223.896Z" fill="#E0E0E0"/>
<path d="M304.842 224.585L304.611 224.718V228.912L304.842 228.778V224.585Z" fill="#E0E0E0"/>
<path d="M304.162 224.97L303.664 225.264V229.458L304.162 229.163V224.97Z" fill="#E0E0E0"/>
<path d="M302.949 225.678L302.717 225.811V230.004L302.949 229.864V225.678Z" fill="#E0E0E0"/>
<path d="M302.409 225.987L302.297 226.05V230.244L302.409 230.174V225.987Z" fill="#E0E0E0"/>
<path d="M303.384 225.447L303.265 225.517V229.711L303.384 229.641V225.447Z" fill="#E0E0E0"/>
<path d="M305.291 224.332L305.172 224.402V228.589L305.291 228.526V224.332Z" fill="#E0E0E0"/>
<path d="M306.336 223.736L306.217 223.799V227.993L306.336 227.923V223.736Z" fill="#E0E0E0"/>
<path d="M307.079 223.323L306.967 223.386V227.58L307.079 227.51V223.323Z" fill="#E0E0E0"/>
<path d="M308.096 222.704L307.984 222.767V226.961L308.096 226.891V222.704Z" fill="#E0E0E0"/>
<path d="M302.009 226.226L301.771 226.359V230.545L302.009 230.412V226.226Z" fill="#E0E0E0"/>
</svg>
